<?xml version="1.0" encoding="UTF-8"?>
<svg id="Layer_1" data-name="Layer 1" xmlns="http://www.w3.org/2000/svg" xmlns:xlink="http://www.w3.org/1999/xlink" viewBox="0 0 900 116.9">
  <defs>
    <symbol id="Mixtape_Wide" data-name="Mixtape Wide" viewBox="0 0 900 116.9">
      <g>
        <path d="M523.3,1.7c-.2-1-1-1.7-2-1.7h-18.9c-1,0-1.7.7-1.7,1.7v113.6c0,1,.7,1.7,1.7,1.7h13.5c1,0,1.7-.7,1.7-1.7V37.4l11.7,58.3c.2,1,1,1.7,2,1.7h6.8c1,0,1.8-.7,2-1.7l11.7-58.3v77.8c0,1,.7,1.7,1.7,1.7h13.5c1.2,0,1.8-.7,1.8-1.7V1.7c0-1-.7-1.7-1.8-1.7h-18.5c-1,0-1.8.7-2,1.7l-11.7,59-11.5-59ZM600.5,116.9c1,0,1.7-.7,1.7-1.7V1.7c0-1-.7-1.7-1.7-1.7h-14.7c-1,0-1.7.7-1.7,1.7v113.6c0,1,.7,1.7,1.7,1.7h14.7ZM647.8,14.4c0,6,0,9.7-1.3,13.2l-4,11-.7,3.7-.7-3.7-4-11c-1.5-3.5-1.5-7.2-1.5-13.2V1.7c0-1-.7-1.7-1.7-1.7h-14.7c-1,0-1.7.7-1.7,1.7v11.7c0,6-.5,12.9,2.3,18.7l12.4,26.4-12.4,26.2c-2.8,5.8-2.3,12.7-2.3,18.7v11.9c0,1,.7,1.7,1.7,1.7h14.7c1,0,1.7-.7,1.7-1.7v-12.9c0-6,0-9.7,1.5-13.2l4-11,.7-3.7.7,3.7,4,11c1.3,3.5,1.3,7.2,1.3,13.2v12.9c0,1,.7,1.7,1.7,1.7h14.9c1,0,1.7-.7,1.7-1.7v-11.9c0-6,.5-12.9-2.3-18.7l-12.5-26.2,12.5-26.4c2.8-5.8,2.3-12.7,2.3-18.7V1.7c0-1-.7-1.7-1.7-1.7h-14.9c-1,0-1.7.7-1.7,1.7v12.7ZM693.2,115.3c0,1,.7,1.7,1.7,1.7h14.9c1,0,1.7-.7,1.7-1.7V18.7h15.5c1,0,1.7-.7,1.7-1.7V1.7c0-1-.7-1.7-1.7-1.7h-49.1c-1,0-1.7.7-1.7,1.7v15.4c0,1,.7,1.7,1.7,1.7h15.4v96.5ZM769.4,1.7c-.2-1-1-1.7-2-1.7h-18.9c-1,0-1.8.7-2,1.7l-10.9,45.3c-1.3,5.5-1.8,8.9-1.8,15v53.3c0,1,.7,1.7,1.7,1.7h14.7c1,0,1.7-.7,1.7-1.7v-33.9h12.2v33.9c0,1,.7,1.7,1.7,1.7h14.9c1,0,1.7-.7,1.7-1.7v-53.3c0-6.2-.5-9.7-1.8-15l-11-45.3ZM751.8,63.5c0-5.8.5-9.4,1.7-14.9l4-21,.5-5.7.5,5.7,4,21c1,5.5,1.5,9,1.5,14.9h-12.2ZM815.5,74.2h4c21.5,0,27.2-14.4,27.2-36.9s-5.7-37.2-27.2-37.2h-20.4c-1,0-1.7.7-1.7,1.7v113.6c0,1,.7,1.7,1.7,1.7h14.7c1,0,1.7-.7,1.7-1.7v-41.1ZM815.5,18.2h.8c10.7,0,11.9,5,11.9,19s-1.2,18.7-11.9,18.7h-.8V18.2ZM898.3,116.9c1,0,1.7-.7,1.7-1.7v-15.4c0-1-.7-1.7-1.7-1.7h-21.7v-31.4h15.2c1,0,1.7-.7,1.7-1.7v-14.9c0-1-.7-1.7-1.7-1.7h-15.2v-29.9h21.7c1,0,1.7-.7,1.7-1.7V1.7c0-1-.7-1.7-1.7-1.7h-38.1c-1,0-1.7.7-1.7,1.7v113.6c0,1,.7,1.7,1.7,1.7h38.1Z"/>
        <path d="M451.3,116.9H18.4c-10.8,0-18.4-7.5-18.4-18.4V18.4C0,7.6,7.6,0,18.4,0h432.9C462.1,0,469.6,7.6,469.6,18.4v80.2c0,10.8-7.6,18.4-18.4,18.4ZM18.4,10.7c-4.9,0-7.7,2.8-7.7,7.7v80.2c0,4.9,2.8,7.6,7.7,7.6h432.9c4.9,0,7.7-2.8,7.7-7.6V18.4c0-4.9-2.8-7.7-7.7-7.7H18.4ZM62.8,56.1c4.1-2.1,5.5-6.2,5.5-13.3s-3.4-16-15.5-16h-9.9c-.5,0-.9.4-.9.9v60.9c0,.5.4.9.9.9h11.5c11.5,0,14.6-7.4,14.6-17.6s-1.7-13.2-6.3-15.7ZM51.7,36.3h.5c5.8,0,6.4,2.5,6.4,7.7s-.6,8.1-6.4,8.1h-.5v-15.8ZM53,79.8h-1.3v-18.4h1.3c5.7,0,6.3,3,6.3,9.1s-.6,9.3-6.3,9.3ZM116.1,25.8c-8.1,0-13,5.3-13,13.4v37.6c0,8.1,4.8,13.4,13,13.4s13-5.3,13-13.4v-37.6c0-8.1-4.9-13.4-13-13.4ZM119.3,76.8c0,2.4-1,3.9-3.2,3.9s-3.3-1.5-3.3-3.9v-37.6c0-2.4,1.1-3.9,3.3-3.9s3.2,1.5,3.2,3.9v37.6ZM189.2,26.7h-8c-.5,0-.9.4-.9.9v49.2c0,2.4-1,3.9-3.2,3.9s-3.3-1.5-3.3-3.9V27.6c0-.5-.4-.9-.9-.9h-7.9c-.5,0-.9.4-.9.9v49.2c0,8.1,4.8,13.4,13,13.4s13-5.3,13-13.4V27.6c0-.5-.4-.9-.9-.9ZM246.7,79.3h-12V27.6c0-.5-.4-.9-.9-.9h-7.9c-.5,0-.9.4-.9.9v60.9c0,.5.4.9.9.9h20.8c.5,0,.9-.4.9-.9v-8.2c0-.5-.4-.9-.9-.9ZM292.9,26.7h-11.1c-.5,0-.9.4-.9.9v60.9c0,.5.4.9.9.9h11.1c10.1,0,14.8-4.9,14.8-21.9v-18.8c0-16.9-4.7-21.9-14.8-21.9ZM297.7,68.1c0,9.2-.6,11.6-6.3,11.6h-.9v-43.5h.9c5.6,0,6.3,2.4,6.3,11.6v20.2ZM363.9,26.7h-20.4c-.5,0-.9.4-.9.9v60.9c0,.5.4.9.9.9h20.4c.5,0,.9-.4.9-.9v-8.2c0-.5-.4-.9-.9-.9h-11.6v-16.8h8.1c.5,0,.9-.4.9-.9v-8c0-.5-.4-.9-.9-.9h-8.1v-16h11.6c.5,0,.9-.4.9-.9v-8.2c0-.5-.4-.9-.9-.9ZM427,88.5l-6.3-26.1c3.7-3.2,4.8-9,4.8-16.2,0-11.9-3-19.5-14.6-19.5h-11.1c-.5,0-.9.4-.9.9v60.9c0,.5.4.9.9.9h7.9c.5,0,.9-.4.9-.9v-22.9h3.1l4.9,23c0,.5.5.8,1.1.8h8.5c.5,0,.8-.3.7-.8ZM409.4,55.8h-.7v-19.3h.7c5.6,0,6.3,2.6,6.3,9.8s-.6,9.6-6.3,9.6Z"/>
      </g>
    </symbol>
  </defs>
  <use width="900" height="116.9" transform="translate(.5)" xlink:href="#Mixtape_Wide"/>
</svg>