<?xml version="1.0" encoding="UTF-8"?>
<svg id="Layer_1" data-name="Layer 1" xmlns="http://www.w3.org/2000/svg" xmlns:xlink="http://www.w3.org/1999/xlink" viewBox="0 0 900 301.7">
  <defs>
    <symbol id="Museum_Globe" data-name="Museum Globe" viewBox="0 0 900 301.7">
      <path d="M565.6,109.4c0,3.6.6,7,1.7,10.1l-20.8-.6-1.8-10.3,20.9.5c0,0,0,.1,0,.2ZM896.8,169.4c-8.8,25.1-34.5,45-57.5,58.1-66.9,38-161.1,56.4-238.2,65.5-82.8,9.8-165.3,11.1-247.8,5.1-77.8-5.6-162.3-18.4-235.5-44.9-23-8.3-44.7-18-65.4-30.8-16.7-10.3-31.2-22.7-42.1-38.7-13.7-20.3-13.6-45.2,0-65.6,18.5-27.7,52-46.6,82.6-59.8,61.9-26.5,135.3-41.5,202.4-49.4,91.4-10.7,183.5-11.9,275.1-3.6,67.3,6.1,143.9,18.9,207.3,41.4,33.9,12.1,76,30.6,100.3,56.7,17.5,18.8,27.6,40.7,18.8,65.9ZM865.8,122.6c-14.3-8.3-29.2-14.2-44.9-19.8-24.8-7.8-49.4-14.2-75.9-18.8,10.8,10.8,19.6,21.8,25.5,35.2l71.1,8.4c14.4,2.2,27.8,5,41.7,9.1-5-6.3-11.1-10-17.5-14ZM664.4,189.1l-1.4-2.6c2.3-2.2,4.1-4.8,5.6-7.5,31.5-1.4,62.8-3.4,94.8-6.2,5.3-14.5,5.1-29.7-.2-43.9l-100.3-6c2.8-2.5,4.6-6,4.7-10l90.6,5.2c-8.9-16.6-21.2-28.2-35.1-38.2-37.5-5.9-74.3-11-112.1-13.7,3.6,4.1,6.8,8.3,9.7,12.5-4.4,0-9-.1-13.3-.2-3.8-4.8-7.8-9.4-12.2-13.7-29.9-2.2-58.7-3.7-88.9-4.4,2.4,7.2,4.4,14.3,6,21.5-2.5-2.2-5.9-3.5-9.4-3.5h-.8c-.4,0-1,0-1.5,0-1.6-6.1-3.4-12.2-5.7-18.2h-90.3c-2.2,6.2-4.1,12.4-5.7,18.7-2.6,0-6.4,0-10.7-.1,1.5-6.1,3.2-12.1,5.2-18.2-29.9.7-59.1,2.1-88.8,4.4-4.5,4.3-8.6,9-12.4,13.8-4.3,0-8.9-.2-13-.3,3-4.2,6.2-8.3,9.7-12.3-38,3-74.5,7.6-111.9,13.8-14.4,10.1-26.8,22.7-35.6,38.4l87.4-5.1-1.9,10.5-90.4,5.4c-5.4,14.5-5.5,29.7-.2,43.9l90.5,5.4v10.3l-85.6-5c8.6,15.7,20.9,28.3,35.3,38.4,37.2,5.9,73.6,11,111.7,13.5-3.6-4.3-6.8-8.6-9.8-13h13.1c4,5.1,8.3,10,13.1,14.4l88.7,4.5c-2.1-6.4-3.8-12.7-5.4-18.9h10.7c1.7,6.5,3.6,12.9,6,19.3h90.2c2.4-6.6,4.3-13.1,6-19.4,5.1.1,9.3.2,9.3.2h1.3c-1.6,6.3-3.3,12.7-5.3,19,30.3-1,59.2-2.2,88.9-4.7,4.8-4.6,8.9-9.4,12.8-14.4h13.1c-3.1,4.5-6.4,8.9-10.2,13.1,38.5-2.6,75.1-7.6,112.6-13.8,14.6-10.6,26.3-22.8,35-38.2l-94.2,5.5ZM619.9,21.7l4,1c36.5,10.4,72.9,25,104.1,47.7,30,5.2,59,11.6,88,20.4,20.1,6.1,38.8,13.5,57.5,24.1-3.9-7-10.1-10.9-15.8-15.8-14.7-11.7-30.6-20.6-47.8-28.4-56.6-25.6-123.5-40-184.9-48.9-1.9-.3-3.4-1.5-5.1-.2ZM537.9,15.7c23,9.9,44.2,21.9,62.3,39.1,34.1,2.4,67.2,6.7,101.8,11.2-19.6-12-40.2-20-61.7-27.6-33.3-10.8-66.9-18.6-102.4-22.7ZM478,11.7c11.6,11.4,18.4,24.1,24.6,38.3l79.8,3.5c-7.3-6.4-15-11.3-23.5-16.1-24.9-13.9-52-22.4-80.9-25.8ZM430,18.5c-9.3,8.4-15.8,19.2-20.7,31.3h81.7c-5.5-12.8-12.5-24.2-22.9-32.8-11.6-9.5-27-8.4-38,1.6ZM422.3,11.8c-26.8,2.9-51.9,10.5-75.4,22.6-10.5,5.4-20.1,11.3-29.2,19.2l80-3.6,9.2-18.7c4.2-7.3,9.1-13.5,15.5-19.5ZM265.1,36.7c-23.3,7.8-45.7,16.3-66.8,29.2,34.4-4.5,67.1-8.6,101.4-10.9,18.5-17.5,39.7-29.3,62.6-39.1-33.5,3.9-65.4,11-97.1,20.9ZM24.6,115.7c1.7,1.1,1.9-.7,2.4-1,16.5-9.6,33.6-16.5,52-22.3,30.5-9.7,61.1-16.5,92.8-21.9,11.8-8.5,23.5-15.5,36.6-21.9,23-11.7,46.9-19.6,71.4-27.1-60.7,8.2-125.4,22-181.4,45.8-25.8,11-52.6,25.4-71.3,46.2l-2.5,2.4ZM17.2,136.3c13.4-3.4,25.1-6.3,38.6-8.2,24.9-4.1,48.8-6.5,73.7-8.9,5.9-13.6,14.7-24.5,25.9-35.1-24.9,4.3-47.9,10.2-71.3,17.3-17,5.5-32.8,11.7-48.3,20.3-6.8,4.2-13.5,7.9-18.7,14.7ZM11,150.6c3.1,2.9,6.9,4,11.1,5.4,11.8,3.8,23.1,5.6,35.1,7.7,22.8,3.5,45.1,6.1,68.1,8.2-4.2-14.4-3.9-28.2.5-42-20.7,1.9-40.4,4.1-60.7,7-13.2,2.1-25.8,4.1-38.6,7.6-5.3,1.5-10.3,3-15.4,6.1ZM16.6,165.4c7.1,8.3,15.6,12.6,24.2,17.7,15.6,7.8,31.4,13.7,48.2,18.8,21.8,6.5,43.3,11.8,66.2,15.7-11.5-10.7-19.7-21.8-25.9-35.1l-65.1-7.4c-16.4-2.2-31.7-5.4-47.5-9.7ZM278.3,279.8c-38.4-11.4-73.9-25.4-106.9-48.6-35.7-6.4-71.1-13.7-105.1-25.9-13.1-4.9-25.4-10.1-37.4-17-1.4-.8-2.3-2-4.1-2.2.6,1.6,2,2.2,2.9,3.2,14.3,16.6,37.7,30,58.1,39.7,39.8,19,85,31,128.2,40.4,21.5,4,42.2,8,64.2,10.4ZM362,285.7c-23.8-10-44.3-22-62.3-38.9-34.7-2.7-68.2-6.3-101.9-11.3,19.2,11.6,38.7,19.6,59.4,26.9,34.2,11.3,69.2,19.5,104.8,23.3ZM421.6,289.7l-6.4-7.2c-7.5-9.5-12.9-19.6-17.7-30.6l-79.8-3.8c14.3,11.7,29.6,20,46.2,26.9,18.8,7.4,37.9,12.3,57.8,14.6ZM490.8,252.2h-81.4c6,13.8,14.6,27.9,27.3,35.5,8.2,4.7,17.7,5,26.2.3,13.3-7.5,21.6-22,27.9-35.8ZM478.5,289.8c38-4.7,74.7-18.1,103.9-41.5l-80,3.8c-4.5,10.6-9,20.6-16.2,28.8l-7.7,8.9ZM632.9,265.7c24.1-7.9,46.7-16.6,68.5-29.8-34.3,4.7-66.8,8.6-100.9,10.9-18,16.8-38.8,28.8-61.9,38.8,32.8-3.2,63.2-10.6,94.4-19.9ZM874.2,186.5l-17.4,9.2c-39.6,18.4-85.3,27.8-128.3,35.6-31.1,21.9-66.5,36.7-102.7,47.2-2.8.4-5.1,1-7.4,2,3.2.3,5.7-.6,8.5-1.1l68.3-12.1c48-10.8,99.1-25.4,141.5-50.2,10.2-6,19.4-12.5,28.2-20.4,3.5-3.1,6.8-5.9,9.3-10.3ZM883.5,165.2c-13.7,4.2-26.7,6.7-40.7,8.8l-72.1,8.5c-6.2,13.7-15.1,24.8-26.3,35.3,26.7-4.9,51.7-10.8,77.3-19.1,21.3-7.8,47-17,61.9-33.5ZM889,151c-4.3-3.1-8.6-4.9-13.3-5.9l-33.7-7.2-67.6-8.1c4.1,13.8,4.3,27.6.2,42l57.3-6.3,40.1-7.7c6-1.1,11.4-3.3,16.9-6.8ZM240.4,125.5c0,.7.3,1.1.9,1.1h4.4c.4,0,.8-.4.9-.7l2.9-18.7h.1l8.7,19.4c.1.3.4.5.8.5h.9c.4,0,.7-.2.8-.5l8.6-19.4h.1l2.9,18.7c0,.3.5.7.9.7h4.5c.6,0,1-.4.9-1.1l-5.8-33.2c0-.4-.3-.7-.9-.7h-.8c-.4,0-.7.2-.8.5l-10.9,23.3h-.1l-10.9-23.3c-.1-.3-.4-.5-.8-.5h-.8c-.5,0-.8.3-.9.7l-5.9,33.2ZM302.1,113.5c0,7.5,6,13.6,13.7,13.6s13.8-6.1,13.8-13.6v-20.5c0-.5-.4-.9-.9-.9h-4.7c-.5,0-.9.4-.9.9v20.2c0,4.1-2.9,7.5-7.2,7.5s-7.2-3.3-7.2-7.5v-20.2c0-.5-.4-.9-.9-.9h-4.7c-.5,0-.9.4-.9.9v20.5ZM353.5,123.3c1,.9,4.6,3.8,10.9,3.8s11.3-4.7,11.3-9.8-5.5-9.2-10.3-11.1c-4-1.6-5.8-3.2-5.8-5.5s1.5-3.5,4.3-3.5,6.5,2.5,6.9,2.7c.6.4,1.3,0,1.7-.6l1.9-2.8c.3-.5.2-1.3-.3-1.6-1-.7-4.8-3.3-9.9-3.3-7.8,0-11.1,5.1-11.1,9.5s4.6,8.8,9.3,10.7c4.1,1.7,6.3,3.4,6.3,5.9s-1.9,3.8-4.5,3.8-7.2-2.9-7.5-3.1c-.4-.3-1.3-.3-1.7.3l-1.8,3.1c-.4.8-.2,1,.2,1.5ZM399.4,125.7c0,.5.4.9.9.9h20.1c.5,0,.9-.4.9-.9v-4c0-.5-.4-.9-.9-.9h-14.6v-8.6h12.2c.5,0,.9-.4.9-.9v-4.1c0-.5-.4-.9-.9-.9h-12.2v-8.1h14.6c.5,0,.9-.4.9-.9v-4c0-.5-.4-.9-.9-.9h-20.1c-.5,0-.9.4-.9.9v32.7ZM445,113.5c0,7.5,6,13.6,13.7,13.6s13.8-6.1,13.8-13.6v-20.5c0-.5-.4-.9-.9-.9h-4.7c-.5,0-.9.4-.9.9v20.2c0,4.1-2.9,7.5-7.2,7.5s-7.2-3.3-7.2-7.5v-20.2c0-.5-.4-.9-.9-.9h-4.7c-.5,0-.9.4-.9.9v20.5ZM495.5,125.5c0,.7.3,1.1.9,1.1h4.4c.4,0,.8-.4.9-.7l2.9-18.7h.1l8.7,19.4c.1.3.4.5.8.5h.9c.4,0,.7-.2.8-.5l8.6-19.4h.1l2.9,18.7c0,.3.5.7.9.7h4.5c.6,0,1-.4.9-1.1l-5.8-33.2c0-.4-.3-.7-.9-.7h-.8c-.4,0-.7.2-.8.5l-10.9,23.3h-.1l-10.9-23.3c-.1-.3-.4-.5-.8-.5h-.8c-.5,0-.8.3-.9.7l-5.9,33.2ZM578.9,109.4c0,9.9,7.8,17.7,17.7,17.7s17.8-7.8,17.8-17.7-7.9-17.8-17.8-17.8-17.7,7.9-17.7,17.8ZM585.3,109.4c0-6.2,5.1-11.4,11.3-11.4s11.3,5.2,11.3,11.4-5.1,11.3-11.3,11.3-11.3-5.1-11.3-11.3ZM634.8,125.7c0,.5.4.9.9.9h4.5c.5,0,.9-.4.9-.9v-12.5h12.2c.5,0,.9-.4.9-.9v-4c0-.5-.4-.9-.9-.9h-12.2v-9.3h14.6c.5,0,.9-.4.9-.9v-4c0-.5-.4-.9-.9-.9h-20.1c-.5,0-.9.4-.9.9v32.7ZM240.5,207.4c0,1,.8,1.8,1.8,1.8h23c11.6,0,20.8-7.7,20.8-18.4s-7.3-13.9-12.4-15.5c4.5-2.1,10.5-7.8,10.5-15.1s-8.8-17.6-20.1-17.6h-21.8c-1,0-1.8.9-1.8,1.8v63ZM252.7,170.5v-16.7h10.2c4.9,0,8.2,3.3,8.2,8.1s-3.3,8.6-8.2,8.6h-10.2ZM252.7,197.9v-16.9h10.4c5,0,9.7,3.5,9.7,8.3s-3.8,8.7-8.6,8.7h-11.5ZM293,175.9c0,19,15.1,34.2,34.2,34.2s34.3-15.1,34.3-34.2-15.2-34.4-34.3-34.4-34.2,15.3-34.2,34.4ZM305.4,175.9c0-12,9.8-22,21.8-22s21.9,10,21.9,22-9.9,21.8-21.9,21.8-21.8-9.8-21.8-21.8ZM371.8,183.9c0,14.5,11.5,26.2,26.5,26.2s26.6-11.7,26.6-26.2v-39.6c0-1-.9-1.8-1.8-1.8h-9c-1,0-1.8.9-1.8,1.8v39c0,8-5.6,14.4-13.9,14.4s-13.8-6.4-13.8-14.5v-38.9c0-1-.8-1.8-1.8-1.8h-9c-1,0-1.8.9-1.8,1.8v39.6ZM439.9,207.4c0,1,.8,1.8,1.8,1.8h34.8c1,0,1.8-.9,1.8-1.8v-7.8c0-1-.8-1.8-1.8-1.8h-24.3v-53.4c0-1-.9-1.8-1.8-1.8h-8.8c-1,0-1.8.9-1.8,1.8v63ZM486.1,207.4c0,1,.8,1.8,1.7,1.8h22.6c18.4,0,33.4-14.9,33.4-33.4s-15-33.2-33.4-33.2h-22.6c-1,0-1.7.9-1.7,1.8v63ZM498.4,197.5v-43.5h10.9c12.4,0,21.4,9.3,21.4,21.7s-9,21.8-21.4,21.8h-10.9ZM555,207.4c0,1,.8,1.8,1.8,1.8h38.8c1,0,1.8-.9,1.8-1.8v-7.8c0-1-.8-1.8-1.8-1.8h-28.2v-16.7h23.5c1,0,1.8-.8,1.8-1.8v-7.9c0-1-.9-1.8-1.8-1.8h-23.5v-15.6h28.2c1,0,1.8-.9,1.8-1.8v-7.8c0-1-.8-1.8-1.8-1.8h-38.8c-1,0-1.8.9-1.8,1.8v63ZM609.8,207.4c0,1,.8,1.8,1.8,1.8h8.8c1,0,1.8-.9,1.8-1.8v-24.3h10.6l12.7,25.2c.2.4.7.9,1.5.9h10c1.6,0,2.3-1.5,1.6-2.8l-13-24.2c8.3-3.3,14.1-10.5,14.1-19.2s-9.3-20.5-20.8-20.5h-27.2c-1,0-1.8.9-1.8,1.8v63ZM622.3,172.9v-18.9h15.5c5,0,9.4,4.2,9.4,9.2s-4.4,9.7-9.4,9.7h-15.5Z"/>
    </symbol>
  </defs>
  <use width="900" height="301.7" xlink:href="#Museum_Globe"/>
</svg>