<?xml version="1.0" encoding="UTF-8"?>
<svg id="Layer_1" data-name="Layer 1" xmlns="http://www.w3.org/2000/svg" viewBox="0 0 900 54.9">
  <path d="M.6,46.1c-.4,0-.6-.3-.6-.6V1.3c0-.4.3-.6.6-.6h5.7c.4,0,.6.3.6.6v37.5h8.7c.4,0,.6.3.6.6v6c0,.4-.3.6-.6.6H.6ZM20.4,37V9.7c0-5.9,3.5-9.7,9.4-9.7s9.4,3.8,9.4,9.7v27.2c0,5.9-3.6,9.7-9.4,9.7s-9.4-3.8-9.4-9.7ZM32.1,37V9.7c0-1.8-.7-2.9-2.3-2.9s-2.4,1.1-2.4,2.9v27.2c0,1.8.8,2.9,2.4,2.9s2.3-1.1,2.3-2.9ZM63.3,28.1c.4.1.6.5.6.8v8c0,5.9-3.6,9.7-9.4,9.7s-9.4-3.8-9.4-9.7V9.7c0-5.9,3.5-9.7,9.4-9.7s9.4,3.8,9.4,9.7v8c0,.4-.3.7-.6.8l-5.6,1.6c-.4.1-.6,0-.6-.5v-10c0-1.8-.7-2.9-2.4-2.9s-2.5,1.1-2.5,2.9v27.2c0,1.8.8,2.9,2.5,2.9s2.4-1.1,2.4-2.9v-10c0-.4.3-.6.6-.5l5.6,1.6ZM87.9,18.9c.5,2.1.7,3.4.7,5.8v20.7c0,.4-.3.6-.6.6h-5.8c-.4,0-.6-.3-.6-.6v-13.2h-4.7v13.2c0,.4-.3.6-.6.6h-5.7c-.4,0-.6-.3-.6-.6v-20.7c0-2.4.2-3.7.7-5.8l4.2-17.6c0-.4.4-.6.8-.6h7.3c.4,0,.7.3.8.6l4.3,17.6ZM81.5,25.3c0-2.3-.2-3.6-.6-5.8l-1.6-8.2-.2-2.2-.2,2.2-1.6,8.2c-.5,2.1-.6,3.5-.6,5.8h4.7ZM95.8,46.1c-.4,0-.6-.3-.6-.6V1.3c0-.4.3-.6.6-.6h5.7c.4,0,.6.3.6.6v37.5h8.7c.4,0,.6.3.6.6v6c0,.4-.3.6-.6.6h-15.1ZM117,53.8c-.3-.3-.3-.6,0-.9,1.4-1.7,2.9-4.1,3.2-5.9,0-.4-.2-.6-.6-.6-2.1,0-4-1.7-4-4.2s1.7-4.5,4.3-4.5,5.1,2.2,5.1,6.4-3.5,8.8-5.8,10.6c-.3.3-.6.2-1,0l-1.1-.8ZM143.8,46.1c-.4,0-.6-.3-.6-.6V1.3c0-.4.3-.6.6-.6h5.7c.4,0,.6.3.6.6v37.5h8.7c.4,0,.6.3.6.6v6c0,.4-.3.6-.6.6h-15.1ZM165.4,46.1c-.4,0-.6-.3-.6-.6V1.3c0-.4.3-.6.6-.6h5.7c.4,0,.6.3.6.6v44.1c0,.4-.3.6-.6.6h-5.7ZM192.2,45.3c-.1.4-.5.7-.9.7h-6.9c-.5,0-.8-.3-.9-.7l-4.3-17.5c-.5-2.1-.7-3.4-.7-5.8V1.3c0-.4.3-.6.6-.6h5.7c.4,0,.6.3.6.6v19.4c0,2.4,0,3.7.6,5.8l1.6,8.1.2,2.2.2-2.2,1.6-8.1c.4-2.1.6-3.4.6-5.8V1.3c0-.4.3-.6.6-.6h5.8c.4,0,.6.3.6.6v20.7c0,2.4-.2,3.8-.7,5.8l-4.3,17.5ZM204.4,46.1c-.4,0-.6-.3-.6-.6V1.3c0-.4.3-.6.6-.6h14.8c.4,0,.6.3.6.6v6c0,.4-.3.6-.6.6h-8.4v11.6h5.9c.4,0,.6.3.6.6v5.8c0,.4-.3.6-.6.6h-5.9v12.2h8.4c.4,0,.6.3.6.6v6c0,.4-.3.6-.6.6h-14.8ZM251.6,21.9c.3.3.3.6,0,1l-3.1,3.3c-2.5,2.6-2.7,3-2.7,6.1v4.7c0,1.8.8,2.9,2.5,2.9s2.5-1.1,2.5-2.9v-6.1c0-.4.2-.8.5-1.1l3.6-3.8c.3-.3.6-.3,1,0l4.2,4c.3.3.3.6,0,.9l-1.8,1.9c-.3.3-.5.7-.5,1.1v3c0,5.9-3.6,9.7-9.5,9.7s-9.5-3.8-9.5-9.7v-5.5c0-4.5,1.2-6.5,3.8-9.1h.1c-2.7-2.4-3.6-4.5-3.6-9.1v-3.2c0-6,3.4-9.9,9.3-9.9s9.3,3.9,9.3,9.9v4.9c0,.4-.3.7-.6.8l-5.8,1.6c-.4.1-.6,0-.6-.5v-7.1c0-1.8-.7-2.9-2.3-2.9s-2.4,1.1-2.4,2.9v2.1c0,4.4,0,4.7,1.9,6.4l3.7,3.6ZM278.8,46.1c-.4,0-.6-.3-.6-.6V1.3c0-.4.3-.6.6-.6h5.7c.4,0,.6.3.6.6v37.5h8.7c.4,0,.6.3.6.6v6c0,.4-.3.6-.6.6h-15.1ZM298.5,37V9.7c0-5.9,3.5-9.7,9.4-9.7s9.4,3.8,9.4,9.7v27.2c0,5.9-3.6,9.7-9.4,9.7s-9.4-3.8-9.4-9.7ZM310.2,37V9.7c0-1.8-.7-2.9-2.3-2.9s-2.4,1.1-2.4,2.9v27.2c0,1.8.8,2.9,2.4,2.9s2.3-1.1,2.3-2.9ZM342,.6c.4,0,.6.3.6.6v35.7c0,5.9-3.6,9.7-9.4,9.7s-9.4-3.8-9.4-9.7V1.3c0-.4.3-.6.6-.6h5.7c.4,0,.6.3.6.6v35.7c0,1.8.8,2.9,2.4,2.9s2.3-1.1,2.3-2.9V1.3c0-.4.3-.6.6-.6h5.8ZM349.2,1.3c0-.4.3-.6.6-.6h8c7.3,0,10.7,3.6,10.7,15.9v13.6c0,12.3-3.4,15.9-10.7,15.9h-8c-.4,0-.6-.3-.6-.6V1.3ZM356.2,39.1h.6c4.1,0,4.5-1.8,4.5-8.4v-14.7c0-6.7-.5-8.4-4.5-8.4h-.6v31.5ZM706.7,10.3h-4c-.4,0-.6-.3-.6-.6v-3.7c0-.4.2-.8.5-1l5.1-3.8c.4-.3.8-.4,1.2-.4h4.3c.4,0,.6.3.6.6v44.1c0,.4-.3.6-.6.6h-5.8c-.4,0-.6-.3-.6-.6V10.3ZM720.6,34.2c0-.4.3-.7.6-.8l5.4-1.6c.4-.1.6,0,.6.5v4.9c0,1.8.6,2.8,2.2,2.8s2.1-1,2.1-2.8v-9.8c-1,1.1-2.3,1.8-4.3,1.8-4.5,0-7-3.4-7-9.2v-10.4c0-5.8,3.4-9.5,9.2-9.5s9.2,3.8,9.2,9.5v27.6c0,5.8-3.5,9.5-9.2,9.5s-9-3.8-9-9.5v-3ZM731.7,19.4v-9.9c0-1.8-.6-2.8-2.1-2.8s-2.2,1-2.2,2.8v10.4c0,1.8.7,2.9,2.2,2.9s2.1-1,2.1-3.4ZM752,7.9v8.6c1.1-1.1,2.5-1.8,4.6-1.8,4.7,0,7.1,3.4,7.1,9.2v13.2c0,5.8-3.5,9.5-9.2,9.5s-9.2-3.8-9.2-9.5v-4.1c0-.4.3-.7.6-.8l5.7-1.7c.4-.1.6,0,.6.5v6.2c0,1.8.6,2.8,2.2,2.8s2.1-1,2.1-2.8v-13.2c0-1.8-.6-2.9-2.1-2.9-2.3,0-2.3,2.3-2.5,4.8,0,.4-.3.6-.6.5l-5.4-1.6c-.4-.1-.6-.5-.6-.8V1.3c0-.4.3-.6.6-.6h16.2c.4,0,.6.3.6.6v6c0,.4-.3.6-.6.6h-10.2ZM777,7.9v8.6c1.1-1.1,2.5-1.8,4.6-1.8,4.7,0,7.1,3.4,7.1,9.2v13.2c0,5.8-3.5,9.5-9.2,9.5s-9.2-3.8-9.2-9.5v-4.1c0-.4.3-.7.6-.8l5.7-1.7c.4-.1.6,0,.6.5v6.2c0,1.8.6,2.8,2.2,2.8s2.1-1,2.1-2.8v-13.2c0-1.8-.6-2.9-2.1-2.9-2.3,0-2.3,2.3-2.5,4.8,0,.4-.3.6-.6.5l-5.4-1.6c-.4-.1-.6-.5-.6-.8V1.3c0-.4.3-.6.6-.6h16.2c.4,0,.6.3.6.6v6c0,.4-.3.6-.6.6h-10.2ZM808.7,25.8c0,.4-.3.6-.6.6h-12.1c-.4,0-.6-.3-.6-.6v-5.5c0-.4.3-.6.6-.6h12.1c.4,0,.6.3.6.6v5.5ZM818.6,10.3h-4c-.4,0-.6-.3-.6-.6v-3.7c0-.4.2-.8.5-1l5.1-3.8c.4-.3.8-.4,1.2-.4h4.3c.4,0,.6.3.6.6v44.1c0,.4-.3.6-.6.6h-5.8c-.4,0-.6-.3-.6-.6V10.3ZM832.5,34.2c0-.4.3-.7.6-.8l5.4-1.6c.4-.1.6,0,.6.5v4.9c0,1.8.6,2.8,2.2,2.8s2.1-1,2.1-2.8v-9.8c-1,1.1-2.3,1.8-4.3,1.8-4.5,0-7-3.4-7-9.2v-10.4c0-5.8,3.4-9.5,9.2-9.5s9.2,3.8,9.2,9.5v27.6c0,5.8-3.5,9.5-9.2,9.5s-9-3.8-9-9.5v-3ZM843.6,19.4v-9.9c0-1.8-.6-2.8-2.1-2.8s-2.2,1-2.2,2.8v10.4c0,1.8.7,2.9,2.2,2.9s2.1-1,2.1-3.4ZM856.9,34.2c0-.4.3-.7.6-.8l5.4-1.6c.4-.1.6,0,.6.5v4.9c0,1.8.6,2.8,2.2,2.8s2.1-1,2.1-2.8v-9.8c-1,1.1-2.3,1.8-4.3,1.8-4.5,0-7-3.4-7-9.2v-10.4c0-5.8,3.4-9.5,9.2-9.5s9.2,3.8,9.2,9.5v27.6c0,5.8-3.5,9.5-9.2,9.5s-9-3.8-9-9.5v-3ZM868,19.4v-9.9c0-1.8-.6-2.8-2.1-2.8s-2.2,1-2.2,2.8v10.4c0,1.8.7,2.9,2.2,2.9s2.1-1,2.1-3.4ZM888.3,7.9v8.6c1.1-1.1,2.5-1.8,4.6-1.8,4.7,0,7.1,3.4,7.1,9.2v13.2c0,5.8-3.5,9.5-9.2,9.5s-9.2-3.8-9.2-9.5v-4.1c0-.4.3-.7.6-.8l5.7-1.7c.4-.1.6,0,.6.5v6.2c0,1.8.6,2.8,2.2,2.8s2.1-1,2.1-2.8v-13.2c0-1.8-.6-2.9-2.1-2.9-2.3,0-2.3,2.3-2.5,4.8,0,.4-.3.6-.6.5l-5.4-1.6c-.4-.1-.6-.5-.6-.8V1.3c0-.4.3-.6.6-.6h16.2c.4,0,.6.3.6.6v6c0,.4-.3.6-.6.6h-10.2ZM660.6,24.7c0,.3-.2.5-.5.5h-249.4c-.3,0-.5-.2-.5-.5v-4.6c0-.3.2-.5.5-.5h249.4c.3,0,.5.2.5.5v4.6Z" fill="#fff"/>
</svg>