<?xml version="1.0" encoding="UTF-8"?>
<svg id="Layer_1" data-name="Layer 1" xmlns="http://www.w3.org/2000/svg" xmlns:xlink="http://www.w3.org/1999/xlink" viewBox="0 0 900 191">
  <defs>
    <symbol id="Mixtape_Wide_Lockup" data-name="Mixtape Wide Lockup" viewBox="0 0 900 191">
      <g>
        <path d="M39.1,182.9c-.4,0-.6-.2-.6-.6v-40.3c0-.4.2-.6.6-.6h5.2c.4,0,.6.2.6.6v34.2h7.9c.4,0,.6.2.6.6v5.5c0,.4-.2.6-.6.6h-13.7ZM57.1,174.6v-24.9c0-5.4,3.2-8.9,8.6-8.9s8.6,3.5,8.6,8.9v24.9c0,5.4-3.3,8.9-8.6,8.9s-8.6-3.5-8.6-8.9ZM67.8,174.6v-24.9c0-1.6-.7-2.6-2.1-2.6s-2.2,1-2.2,2.6v24.9c0,1.6.7,2.6,2.2,2.6s2.1-1,2.1-2.6ZM96.3,166.5c.4.1.6.4.6.8v7.3c0,5.4-3.3,8.9-8.6,8.9s-8.6-3.5-8.6-8.9v-24.9c0-5.4,3.2-8.9,8.6-8.9s8.6,3.5,8.6,8.9v7.3c0,.4-.2.7-.6.8l-5.2,1.4c-.4.1-.6,0-.6-.4v-9.1c0-1.6-.7-2.6-2.2-2.6s-2.3,1-2.3,2.6v24.9c0,1.6.8,2.6,2.3,2.6s2.2-1,2.2-2.6v-9.1c0-.4.2-.5.6-.4l5.2,1.4ZM118.8,158.1c.5,1.9.7,3.1.7,5.3v18.9c0,.4-.2.6-.6.6h-5.3c-.4,0-.6-.2-.6-.6v-12h-4.3v12c0,.4-.2.6-.6.6h-5.2c-.4,0-.6-.2-.6-.6v-18.9c0-2.2.2-3.4.7-5.3l3.9-16.1c0-.4.4-.6.7-.6h6.7c.4,0,.7.2.7.6l3.9,16.1ZM113,163.9c0-2.1-.2-3.3-.5-5.3l-1.4-7.5-.2-2-.2,2-1.4,7.5c-.4,2-.6,3.2-.6,5.3h4.3ZM126,182.9c-.4,0-.6-.2-.6-.6v-40.3c0-.4.2-.6.6-.6h5.2c.4,0,.6.2.6.6v34.2h7.9c.4,0,.6.2.6.6v5.5c0,.4-.2.6-.6.6h-13.7ZM145.3,190c-.3-.2-.3-.5,0-.8,1.3-1.5,2.7-3.7,2.9-5.4,0-.4-.2-.5-.5-.5-2,0-3.6-1.5-3.6-3.9s1.5-4.1,3.9-4.1,4.6,2,4.6,5.8-3.2,8-5.3,9.7c-.3.2-.6.2-.9,0l-1-.8ZM169.8,182.9c-.4,0-.6-.2-.6-.6v-40.3c0-.4.2-.6.6-.6h5.2c.4,0,.6.2.6.6v34.2h7.9c.4,0,.6.2.6.6v5.5c0,.4-.2.6-.6.6h-13.7ZM189.6,182.9c-.4,0-.6-.2-.6-.6v-40.3c0-.4.2-.6.6-.6h5.2c.4,0,.6.2.6.6v40.3c0,.4-.2.6-.6.6h-5.2ZM214,182.2c-.1.4-.4.7-.8.7h-6.3c-.4,0-.7-.3-.8-.7l-3.9-16c-.5-2-.7-3.1-.7-5.3v-18.9c0-.4.2-.6.6-.6h5.2c.4,0,.6.2.6.6v17.7c0,2.2,0,3.4.5,5.3l1.5,7.4.2,2,.2-2,1.4-7.4c.4-2,.5-3.1.5-5.3v-17.7c0-.4.2-.6.6-.6h5.3c.4,0,.6.2.6.6v18.9c0,2.2-.2,3.4-.7,5.3l-4,16ZM225.2,182.9c-.4,0-.6-.2-.6-.6v-40.3c0-.4.2-.6.6-.6h13.5c.4,0,.6.2.6.6v5.5c0,.4-.2.6-.6.6h-7.7v10.6h5.4c.4,0,.6.2.6.6v5.3c0,.4-.2.6-.6.6h-5.4v11.1h7.7c.4,0,.6.2.6.6v5.5c0,.4-.2.6-.6.6h-13.5ZM268.3,160.8c.2.2.2.6,0,.9l-2.8,3c-2.3,2.4-2.4,2.8-2.4,5.6v4.3c0,1.6.8,2.6,2.3,2.6s2.3-1,2.3-2.6v-5.6c0-.4.2-.8.4-1l3.3-3.4c.2-.2.6-.2.9,0l3.8,3.6c.2.2.2.6,0,.8l-1.7,1.8c-.2.2-.4.7-.4,1v2.8c0,5.4-3.3,8.9-8.7,8.9s-8.7-3.5-8.7-8.9v-5c0-4.1,1.1-5.9,3.4-8.4h.1c-2.4-2.2-3.3-4.1-3.3-8.4v-3c0-5.5,3.1-9.1,8.5-9.1s8.5,3.6,8.5,9.1v4.5c0,.4-.2.7-.6.8l-5.3,1.5c-.4.1-.6,0-.6-.4v-6.5c0-1.7-.7-2.7-2.1-2.7s-2.2,1-2.2,2.6v2c0,4,0,4.3,1.8,5.9l3.4,3.3ZM293.1,182.9c-.4,0-.6-.2-.6-.6v-40.3c0-.4.2-.6.6-.6h5.2c.4,0,.6.2.6.6v34.2h7.9c.4,0,.6.2.6.6v5.5c0,.4-.2.6-.6.6h-13.7ZM311.1,174.6v-24.9c0-5.4,3.2-8.9,8.6-8.9s8.6,3.5,8.6,8.9v24.9c0,5.4-3.3,8.9-8.6,8.9s-8.6-3.5-8.6-8.9ZM321.8,174.6v-24.9c0-1.6-.7-2.6-2.1-2.6s-2.2,1-2.2,2.6v24.9c0,1.6.7,2.6,2.2,2.6s2.1-1,2.1-2.6ZM350.9,141.4c.4,0,.6.2.6.6v32.6c0,5.4-3.3,8.9-8.6,8.9s-8.6-3.5-8.6-8.9v-32.6c0-.4.2-.6.6-.6h5.2c.4,0,.6.2.6.6v32.6c0,1.6.7,2.6,2.2,2.6s2.1-1,2.1-2.6v-32.6c0-.4.2-.6.6-.6h5.3ZM357.4,142c0-.4.2-.6.6-.6h7.3c6.7,0,9.8,3.3,9.8,14.5v12.4c0,11.3-3.1,14.5-9.8,14.5h-7.3c-.4,0-.6-.2-.6-.6v-40.3ZM363.8,176.6h.6c3.7,0,4.1-1.6,4.1-7.7v-13.4c0-6.1-.4-7.7-4.1-7.7h-.6v28.8ZM641.8,163.4c0,.3-.2.5-.5.5h-227.8c-.3,0-.5-.2-.5-.5v-4.2c0-.3.2-.5.5-.5h227.8c.3,0,.5.2.5.5v4.2ZM683.8,150.1h-3.7c-.4,0-.6-.2-.6-.6v-3.4c0-.4.2-.8.5-.9l4.7-3.5c.4-.2.7-.4,1.1-.4h3.9c.4,0,.6.2.6.6v40.1c0,.4-.2.6-.6.6h-5.3c-.4,0-.6-.2-.6-.6v-32ZM695.6,171.9c0-.4.2-.6.6-.8l5-1.5c.4-.1.6,0,.6.5v4.5c0,1.6.6,2.5,2,2.5s1.9-.9,1.9-2.5v-8.9c-.9,1-2.1,1.6-4,1.6-4.1,0-6.4-3.1-6.4-8.4v-9.4c0-5.3,3.1-8.7,8.4-8.7s8.4,3.4,8.4,8.7v25.1c0,5.3-3.2,8.7-8.4,8.7s-8.1-3.4-8.1-8.7v-2.7ZM705.7,158.4v-9c0-1.6-.5-2.5-1.9-2.5s-2,.9-2,2.5v9.4c0,1.6.6,2.6,2,2.6s1.9-.9,1.9-3.1ZM723.4,148v7.8c1-1,2.3-1.7,4.2-1.7,4.3,0,6.5,3.1,6.5,8.4v12c0,5.3-3.2,8.7-8.4,8.7s-8.4-3.4-8.4-8.7v-3.7c0-.4.2-.6.6-.8l5.2-1.5c.4-.1.6,0,.6.4v5.6c0,1.6.6,2.5,2,2.5s1.9-.9,1.9-2.5v-12c0-1.7-.6-2.6-1.9-2.6-2.1,0-2.1,2.1-2.3,4.4,0,.4-.2.5-.6.4l-4.9-1.4c-.4-.1-.6-.4-.6-.8v-20.6c0-.4.2-.6.6-.6h14.8c.4,0,.6.2.6.6v5.4c0,.4-.2.6-.6.6h-9.3ZM745.3,148v7.8c1-1,2.3-1.7,4.2-1.7,4.3,0,6.5,3.1,6.5,8.4v12c0,5.3-3.2,8.7-8.4,8.7s-8.4-3.4-8.4-8.7v-3.7c0-.4.2-.6.6-.8l5.2-1.5c.4-.1.6,0,.6.4v5.6c0,1.6.6,2.5,2,2.5s1.9-.9,1.9-2.5v-12c0-1.7-.6-2.6-1.9-2.6-2.1,0-2.1,2.1-2.3,4.4,0,.4-.2.5-.6.4l-4.9-1.4c-.4-.1-.6-.4-.6-.8v-20.6c0-.4.2-.6.6-.6h14.8c.4,0,.6.2.6.6v5.4c0,.4-.2.6-.6.6h-9.3ZM773.3,164.2c0,.4-.2.6-.6.6h-11c-.4,0-.6-.2-.6-.6v-5c0-.4.2-.6.6-.6h11c.4,0,.6.2.6.6v5ZM778.1,149.4c0-5.3,3.1-8.7,8.2-8.7s8.4,3.4,8.4,8.7v5.4c0,5.3-.7,6.3-4.4,12.8l-4.6,8.4h8.4c.4,0,.6.2.6.6v5.4c0,.4-.2.6-.6.6h-15.6c-.4,0-.6-.2-.6-.6v-4.1c0-.4.1-.8.3-1.1l7.3-13.5c2.4-4.4,2.7-5.5,2.7-9.3v-4.7c0-1.6-.6-2.5-1.9-2.5s-2,.9-2,2.5v8.2c0,.4-.2.5-.6.4l-5-1.4c-.4-.1-.6-.4-.6-.8v-6.4ZM799.9,174.6v-25.2c0-5.3,3.1-8.7,8.4-8.7s8.4,3.4,8.4,8.7v25.2c0,5.3-3.2,8.6-8.4,8.6s-8.4-3.4-8.4-8.6ZM806.2,164.4l4-14.1v-.8c0-1.5-.6-2.5-1.9-2.5s-2,1-2,2.5v14.9ZM810.2,174.6v-14.9l-4,14.1v.8c0,1.5.6,2.5,2,2.5s1.9-1,1.9-2.5ZM821.8,174.6v-25.2c0-5.3,3.1-8.7,8.4-8.7s8.4,3.4,8.4,8.7v25.2c0,5.3-3.2,8.6-8.4,8.6s-8.4-3.4-8.4-8.6ZM828.2,164.4l4-14.1v-.8c0-1.5-.6-2.5-1.9-2.5s-2,1-2,2.5v14.9ZM832.1,174.6v-14.9l-4,14.1v.8c0,1.5.6,2.5,2,2.5s1.9-1,1.9-2.5ZM849.8,148v7.8c1-1,2.3-1.7,4.2-1.7,4.3,0,6.5,3.1,6.5,8.4v12c0,5.3-3.2,8.7-8.4,8.7s-8.4-3.4-8.4-8.7v-3.7c0-.4.2-.6.6-.8l5.2-1.5c.4-.1.6,0,.6.4v5.6c0,1.6.6,2.5,2,2.5s1.9-.9,1.9-2.5v-12c0-1.7-.6-2.6-1.9-2.6-2.1,0-2.1,2.1-2.3,4.4,0,.4-.2.5-.6.4l-4.9-1.4c-.4-.1-.6-.4-.6-.8v-20.6c0-.4.2-.6.6-.6h14.8c.4,0,.6.2.6.6v5.4c0,.4-.2.6-.6.6h-9.3Z"/>
        <path d="M523.3,1.7c-.2-1-1-1.7-2-1.7h-18.9c-1,0-1.7.7-1.7,1.7v113.6c0,1,.7,1.7,1.7,1.7h13.5c1,0,1.7-.7,1.7-1.7V37.4l11.7,58.3c.2,1,1,1.7,2,1.7h6.8c1,0,1.8-.7,2-1.7l11.7-58.3v77.8c0,1,.7,1.7,1.7,1.7h13.5c1.2,0,1.8-.7,1.8-1.7V1.7c0-1-.7-1.7-1.8-1.7h-18.5c-1,0-1.8.7-2,1.7l-11.7,59-11.5-59ZM600.5,116.9c1,0,1.7-.7,1.7-1.7V1.7c0-1-.7-1.7-1.7-1.7h-14.7c-1,0-1.7.7-1.7,1.7v113.6c0,1,.7,1.7,1.7,1.7h14.7ZM647.8,14.4c0,6,0,9.7-1.3,13.2l-4,11-.7,3.7-.7-3.7-4-11c-1.5-3.5-1.5-7.2-1.5-13.2V1.7c0-1-.7-1.7-1.7-1.7h-14.7c-1,0-1.7.7-1.7,1.7v11.7c0,6-.5,12.9,2.3,18.7l12.4,26.4-12.4,26.2c-2.8,5.8-2.3,12.7-2.3,18.7v11.9c0,1,.7,1.7,1.7,1.7h14.7c1,0,1.7-.7,1.7-1.7v-12.9c0-6,0-9.7,1.5-13.2l4-11,.7-3.7.7,3.7,4,11c1.3,3.5,1.3,7.2,1.3,13.2v12.9c0,1,.7,1.7,1.7,1.7h14.9c1,0,1.7-.7,1.7-1.7v-11.9c0-6,.5-12.9-2.3-18.7l-12.5-26.2,12.5-26.4c2.8-5.8,2.3-12.7,2.3-18.7V1.7c0-1-.7-1.7-1.7-1.7h-14.9c-1,0-1.7.7-1.7,1.7v12.7ZM693.2,115.3c0,1,.7,1.7,1.7,1.7h14.9c1,0,1.7-.7,1.7-1.7V18.7h15.5c1,0,1.7-.7,1.7-1.7V1.7c0-1-.7-1.7-1.7-1.7h-49.1c-1,0-1.7.7-1.7,1.7v15.4c0,1,.7,1.7,1.7,1.7h15.4v96.5ZM769.4,1.7c-.2-1-1-1.7-2-1.7h-18.9c-1,0-1.8.7-2,1.7l-10.9,45.3c-1.3,5.5-1.8,8.9-1.8,15v53.3c0,1,.7,1.7,1.7,1.7h14.7c1,0,1.7-.7,1.7-1.7v-33.9h12.2v33.9c0,1,.7,1.7,1.7,1.7h14.9c1,0,1.7-.7,1.7-1.7v-53.3c0-6.2-.5-9.7-1.8-15l-11-45.3ZM751.8,63.5c0-5.8.5-9.4,1.7-14.9l4-21,.5-5.7.5,5.7,4,21c1,5.5,1.5,9,1.5,14.9h-12.2ZM815.5,74.2h4c21.5,0,27.2-14.4,27.2-36.9s-5.7-37.2-27.2-37.2h-20.4c-1,0-1.7.7-1.7,1.7v113.6c0,1,.7,1.7,1.7,1.7h14.7c1,0,1.7-.7,1.7-1.7v-41.1ZM815.5,18.2h.8c10.7,0,11.9,5,11.9,19s-1.2,18.7-11.9,18.7h-.8V18.2ZM898.3,116.9c1,0,1.7-.7,1.7-1.7v-15.4c0-1-.7-1.7-1.7-1.7h-21.7v-31.4h15.2c1,0,1.7-.7,1.7-1.7v-14.9c0-1-.7-1.7-1.7-1.7h-15.2v-29.9h21.7c1,0,1.7-.7,1.7-1.7V1.7c0-1-.7-1.7-1.7-1.7h-38.1c-1,0-1.7.7-1.7,1.7v113.6c0,1,.7,1.7,1.7,1.7h38.1Z"/>
        <path d="M451.3,116.9H18.4c-10.8,0-18.4-7.5-18.4-18.4V18.4C0,7.6,7.6,0,18.4,0h432.9C462.1,0,469.6,7.6,469.6,18.4v80.2c0,10.8-7.6,18.4-18.4,18.4ZM18.4,10.7c-4.9,0-7.7,2.8-7.7,7.7v80.2c0,4.9,2.8,7.6,7.7,7.6h432.9c4.9,0,7.7-2.8,7.7-7.6V18.4c0-4.9-2.8-7.7-7.7-7.7H18.4ZM62.8,56.1c4.1-2.1,5.5-6.2,5.5-13.3s-3.4-16-15.5-16h-9.9c-.5,0-.9.4-.9.9v60.9c0,.5.4.9.9.9h11.5c11.5,0,14.6-7.4,14.6-17.6s-1.7-13.2-6.3-15.7ZM51.7,36.3h.5c5.8,0,6.4,2.5,6.4,7.7s-.6,8.1-6.4,8.1h-.5v-15.8ZM53,79.8h-1.3v-18.4h1.3c5.7,0,6.3,3,6.3,9.1s-.6,9.3-6.3,9.3ZM116.1,25.8c-8.1,0-13,5.3-13,13.4v37.6c0,8.1,4.8,13.4,13,13.4s13-5.3,13-13.4v-37.6c0-8.1-4.9-13.4-13-13.4ZM119.3,76.8c0,2.4-1,3.9-3.2,3.9s-3.3-1.5-3.3-3.9v-37.6c0-2.4,1.1-3.9,3.3-3.9s3.2,1.5,3.2,3.9v37.6ZM189.2,26.7h-8c-.5,0-.9.4-.9.9v49.2c0,2.4-1,3.9-3.2,3.9s-3.3-1.5-3.3-3.9V27.6c0-.5-.4-.9-.9-.9h-7.9c-.5,0-.9.4-.9.9v49.2c0,8.1,4.8,13.4,13,13.4s13-5.3,13-13.4V27.6c0-.5-.4-.9-.9-.9ZM246.7,79.3h-12V27.6c0-.5-.4-.9-.9-.9h-7.9c-.5,0-.9.4-.9.9v60.9c0,.5.4.9.9.9h20.8c.5,0,.9-.4.9-.9v-8.2c0-.5-.4-.9-.9-.9ZM292.9,26.7h-11.1c-.5,0-.9.4-.9.9v60.9c0,.5.4.9.9.9h11.1c10.1,0,14.8-4.9,14.8-21.9v-18.8c0-16.9-4.7-21.9-14.8-21.9ZM297.7,68.1c0,9.2-.6,11.6-6.3,11.6h-.9v-43.5h.9c5.6,0,6.3,2.4,6.3,11.6v20.2ZM363.9,26.7h-20.4c-.5,0-.9.4-.9.9v60.9c0,.5.4.9.9.9h20.4c.5,0,.9-.4.9-.9v-8.2c0-.5-.4-.9-.9-.9h-11.6v-16.8h8.1c.5,0,.9-.4.9-.9v-8c0-.5-.4-.9-.9-.9h-8.1v-16h11.6c.5,0,.9-.4.9-.9v-8.2c0-.5-.4-.9-.9-.9ZM427,88.5l-6.3-26.1c3.7-3.2,4.8-9,4.8-16.2,0-11.9-3-19.5-14.6-19.5h-11.1c-.5,0-.9.4-.9.9v60.9c0,.5.4.9.9.9h7.9c.5,0,.9-.4.9-.9v-22.9h3.1l4.9,23c0,.5.5.8,1.1.8h8.5c.5,0,.8-.3.7-.8ZM409.4,55.8h-.7v-19.3h.7c5.6,0,6.3,2.6,6.3,9.8s-.6,9.6-6.3,9.6Z"/>
      </g>
    </symbol>
  </defs>
  <use width="900" height="191" transform="translate(.5)" xlink:href="#Mixtape_Wide_Lockup"/>
</svg>