<?xml version="1.0" encoding="UTF-8"?>
<svg id="Layer_1" data-name="Layer 1" xmlns="http://www.w3.org/2000/svg" viewBox="0 0 897.9 126.2">
  <path d="M767.2,0H0v126.2h130.7s766.9,0,766.9,0h.3s0,0,0,0V0h-130.7ZM890.3,120.6h-436.6c-1.1,0-2-.9-2-1.9V7.6c0-1.1.9-2,2-2h436.5c1.1,0,2,.9,2,2v111c0,1.1-.9,2-2,2ZM7.6,5.6h436.6c1.1,0,2,.9,2,1.9v111c0,1.1-.9,2-2,2H7.6c-1.1,0-2-.9-2-2V7.6c0-1.1.9-2,2-2Z" fill="#fff"/>
  <g>
    <path d="M33.9,48.4c0-6.2,3.6-10.2,9.6-10.2s9.8,4,9.8,10.2v6.3c0,6.2-.8,7.3-5.1,15l-5.4,9.9h9.8c.4,0,.7.3.7.7v6.4c0,.4-.3.7-.7.7h-18.3c-.4,0-.7-.3-.7-.7v-4.8c0-.4.1-1,.3-1.3l8.6-15.8c2.8-5.2,3.2-6.4,3.2-10.9v-5.5c0-1.9-.7-3-2.3-3s-2.4,1.1-2.4,3v9.6c0,.4-.3.6-.7.5l-5.9-1.7c-.4-.1-.7-.5-.7-.9v-7.6Z" fill="#fff"/>
    <path d="M64.1,48.4c0-6.2,3.6-10.2,9.6-10.2s9.8,4,9.8,10.2v6.3c0,6.2-.8,7.3-5.1,15l-5.4,9.9h9.8c.4,0,.7.3.7.7v6.4c0,.4-.3.7-.7.7h-18.3c-.4,0-.7-.3-.7-.7v-4.8c0-.4.1-1,.3-1.3l8.6-15.8c2.8-5.2,3.2-6.4,3.2-10.9v-5.5c0-1.9-.7-3-2.3-3s-2.4,1.1-2.4,3v9.6c0,.4-.3.6-.7.5l-5.9-1.7c-.4-.1-.7-.5-.7-.9v-7.6Z" fill="#fff"/>
    <path d="M94,78v-29.6c0-6.2,3.7-10.2,9.8-10.2s9.8,4,9.8,10.2v29.6c0,6.2-3.7,10.1-9.8,10.1s-9.8-3.9-9.8-10.1ZM101.5,66l4.6-16.6v-1c0-1.8-.7-3-2.3-3s-2.4,1.2-2.4,3v17.5ZM106.1,78v-17.5l-4.6,16.6v1c0,1.8.8,3,2.4,3s2.3-1.2,2.3-3Z" fill="#fff"/>
    <path d="M131.3,46.7v9.2c1.2-1.2,2.7-1.9,4.9-1.9,5.1,0,7.6,3.6,7.6,9.8v14.1c0,6.2-3.7,10.2-9.8,10.2s-9.8-4-9.8-10.2v-4.4c0-.4.3-.8.7-.9l6.1-1.8c.4-.1.7,0,.7.5v6.6c0,1.9.7,3,2.4,3s2.3-1.1,2.3-3v-14.1c0-1.9-.7-3-2.3-3-2.4,0-2.4,2.5-2.7,5.1,0,.4-.3.6-.7.5l-5.8-1.7c-.4-.1-.7-.5-.7-.9v-24.2c0-.4.3-.7.7-.7h17.3c.4,0,.7.3.7.7v6.4c0,.4-.3.7-.7.7h-10.9Z" fill="#fff"/>
    <path d="M171.6,39.6c0-.4.3-.7.7-.7h7.7c9.4,0,12,4.8,12,12.4s-1.1,8.7-4.3,10.3c3.5,1.9,4.9,5.8,4.9,12.1s-2.4,13.6-11.3,13.6h-8.9c-.4,0-.7-.3-.7-.7v-47.1ZM179.1,58.6h.4c4.4,0,4.9-1.8,4.9-6.2s-.4-6-4.9-6h-.4v12.2ZM180.1,80c4.4,0,4.8-2.1,4.8-7.2s-.4-7.1-4.8-7.1h-1v14.3h1Z" fill="#fff"/>
    <path d="M224.7,86.8c0,.4-.1.6-.6.6h-6.6c-.4,0-.8-.2-.8-.6l-3.8-17.8h-2.4v17.7c0,.4-.3.7-.7.7h-6.1c-.4,0-.7-.3-.7-.7v-47.1c0-.4.3-.7.7-.7h8.6c8.9,0,11.3,5.9,11.3,15.1s-.9,10-3.7,12.5l4.9,20.2ZM210.5,61.5h.6c4.4,0,4.8-2,4.8-7.4s-.5-7.6-4.8-7.6h-.6v15Z" fill="#fff"/>
    <path d="M234.5,77.7v-29.1c0-6.3,3.7-10.4,10-10.4s10,4.1,10,10.4v29.1c0,6.3-3.8,10.4-10,10.4s-10-4.1-10-10.4ZM247,77.7v-29.1c0-1.9-.8-3-2.5-3s-2.6,1.2-2.6,3v29.1c0,1.9.8,3,2.6,3s2.5-1.2,2.5-3Z" fill="#fff"/>
    <path d="M283.7,58.4c.6,2.2.8,3.7.8,6.2v22.1c0,.4-.3.7-.7.7h-6.2c-.4,0-.7-.3-.7-.7v-14.1h-5.1v14.1c0,.4-.3.7-.7.7h-6.1c-.4,0-.7-.3-.7-.7v-22.1c0-2.6.2-3.9.8-6.2l4.5-18.8c0-.4.4-.7.8-.7h7.8c.4,0,.8.3.8.7l4.6,18.8ZM276.9,65.3c0-2.4-.2-3.9-.6-6.2l-1.7-8.7-.2-2.4-.2,2.4-1.7,8.7c-.5,2.3-.7,3.7-.7,6.2h5.1Z" fill="#fff"/>
    <path d="M294.9,39.6c0-.4.3-.7.7-.7h8.6c7.8,0,11.4,3.9,11.4,17v14.5c0,13.2-3.6,17-11.4,17h-8.6c-.4,0-.7-.3-.7-.7v-47.1ZM302.4,80h.7c4.4,0,4.8-1.9,4.8-9v-15.7c0-7.1-.5-9-4.8-9h-.7v33.7Z" fill="#fff"/>
    <path d="M338.3,86.8c0,.4-.3.7-.8.7h-7.4c-.4,0-.7-.3-.8-.7l-4.7-47.1c0-.4.2-.7.6-.7h6.2c.4,0,.8.3.8.7l2.6,32.5.2-3,3.1-29.4c0-.4.3-.7.8-.7h5.1c.4,0,.7.3.8.7l3.1,29.4.2,3,2.6-32.5c0-.4.3-.7.8-.7h6.2c.4,0,.7.3.6.7l-4.7,47.1c0,.4-.3.7-.8.7h-7.4c-.4,0-.7-.3-.8-.7l-3-27.2v-2.8c-.1,0-.3,2.8-.3,2.8l-3,27.2Z" fill="#fff"/>
    <path d="M386.8,58.4c.6,2.2.8,3.7.8,6.2v22.1c0,.4-.3.7-.7.7h-6.2c-.4,0-.7-.3-.7-.7v-14.1h-5.1v14.1c0,.4-.3.7-.7.7h-6.1c-.4,0-.7-.3-.7-.7v-22.1c0-2.6.2-3.9.8-6.2l4.5-18.8c0-.4.4-.7.8-.7h7.8c.4,0,.8.3.8.7l4.6,18.8ZM380.1,65.3c0-2.4-.2-3.9-.6-6.2l-1.7-8.7-.2-2.4-.2,2.4-1.7,8.7c-.5,2.3-.7,3.7-.7,6.2h5.1Z" fill="#fff"/>
    <path d="M403.6,87.4c-.4,0-.7-.3-.7-.7v-11.3l-5.3-12.5c-1-2.6-1-5.3-1-7.8v-15.4c0-.4.3-.7.7-.7h6.1c.4,0,.7.3.7.7v15.9c0,2.5,0,4,.6,5.5l1.7,4.6.3,1.5.3-1.5,1.7-4.6c.6-1.5.6-3,.6-5.5v-15.9c0-.4.3-.7.7-.7h6.2c.4,0,.7.3.7.7v15.4c0,2.5,0,5.3-1,7.8l-5.3,12.5v11.3c0,.4-.3.7-.7.7h-6.2Z" fill="#fff"/>
  </g>
  <g>
    <path d="M502.9,39.6c0-.4.3-.7.7-.7h7.7c9.4,0,12,4.8,12,12.4s-1.1,8.7-4.3,10.3c3.5,1.9,4.9,5.8,4.9,12.1s-2.4,13.6-11.3,13.6h-8.9c-.4,0-.7-.3-.7-.7v-47.1ZM510.3,58.6h.4c4.4,0,4.9-1.8,4.9-6.2s-.4-6-4.9-6h-.4v12.2ZM511.4,80c4.4,0,4.8-2.1,4.8-7.2s-.4-7.1-4.8-7.1h-1v14.3h1Z" fill="#fff"/>
    <path d="M533.5,77.7v-29.1c0-6.3,3.7-10.4,10-10.4s10,4.1,10,10.4v29.1c0,6.3-3.8,10.4-10,10.4s-10-4.1-10-10.4ZM546.1,77.7v-29.1c0-1.9-.8-3-2.5-3s-2.6,1.2-2.6,3v29.1c0,1.9.8,3,2.6,3s2.5-1.2,2.5-3Z" fill="#fff"/>
    <path d="M583.5,39c.4,0,.7.3.7.7v38.1c0,6.3-3.8,10.4-10,10.4s-10-4.1-10-10.4v-38.1c0-.4.3-.7.7-.7h6.1c.4,0,.7.3.7.7v38.1c0,1.9.8,3,2.6,3s2.5-1.2,2.5-3v-38.1c0-.4.3-.7.7-.7h6.2Z" fill="#fff"/>
    <path d="M595.3,87.4c-.4,0-.7-.3-.7-.7v-47.1c0-.4.3-.7.7-.7h6.1c.4,0,.7.3.7.7v40h9.3c.4,0,.7.3.7.7v6.4c0,.4-.3.7-.7.7h-16.1Z" fill="#fff"/>
    <path d="M621.3,39.6c0-.4.3-.7.7-.7h8.6c7.8,0,11.4,3.9,11.4,17v14.5c0,13.2-3.6,17-11.4,17h-8.6c-.4,0-.7-.3-.7-.7v-47.1ZM628.7,80h.7c4.4,0,4.8-1.9,4.8-9v-15.7c0-7.1-.5-9-4.8-9h-.7v33.7Z" fill="#fff"/>
    <path d="M653.1,87.4c-.4,0-.7-.3-.7-.7v-47.1c0-.4.3-.7.7-.7h15.8c.4,0,.7.3.7.7v6.4c0,.4-.3.7-.7.7h-9v12.4h6.3c.4,0,.7.3.7.7v6.2c0,.4-.3.7-.7.7h-6.3v13h9c.4,0,.7.3.7.7v6.4c0,.4-.3.7-.7.7h-15.8Z" fill="#fff"/>
    <path d="M701.1,86.8c0,.4-.1.6-.6.6h-6.6c-.4,0-.8-.2-.8-.6l-3.8-17.8h-2.4v17.7c0,.4-.3.7-.7.7h-6.1c-.4,0-.7-.3-.7-.7v-47.1c0-.4.3-.7.7-.7h8.6c8.9,0,11.3,5.9,11.3,15.1s-.9,10-3.7,12.5l4.9,20.2ZM686.9,61.5h.6c4.4,0,4.8-2,4.8-7.4s-.5-7.6-4.8-7.6h-.6v15Z" fill="#fff"/>
    <path d="M747.7,68.3c.4.1.7.5.7.9v8.6c0,6.3-3.8,10.4-10,10.4s-10-4.1-10-10.4v-29.1c0-6.3,3.7-10.4,10-10.4s10,4.1,10,10.4v8.6c0,.4-.3.8-.7.9l-6,1.7c-.4.1-.7,0-.7-.5v-10.7c0-1.9-.8-3-2.6-3s-2.6,1.2-2.6,3v29.1c0,1.9.9,3,2.6,3s2.6-1.2,2.6-3v-10.7c0-.4.3-.6.7-.5l6,1.7Z" fill="#fff"/>
    <path d="M758.9,77.7v-29.1c0-6.3,3.7-10.4,10-10.4s10,4.1,10,10.4v29.1c0,6.3-3.8,10.4-10,10.4s-10-4.1-10-10.4ZM771.4,77.7v-29.1c0-1.9-.8-3-2.5-3s-2.6,1.2-2.6,3v29.1c0,1.9.8,3,2.6,3s2.5-1.2,2.5-3Z" fill="#fff"/>
    <path d="M790.1,87.4c-.4,0-.7-.3-.7-.7v-47.1c0-.4.3-.7.7-.7h6.1c.4,0,.7.3.7.7v40h9.3c.4,0,.7.3.7.7v6.4c0,.4-.3.7-.7.7h-16.1Z" fill="#fff"/>
    <path d="M814.6,77.7v-29.1c0-6.3,3.7-10.4,10-10.4s10,4.1,10,10.4v29.1c0,6.3-3.8,10.4-10,10.4s-10-4.1-10-10.4ZM827.2,77.7v-29.1c0-1.9-.8-3-2.5-3s-2.6,1.2-2.6,3v29.1c0,1.9.8,3,2.6,3s2.5-1.2,2.5-3Z" fill="#fff"/>
    <path d="M848.4,78.4c2.6,0,4.8,2.1,4.8,4.9s-2.1,4.8-4.8,4.8-4.6-2.1-4.6-4.8,2-4.9,4.6-4.9Z" fill="#fff"/>
  </g>
</svg>