<?xml version="1.0" encoding="UTF-8"?>
<svg id="Layer_1" data-name="Layer 1" xmlns="http://www.w3.org/2000/svg" viewBox="0 0 900 613.5">
  <path d="M153.6,255.6v256.1c0,2.3-1.5,3.8-4.1,3.8h-30.5c-2.3,0-3.8-1.5-3.8-3.8v-175.5l-26.4,131.4c-.4,2.3-2.3,3.8-4.5,3.8h-15.4c-2.3,0-4.1-1.5-4.5-3.8l-26.4-131.4v175.5c0,2.3-1.5,3.8-3.8,3.8H3.8c-2.3,0-3.8-1.5-3.8-3.8V255.6c0-2.3,1.5-3.8,3.8-3.8h42.6c2.3,0,4.1,1.5,4.5,3.8l26,132.9,26.4-132.9c.4-2.3,2.3-3.8,4.5-3.8h41.8c2.6,0,4.1,1.5,4.1,3.8ZM224.8,251.9h-33.1c-2.3,0-3.8,1.5-3.8,3.8v256.1c0,2.3,1.5,3.8,3.8,3.8h33.1c2.3,0,3.8-1.5,3.8-3.8V255.6c0-2.3-1.5-3.8-3.8-3.8ZM372.4,282v-26.4c0-2.3-1.5-3.8-3.8-3.8h-33.5c-2.3,0-3.8,1.5-3.8,3.8v28.6c0,13.6,0,21.8-3,29.7l-9,24.9-1.5,8.3-1.5-8.3-9-24.9c-3.4-7.9-3.4-16.2-3.4-29.7v-28.6c0-2.3-1.5-3.8-3.8-3.8h-33.1c-2.3,0-3.8,1.5-3.8,3.8v26.4c0,13.6-1.1,29,5.3,42.2l27.9,59.5-27.9,59.1c-6.4,13.2-5.3,28.6-5.3,42.2v26.7c0,2.3,1.5,3.8,3.8,3.8h33.1c2.3,0,3.8-1.5,3.8-3.8v-29c0-13.6,0-21.8,3.4-29.7l9-24.9,1.5-8.3,1.5,8.3,9,24.9c3,7.9,3,16.2,3,29.7v29c0,2.3,1.5,3.8,3.8,3.8h33.5c2.3,0,3.8-1.5,3.8-3.8v-26.7c0-13.6,1.1-29-5.3-42.2l-28.2-59.1,28.2-59.5c6.4-13.2,5.3-28.6,5.3-42.2ZM509.9,251.9h-110.7c-2.3,0-3.8,1.5-3.8,3.8v34.6c0,2.3,1.5,3.8,3.8,3.8h34.6v217.7c0,2.3,1.5,3.8,3.8,3.8h33.5c2.3,0,3.8-1.5,3.8-3.8v-217.7h35c2.3,0,3.8-1.5,3.8-3.8v-34.6c0-2.3-1.5-3.8-3.8-3.8ZM630.4,357.7c3,12,4.1,20,4.1,33.9v120.1c0,2.3-1.5,3.8-3.8,3.8h-33.5c-2.3,0-3.8-1.5-3.8-3.8v-76.4h-27.5v76.4c0,2.3-1.5,3.8-3.8,3.8h-33.1c-2.3,0-3.8-1.5-3.8-3.8v-120.1c0-13.9,1.1-21.5,4.1-33.9l24.5-102c.4-2.3,2.3-3.8,4.5-3.8h42.6c2.3,0,4.1,1.5,4.5,3.8l24.9,102ZM593.5,395c0-13.2-1.1-21.1-3.4-33.5l-9-47.4-1.1-12.8-1.1,12.8-9,47.4c-2.6,12.4-3.8,20.3-3.8,33.5h27.5ZM779.9,335.8c0,50.8-12.8,83.2-61.4,83.2h-9v92.6c0,2.3-1.5,3.8-3.8,3.8h-33.1c-2.3,0-3.8-1.5-3.8-3.8V255.6c0-2.3,1.5-3.8,3.8-3.8h45.9c48.6,0,61.4,32.8,61.4,84ZM738.1,335.8c0-31.6-2.6-42.9-26.7-42.9h-1.9v85.1h1.9c24.1,0,26.7-11.3,26.7-42.2ZM896.2,294c2.3,0,3.8-1.5,3.8-3.8v-34.6c0-2.3-1.5-3.8-3.8-3.8h-85.9c-2.3,0-3.8,1.5-3.8,3.8v256.1c0,2.3,1.5,3.8,3.8,3.8h85.9c2.3,0,3.8-1.5,3.8-3.8v-34.6c0-2.3-1.5-3.8-3.8-3.8h-49v-70.8h34.3c2.3,0,3.8-1.5,3.8-3.8v-33.5c0-2.3-1.5-3.8-3.8-3.8h-34.3v-67.4h49Z" fill="#fff"/>
  <path d="M864.8,224.1H35.2c-20.7,0-35.2-14.5-35.2-35.2V35.2C0,14.5,14.5,0,35.2,0h829.6c20.7,0,35.2,14.5,35.2,35.2v153.7c0,20.7-14.5,35.2-35.2,35.2ZM35.2,20.5c-9.3,0-14.7,5.3-14.7,14.7v153.7c0,9.3,5.3,14.6,14.7,14.6h829.6c9.3,0,14.7-5.3,14.7-14.6V35.2c0-9.3-5.3-14.7-14.7-14.7H35.2ZM120.3,107.4c7.9-3.9,10.6-11.8,10.6-25.6s-6.5-30.7-29.7-30.7h-19c-1,0-1.7.7-1.7,1.7v116.6c0,1,.7,1.7,1.7,1.7h22.1c22.1,0,28-14.2,28-33.8s-3.3-25.4-12-30ZM99,69.5h1c11.2,0,12.2,4.8,12.2,14.8s-1.2,15.4-12.2,15.4h-1v-30.2ZM101.6,152.9h-2.6v-35.3h2.6c11,0,12,5.7,12,17.5s-1.2,17.8-12,17.8ZM222.5,49.5c-15.6,0-24.9,10.1-24.9,25.7v72c0,15.6,9.3,25.7,24.9,25.7s24.9-10.1,24.9-25.7v-72c0-15.6-9.4-25.7-24.9-25.7ZM228.7,147.2c0,4.6-1.9,7.5-6.2,7.5s-6.3-2.9-6.3-7.5v-72c0-4.6,2.1-7.5,6.3-7.5s6.2,2.9,6.2,7.5v72ZM362.5,51.2h-15.3c-1,0-1.7.7-1.7,1.7v94.3c0,4.6-1.9,7.5-6.2,7.5s-6.3-2.9-6.3-7.5V52.9c0-1-.7-1.7-1.7-1.7h-15.1c-1,0-1.7.7-1.7,1.7v94.3c0,15.6,9.3,25.7,24.9,25.7s24.9-10.1,24.9-25.7V52.9c0-1-.7-1.7-1.7-1.7ZM472.8,152h-23V52.9c0-1-.7-1.7-1.7-1.7h-15.1c-1,0-1.7.7-1.7,1.7v116.6c0,1,.7,1.7,1.7,1.7h39.8c1,0,1.7-.7,1.7-1.7v-15.8c0-1-.7-1.7-1.7-1.7ZM561.3,51.2h-21.3c-1,0-1.7.7-1.7,1.7v116.6c0,1,.7,1.7,1.7,1.7h21.3c19.4,0,28.3-9.4,28.3-42v-36c0-32.4-8.9-42-28.3-42ZM570.5,130.6c0,17.7-1.2,22.3-12,22.3h-1.7v-83.4h1.7c10.8,0,12,4.6,12,22.3v38.8ZM697.5,51.2h-39.1c-1,0-1.7.7-1.7,1.7v116.6c0,1,.7,1.7,1.7,1.7h39.1c1,0,1.7-.7,1.7-1.7v-15.8c0-1-.7-1.7-1.7-1.7h-22.3v-32.2h15.6c1,0,1.7-.7,1.7-1.7v-15.3c0-1-.7-1.7-1.7-1.7h-15.6v-30.7h22.3c1,0,1.7-.7,1.7-1.7v-15.8c0-1-.7-1.7-1.7-1.7ZM818.4,169.7l-12-50.1c7-6.2,9.3-17.2,9.3-31,0-22.8-5.8-37.4-28-37.4h-21.3c-1,0-1.7.7-1.7,1.7v116.6c0,1,.7,1.7,1.7,1.7h15.1c1,0,1.7-.7,1.7-1.7v-43.9h6l9.4,44.1c.2,1,1,1.5,2.1,1.5h16.3c1,0,1.5-.5,1.4-1.5ZM784.6,106.9h-1.4v-37h1.4c10.8,0,12,5,12,18.7s-1.2,18.4-12,18.4Z" fill="#fff"/>
  <path d="M15.7,604.7c.4,0,.6-.3.6-.6v-6c0-.4-.3-.6-.6-.6H7v-37.5c0-.4-.3-.6-.6-.6H.6c-.4,0-.6.3-.6.6v44.1c0,.4.3.6.6.6h15.1ZM29.8,605.3c5.8,0,9.4-3.8,9.4-9.7v-27.2c0-5.9-3.6-9.7-9.4-9.7s-9.4,3.8-9.4,9.7v27.2c0,5.9,3.5,9.7,9.4,9.7ZM29.8,598.4c-1.6,0-2.4-1.1-2.4-2.9v-27.2c0-1.8.8-2.9,2.4-2.9s2.3,1.1,2.3,2.9v27.2c0,1.8-.7,2.9-2.3,2.9ZM57.6,585.1c-.4-.1-.6,0-.6.5v10c0,1.8-.7,2.9-2.4,2.9s-2.5-1.1-2.5-2.9v-27.2c0-1.8.8-2.9,2.5-2.9s2.4,1.1,2.4,2.9v10c0,.4.3.6.6.5l5.6-1.6c.4-.1.6-.5.6-.8v-8c0-5.9-3.6-9.7-9.4-9.7s-9.4,3.8-9.4,9.7v27.2c0,5.9,3.5,9.7,9.4,9.7s9.4-3.8,9.4-9.7v-8c0-.4-.3-.7-.6-.8l-5.6-1.6ZM83.6,559.9c0-.4-.4-.6-.8-.6h-7.3c-.4,0-.7.3-.8.6l-4.2,17.6c-.5,2.1-.7,3.4-.7,5.8v20.7c0,.4.3.6.6.6h5.7c.4,0,.6-.3.6-.6v-13.2h4.7v13.2c0,.4.3.6.6.6h5.8c.4,0,.6-.3.6-.6v-20.7c0-2.4-.2-3.8-.7-5.8l-4.3-17.6ZM76.8,583.9c0-2.3.2-3.6.6-5.8l1.6-8.2.2-2.2.2,2.2,1.6,8.2c.4,2.1.6,3.5.6,5.8h-4.7ZM110.9,604.7c.4,0,.6-.3.6-.6v-6c0-.4-.3-.6-.6-.6h-8.7v-37.5c0-.4-.3-.6-.6-.6h-5.7c-.4,0-.6.3-.6.6v44.1c0,.4.3.6.6.6h15.1ZM118.1,613.3c.3.3.6.3,1,0,2.3-1.9,5.8-5.7,5.8-10.6s-2.3-6.4-5.1-6.4-4.3,2.1-4.3,4.5,1.8,4.2,4,4.2.6.2.6.6c-.3,1.8-1.8,4.2-3.2,5.9-.3.3-.3.6,0,.9l1.1.8ZM158.8,604.7c.4,0,.6-.3.6-.6v-6c0-.4-.3-.6-.6-.6h-8.7v-37.5c0-.4-.3-.6-.6-.6h-5.7c-.4,0-.6.3-.6.6v44.1c0,.4.3.6.6.6h15.1ZM171.1,604.7c.4,0,.6-.3.6-.6v-44.1c0-.4-.3-.6-.6-.6h-5.7c-.4,0-.6.3-.6.6v44.1c0,.4.3.6.6.6h5.7ZM196.5,586.4c.5-2.1.7-3.4.7-5.8v-20.7c0-.4-.3-.6-.6-.6h-5.8c-.4,0-.6.3-.6.6v19.4c0,2.4-.2,3.7-.6,5.8l-1.6,8.1-.2,2.2-.2-2.2-1.6-8.1c-.5-2.1-.6-3.4-.6-5.8v-19.4c0-.4-.3-.6-.6-.6h-5.7c-.4,0-.6.3-.6.6v20.7c0,2.4.2,3.7.7,5.8l4.3,17.5c.1.4.5.7.9.7h6.9c.5,0,.8-.3.9-.7l4.3-17.5ZM219.2,604.7c.4,0,.6-.3.6-.6v-6c0-.4-.3-.6-.6-.6h-8.4v-12.2h5.9c.4,0,.6-.3.6-.6v-5.8c0-.4-.3-.6-.6-.6h-5.9v-11.6h8.4c.4,0,.6-.3.6-.6v-6c0-.4-.3-.6-.6-.6h-14.8c-.4,0-.6.3-.6.6v44.1c0,.4.3.6.6.6h14.8ZM247.9,576.9c-1.9-1.8-1.9-2-1.9-6.4v-2.1c0-1.8.8-2.9,2.4-2.9s2.3,1.1,2.3,2.9v7.1c0,.4.3.6.6.5l5.8-1.6c.4-.1.6-.5.6-.8v-4.9c0-6-3.5-9.9-9.3-9.9s-9.3,3.9-9.3,9.9v3.2c0,4.6,1,6.7,3.6,9h-.1c-2.6,2.8-3.8,4.7-3.8,9.3v5.5c0,5.9,3.5,9.7,9.5,9.7s9.5-3.8,9.5-9.7v-3c0-.4.2-.8.5-1.1l1.8-1.9c.3-.3.3-.6,0-.9l-4.2-4c-.3-.3-.7-.3-1,0l-3.6,3.8c-.3.3-.5.7-.5,1.1v6.1c0,1.8-.8,2.9-2.5,2.9s-2.5-1.1-2.5-2.9v-4.7c0-3,.1-3.5,2.7-6.1l3.1-3.3c.3-.3.3-.7,0-1l-3.7-3.6ZM293.8,604.7c.4,0,.6-.3.6-.6v-6c0-.4-.3-.6-.6-.6h-8.7v-37.5c0-.4-.3-.6-.6-.6h-5.7c-.4,0-.6.3-.6.6v44.1c0,.4.3.6.6.6h15.1ZM307.9,605.3c5.8,0,9.4-3.8,9.4-9.7v-27.2c0-5.9-3.6-9.7-9.4-9.7s-9.4,3.8-9.4,9.7v27.2c0,5.9,3.5,9.7,9.4,9.7ZM307.9,598.4c-1.6,0-2.4-1.1-2.4-2.9v-27.2c0-1.8.8-2.9,2.4-2.9s2.3,1.1,2.3,2.9v27.2c0,1.8-.7,2.9-2.3,2.9ZM336.2,559.2c-.4,0-.6.3-.6.6v35.7c0,1.8-.7,2.9-2.3,2.9s-2.4-1.1-2.4-2.9v-35.7c0-.4-.3-.6-.6-.6h-5.7c-.4,0-.6.3-.6.6v35.7c0,5.9,3.5,9.7,9.4,9.7s9.4-3.8,9.4-9.7v-35.7c0-.4-.3-.6-.6-.6h-5.8ZM349.2,604c0,.4.3.6.6.6h8c7.3,0,10.7-3.6,10.7-15.9v-13.6c0-12.3-3.4-15.9-10.7-15.9h-8c-.4,0-.6.3-.6.6v44.1ZM356.2,566.2h.6c4.1,0,4.5,1.8,4.5,8.4v14.7c0,6.7-.5,8.4-4.5,8.4h-.6v-31.5ZM660.6,578.6c0-.3-.2-.5-.5-.5h-249.4c-.3,0-.5.2-.5.5v4.6c0,.3.2.5.5.5h249.4c.3,0,.5-.2.5-.5v-4.6ZM706.7,568.9h-4c-.4,0-.6-.3-.6-.6v-3.7c0-.4.2-.8.5-1l5.1-3.8c.4-.3.8-.4,1.2-.4h4.3c.4,0,.6.3.6.6v43.9c0,.4-.3.6-.6.6h-5.7c-.4,0-.6-.3-.6-.6v-35ZM719.6,592.7c0-.4.3-.7.6-.8l5.4-1.6c.4-.1.6,0,.6.5v4.9c0,1.7.6,2.8,2.2,2.8s2.1-1,2.1-2.8v-9.8c-1,1.1-2.3,1.7-4.3,1.7-4.5,0-7-3.4-7-9.2v-10.3c0-5.7,3.4-9.5,9.2-9.5s9.2,3.7,9.2,9.5v27.5c0,5.7-3.5,9.5-9.2,9.5s-8.9-3.7-8.9-9.5v-3ZM730.7,578v-9.8c0-1.7-.6-2.8-2.1-2.8s-2.2,1-2.2,2.8v10.3c0,1.7.7,2.8,2.2,2.8s2.1-1,2.1-3.4ZM750,566.6v8.6c1.1-1.1,2.5-1.8,4.6-1.8,4.7,0,7.1,3.4,7.1,9.2v13.2c0,5.7-3.5,9.5-9.2,9.5s-9.2-3.7-9.2-9.5v-4.1c0-.4.3-.7.6-.8l5.7-1.7c.4-.1.6,0,.6.5v6.1c0,1.7.6,2.8,2.2,2.8s2.1-1,2.1-2.8v-13.2c0-1.8-.6-2.8-2.1-2.8-2.3,0-2.3,2.3-2.5,4.8,0,.4-.3.6-.6.5l-5.4-1.5c-.4-.1-.6-.5-.6-.8v-22.5c0-.4.3-.6.6-.6h16.1c.4,0,.6.3.6.6v5.9c0,.4-.3.6-.6.6h-10.1ZM774,566.6v8.6c1.1-1.1,2.5-1.8,4.6-1.8,4.7,0,7.1,3.4,7.1,9.2v13.2c0,5.7-3.5,9.5-9.2,9.5s-9.2-3.7-9.2-9.5v-4.1c0-.4.3-.7.6-.8l5.7-1.7c.4-.1.6,0,.6.5v6.1c0,1.7.6,2.8,2.2,2.8s2.1-1,2.1-2.8v-13.2c0-1.8-.6-2.8-2.1-2.8-2.3,0-2.3,2.3-2.5,4.8,0,.4-.3.6-.6.5l-5.4-1.5c-.4-.1-.6-.5-.6-.8v-22.5c0-.4.3-.6.6-.6h16.1c.4,0,.6.3.6.6v5.9c0,.4-.3.6-.6.6h-10.1ZM804.6,584.3c0,.4-.3.6-.6.6h-12c-.4,0-.6-.3-.6-.6v-5.5c0-.4.3-.6.6-.6h12c.4,0,.6.3.6.6v5.5ZM809.9,568.2c0-5.7,3.4-9.5,9-9.5s9.2,3.7,9.2,9.5v5.9c0,5.7-.8,6.8-4.8,14l-5,9.2h9.2c.4,0,.6.3.6.6v5.9c0,.4-.3.6-.6.6h-17c-.4,0-.6-.3-.6-.6v-4.5c0-.4.1-.9.3-1.2l8-14.7c2.6-4.8,3-6,3-10.1v-5.2c0-1.7-.6-2.8-2.1-2.8s-2.2,1-2.2,2.8v9c0,.4-.3.6-.6.5l-5.5-1.5c-.4-.1-.6-.5-.6-.8v-7ZM833.7,595.8v-27.6c0-5.7,3.4-9.5,9.2-9.5s9.2,3.7,9.2,9.5v27.6c0,5.7-3.5,9.4-9.2,9.4s-9.2-3.7-9.2-9.4ZM840.7,584.5l4.3-15.4v-.9c0-1.7-.6-2.8-2.1-2.8s-2.2,1.1-2.2,2.8v16.3ZM845,595.8v-16.3l-4.3,15.4v.9c0,1.7.7,2.8,2.2,2.8s2.1-1.1,2.1-2.8ZM857.7,595.8v-27.6c0-5.7,3.4-9.5,9.2-9.5s9.2,3.7,9.2,9.5v27.6c0,5.7-3.5,9.4-9.2,9.4s-9.2-3.7-9.2-9.4ZM864.7,584.5l4.3-15.4v-.9c0-1.7-.6-2.8-2.1-2.8s-2.2,1.1-2.2,2.8v16.3ZM869,595.8v-16.3l-4.3,15.4v.9c0,1.7.7,2.8,2.2,2.8s2.1-1.1,2.1-2.8ZM888.3,566.6v8.6c1.1-1.1,2.5-1.8,4.6-1.8,4.7,0,7.1,3.4,7.1,9.2v13.2c0,5.7-3.5,9.5-9.2,9.5s-9.2-3.7-9.2-9.5v-4.1c0-.4.3-.7.6-.8l5.7-1.7c.4-.1.6,0,.6.5v6.1c0,1.7.6,2.8,2.2,2.8s2.1-1,2.1-2.8v-13.2c0-1.8-.6-2.8-2.1-2.8-2.3,0-2.3,2.3-2.5,4.8,0,.4-.3.6-.6.5l-5.4-1.5c-.4-.1-.6-.5-.6-.8v-22.5c0-.4.3-.6.6-.6h16.1c.4,0,.6.3.6.6v5.9c0,.4-.3.6-.6.6h-10.1Z" fill="#fff"/>
</svg>