<?xml version="1.0" encoding="UTF-8"?>
<svg id="Layer_1" data-name="Layer 1" xmlns="http://www.w3.org/2000/svg" viewBox="0 0 900 113">
  <path d="M508.3-.3c-.2-1-1-1.7-2-1.7h-18.9c-1,0-1.7.7-1.7,1.7v113.6c0,1,.7,1.7,1.7,1.7h13.5c1,0,1.7-.7,1.7-1.7V35.5l11.7,58.3c.2,1,1,1.7,2,1.7h6.8c1,0,1.8-.7,2-1.7l11.7-58.3v77.8c0,1,.7,1.7,1.7,1.7h13.5c1.2,0,1.8-.7,1.8-1.7V-.3c0-1-.7-1.7-1.8-1.7h-18.5c-1,0-1.8.7-2,1.7l-11.7,59L508.3-.3ZM585.5,115c1,0,1.7-.7,1.7-1.7V-.3c0-1-.7-1.7-1.7-1.7h-14.7c-1,0-1.7.7-1.7,1.7v113.6c0,1,.7,1.7,1.7,1.7h14.7ZM632.8,12.4c0,6,0,9.7-1.3,13.2l-4,11-.7,3.7-.7-3.7-4-11c-1.5-3.5-1.5-7.2-1.5-13.2V-.3c0-1-.7-1.7-1.7-1.7h-14.7c-1,0-1.7.7-1.7,1.7v11.7c0,6-.5,12.9,2.3,18.7l12.4,26.4-12.4,26.2c-2.8,5.8-2.3,12.7-2.3,18.7v11.9c0,1,.7,1.7,1.7,1.7h14.7c1,0,1.7-.7,1.7-1.7v-12.9c0-6,0-9.7,1.5-13.2l4-11,.7-3.7.7,3.7,4,11c1.3,3.5,1.3,7.2,1.3,13.2v12.9c0,1,.7,1.7,1.7,1.7h14.9c1,0,1.7-.7,1.7-1.7v-11.9c0-6,.5-12.9-2.3-18.7l-12.5-26.2,12.5-26.4c2.8-5.8,2.3-12.7,2.3-18.7V-.3c0-1-.7-1.7-1.7-1.7h-14.9c-1,0-1.7.7-1.7,1.7v12.7ZM678.2,113.3c0,1,.7,1.7,1.7,1.7h14.9c1,0,1.7-.7,1.7-1.7V16.8h15.5c1,0,1.7-.7,1.7-1.7V-.3c0-1-.7-1.7-1.7-1.7h-49.1c-1,0-1.7.7-1.7,1.7v15.4c0,1,.7,1.7,1.7,1.7h15.4v96.5ZM754.4-.3c-.2-1-1-1.7-2-1.7h-18.9c-1,0-1.8.7-2,1.7l-10.9,45.3c-1.3,5.5-1.8,8.9-1.8,15v53.3c0,1,.7,1.7,1.7,1.7h14.7c1,0,1.7-.7,1.7-1.7v-33.9h12.2v33.9c0,1,.7,1.7,1.7,1.7h14.9c1,0,1.7-.7,1.7-1.7v-53.3c0-6.2-.5-9.7-1.8-15L754.4-.3ZM736.8,61.5c0-5.8.5-9.4,1.7-14.9l4-21,.5-5.7.5,5.7,4,21c1,5.5,1.5,9,1.5,14.9h-12.2ZM800.5,72.2h4c21.5,0,27.2-14.4,27.2-36.9s-5.7-37.2-27.2-37.2h-20.4c-1,0-1.7.7-1.7,1.7v113.6c0,1,.7,1.7,1.7,1.7h14.7c1,0,1.7-.7,1.7-1.7v-41.1ZM800.5,16.3h.8c10.7,0,11.9,5,11.9,19s-1.2,18.7-11.9,18.7h-.8V16.3ZM883.3,115c1,0,1.7-.7,1.7-1.7v-15.4c0-1-.7-1.7-1.7-1.7h-21.7v-31.4h15.2c1,0,1.7-.7,1.7-1.7v-14.9c0-1-.7-1.7-1.7-1.7h-15.2v-29.9h21.7c1,0,1.7-.7,1.7-1.7V-.3c0-1-.7-1.7-1.7-1.7h-38.1c-1,0-1.7.7-1.7,1.7v113.6c0,1,.7,1.7,1.7,1.7h38.1Z" fill="#fff"/>
  <path d="M436.3,115H3.4c-10.8,0-18.4-7.5-18.4-18.4V16.4C-15,5.6-7.4-1.9,3.4-1.9h432.9c10.8,0,18.4,7.6,18.4,18.4v80.2c0,10.8-7.6,18.4-18.4,18.4ZM3.4,8.8c-4.9,0-7.7,2.8-7.7,7.7v80.2c0,4.9,2.8,7.6,7.7,7.6h432.9c4.9,0,7.7-2.8,7.7-7.6V16.4c0-4.9-2.8-7.7-7.7-7.7H3.4ZM47.8,54.1c4.1-2.1,5.5-6.2,5.5-13.3s-3.4-16-15.5-16h-9.9c-.5,0-.9.4-.9.9v60.9c0,.5.4.9.9.9h11.5c11.5,0,14.6-7.4,14.6-17.6s-1.7-13.2-6.3-15.7ZM36.7,34.3h.5c5.8,0,6.4,2.5,6.4,7.7s-.6,8.1-6.4,8.1h-.5v-15.8ZM38,77.8h-1.3v-18.4h1.3c5.7,0,6.3,3,6.3,9.1s-.6,9.3-6.3,9.3ZM101.1,23.9c-8.1,0-13,5.3-13,13.4v37.6c0,8.1,4.8,13.4,13,13.4s13-5.3,13-13.4v-37.6c0-8.1-4.9-13.4-13-13.4ZM104.3,74.9c0,2.4-1,3.9-3.2,3.9s-3.3-1.5-3.3-3.9v-37.6c0-2.4,1.1-3.9,3.3-3.9s3.2,1.5,3.2,3.9v37.6ZM174.2,24.8h-8c-.5,0-.9.4-.9.9v49.2c0,2.4-1,3.9-3.2,3.9s-3.3-1.5-3.3-3.9V25.6c0-.5-.4-.9-.9-.9h-7.9c-.5,0-.9.4-.9.9v49.2c0,8.1,4.8,13.4,13,13.4s13-5.3,13-13.4V25.6c0-.5-.4-.9-.9-.9ZM231.7,77.4h-12V25.6c0-.5-.4-.9-.9-.9h-7.9c-.5,0-.9.4-.9.9v60.9c0,.5.4.9.9.9h20.8c.5,0,.9-.4.9-.9v-8.2c0-.5-.4-.9-.9-.9ZM277.9,24.8h-11.1c-.5,0-.9.4-.9.9v60.9c0,.5.4.9.9.9h11.1c10.1,0,14.8-4.9,14.8-21.9v-18.8c0-16.9-4.7-21.9-14.8-21.9ZM282.7,66.2c0,9.2-.6,11.6-6.3,11.6h-.9v-43.5h.9c5.6,0,6.3,2.4,6.3,11.6v20.2ZM348.9,24.8h-20.4c-.5,0-.9.4-.9.9v60.9c0,.5.4.9.9.9h20.4c.5,0,.9-.4.9-.9v-8.2c0-.5-.4-.9-.9-.9h-11.6v-16.8h8.1c.5,0,.9-.4.9-.9v-8c0-.5-.4-.9-.9-.9h-8.1v-16h11.6c.5,0,.9-.4.9-.9v-8.2c0-.5-.4-.9-.9-.9ZM412,86.6l-6.3-26.1c3.7-3.2,4.8-9,4.8-16.2,0-11.9-3-19.5-14.6-19.5h-11.1c-.5,0-.9.4-.9.9v60.9c0,.5.4.9.9.9h7.9c.5,0,.9-.4.9-.9v-22.9h3.1l4.9,23c0,.5.5.8,1.1.8h8.5c.5,0,.8-.3.7-.8ZM394.4,53.8h-.7v-19.3h.7c5.6,0,6.3,2.6,6.3,9.8s-.6,9.6-6.3,9.6Z" fill="#fff"/>
</svg>