<?xml version="1.0" encoding="UTF-8"?>
<svg id="Layer_1" data-name="Layer 1" xmlns="http://www.w3.org/2000/svg" xmlns:xlink="http://www.w3.org/1999/xlink" viewBox="0 0 897.9 129">
  <defs>
    <symbol id="Mixtape_Tagline_Box" data-name="Mixtape Tagline Box" viewBox="0 0 897.9 129">
      <path d="M51.9,99.4c-.6,0-1-.4-1-1V32.5c0-.6.4-1,1-1h8.5c.6,0,1,.4,1,1v56.1h13c.6,0,1,.4,1,1v8.9c0,.6-.4,1-1,1h-22.5ZM95,85.8v-40.7c0-8.8,5.2-14.5,14.1-14.5s14.1,5.7,14.1,14.5v40.7c0,8.8-5.3,14.6-14.1,14.6s-14.1-5.7-14.1-14.6ZM112.6,85.8v-40.7c0-2.6-1.1-4.3-3.5-4.3s-3.6,1.7-3.6,4.3v40.7c0,2.6,1.2,4.3,3.6,4.3s3.5-1.7,3.5-4.3ZM172.7,72.5c.6.2,1,.7,1,1.3v12c0,8.8-5.3,14.6-14.1,14.6s-14.1-5.7-14.1-14.6v-40.7c0-8.8,5.2-14.5,14.1-14.5s14.1,5.7,14.1,14.5v12c0,.6-.4,1.1-1,1.3l-8.4,2.3c-.6.2-1-.1-1-.7v-14.9c0-2.6-1.1-4.3-3.6-4.3s-3.7,1.7-3.7,4.3v40.7c0,2.6,1.3,4.3,3.7,4.3s3.6-1.7,3.6-4.3v-14.9c0-.6.4-.9,1-.7l8.4,2.3ZM223.2,58.8c.8,3.1,1.1,5.1,1.1,8.7v30.9c0,.6-.4,1-1,1h-8.6c-.6,0-1-.4-1-1v-19.7h-7.1v19.7c0,.6-.4,1-1,1h-8.5c-.6,0-1-.4-1-1v-30.9c0-3.6.3-5.5,1.1-8.7l6.3-26.3c0-.6.6-1,1.2-1h11c.6,0,1.1.4,1.2,1l6.4,26.3ZM213.7,68.4c0-3.4-.3-5.4-.9-8.6l-2.3-12.2-.3-3.3-.3,3.3-2.3,12.2c-.7,3.2-1,5.2-1,8.6h7.1ZM248.6,99.4c-.6,0-1-.4-1-1V32.5c0-.6.4-1,1-1h8.5c.6,0,1,.4,1,1v56.1h13c.6,0,1,.4,1,1v8.9c0,.6-.4,1-1,1h-22.5ZM381.2,100.4c-.6,0-1-.4-1-1V31.5c0-.6.4-1,1-1h8.8c.6,0,1,.4,1,1v57.7h13.4c.6,0,1,.4,1,1v9.2c0,.6-.4,1-1,1h-23.1ZM428.5,100.4c-.6,0-1-.4-1-1V31.5c0-.6.4-1,1-1h8.8c.6,0,1,.4,1,1v67.8c0,.6-.4,1-1,1h-8.8ZM483.6,99.3c-.2.6-.7,1.1-1.4,1.1h-10.7c-.7,0-1.2-.5-1.4-1.1l-6.6-26.9c-.8-3.3-1.1-5.3-1.1-9v-31.8c0-.6.4-1,1-1h8.8c.6,0,1,.4,1,1v29.8c0,3.7,0,5.7.9,9l2.5,12.5.3,3.4.3-3.4,2.4-12.5c.6-3.3.9-5.3.9-9v-29.8c0-.6.4-1,1-1h8.9c.6,0,1,.4,1,1v31.8c0,3.7-.3,5.8-1.1,9l-6.7,26.9ZM516.5,100.4c-.6,0-1-.4-1-1V31.5c0-.6.4-1,1-1h22.7c.6,0,1,.4,1,1v9.2c0,.6-.4,1-1,1h-13v17.9h9.1c.6,0,1,.4,1,1v8.9c0,.6-.4,1-1,1h-9.1v18.8h13c.6,0,1,.4,1,1v9.2c0,.6-.4,1-1,1h-22.7ZM658.9,99.4c-.6,0-1-.4-1-1V32.5c0-.6.4-1,1-1h8.5c.6,0,1,.4,1,1v56.1h13c.6,0,1,.4,1,1v8.9c0,.6-.4,1-1,1h-22.5ZM702,85.8v-40.7c0-8.8,5.2-14.5,14.1-14.5s14.1,5.7,14.1,14.5v40.7c0,8.8-5.3,14.6-14.1,14.6s-14.1-5.7-14.1-14.6ZM719.6,85.8v-40.7c0-2.6-1.1-4.3-3.5-4.3s-3.6,1.7-3.6,4.3v40.7c0,2.6,1.2,4.3,3.6,4.3s3.5-1.7,3.5-4.3ZM780.7,31.5c.6,0,1,.4,1,1v53.3c0,8.8-5.3,14.6-14.1,14.6s-14.1-5.7-14.1-14.6v-53.3c0-.6.4-1,1-1h8.5c.6,0,1,.4,1,1v53.3c0,2.6,1.2,4.3,3.6,4.3s3.5-1.7,3.5-4.3v-53.3c0-.6.4-1,1-1h8.6ZM805.1,32.5c0-.6.4-1,1-1h12c11,0,16,5.4,16,23.8v20.4c0,18.4-5,23.8-16,23.8h-12c-.6,0-1-.4-1-1V32.5ZM815.6,89h1c6.1,0,6.8-2.6,6.8-12.6v-21.9c0-10-.7-12.6-6.8-12.6h-1v47.1ZM0,2.8v124.2c0,1.1.9,2,2,2h893.9c1.1,0,2-.9,2-2V2C897.9.9,897,0,895.9,0L2,.8c-1.1,0-2,.9-2,2ZM597.4,7.9v113.5c0,1.1-.9,2-2,2h-270.4c-1.1,0-2-.9-2-2V8.1c0-1.1.9-2,2-2l270.4-.2c1.1,0,2,.9,2,2ZM7.6,6.4l307.9-.3c1.1,0,2,.9,2,2v113.3c0,1.1-.9,2-2,2H7.6c-1.1,0-2-.9-2-2V8.4c0-1.1.9-2,2-2ZM890.3,123.4h-285.3c-1.1,0-2-.9-2-2V7.9c0-1.1.9-2,2-2l285.3-.3c1.1,0,2,.9,2,2v113.8c0,1.1-.9,2-2,2Z"/>
    </symbol>
  </defs>
  <use width="897.9" height="129" xlink:href="#Mixtape_Tagline_Box"/>
</svg>