<?xml version="1.0" encoding="UTF-8"?>
<svg id="Layer_1" data-name="Layer 1" xmlns="http://www.w3.org/2000/svg" viewBox="0 0 900 931.8">
  <path d="M1.6,112.5c-1,0-1.6-.6-1.6-1.6V3.2c0-1,.6-1.6,1.6-1.6h13.9c1,0,1.6.6,1.6,1.6v91.6h21.2c1,0,1.6.6,1.6,1.6v14.6c0,1-.6,1.6-1.6,1.6H1.6ZM49.7,90.3V23.8C49.7,9.3,58.3,0,72.7,0s23,9.3,23,23.8v66.5c0,14.4-8.7,23.8-23,23.8s-23-9.3-23-23.8ZM78.4,90.3V23.8c0-4.3-1.7-7-5.7-7s-5.9,2.7-5.9,7v66.5c0,4.3,1.9,7,5.9,7s5.7-2.7,5.7-7ZM154.4,68.6c1,.3,1.6,1.1,1.6,2.1v19.6c0,14.4-8.7,23.8-23,23.8s-23-9.3-23-23.8V23.8C110.1,9.3,118.6,0,133.1,0s23,9.3,23,23.8v19.6c0,1-.6,1.7-1.6,2.1l-13.8,3.8c-.9.3-1.6-.2-1.6-1.1v-24.4c0-4.3-1.7-7-5.9-7s-6,2.7-6,7v66.5c0,4.3,2.1,7,6,7s5.9-2.7,5.9-7v-24.4c0-1,.6-1.4,1.6-1.1l13.8,3.8ZM214.6,46.1c1.3,5.1,1.7,8.4,1.7,14.3v50.5c0,1-.6,1.6-1.6,1.6h-14.1c-1,0-1.6-.6-1.6-1.6v-32.2h-11.6v32.2c0,1-.6,1.6-1.6,1.6h-13.9c-1,0-1.6-.6-1.6-1.6v-50.5c0-5.9.5-9,1.7-14.3l10.3-42.9c.2-1,1-1.6,1.9-1.6h17.9c1,0,1.7.6,1.9,1.6l10.5,42.9ZM199.1,61.8c0-5.5-.5-8.9-1.4-14.1l-3.8-20-.5-5.4-.5,5.4-3.8,20c-1.1,5.2-1.6,8.6-1.6,14.1h11.6ZM233.9,112.5c-1,0-1.6-.6-1.6-1.6V3.2c0-1,.6-1.6,1.6-1.6h13.9c1,0,1.6.6,1.6,1.6v91.6h21.2c1,0,1.6.6,1.6,1.6v14.6c0,1-.6,1.6-1.6,1.6h-36.7ZM285.6,131.5c-.8-.6-.8-1.4-.2-2.2,3.5-4.1,7.1-10,7.8-14.4.2-1-.5-1.4-1.4-1.4-5.2,0-9.7-4.1-9.7-10.3s4.1-10.9,10.5-10.9,12.4,5.4,12.4,15.5-8.6,21.4-14.3,26c-.8.6-1.6.5-2.4-.2l-2.7-2.1ZM351,112.5c-1,0-1.6-.6-1.6-1.6V3.2c0-1,.6-1.6,1.6-1.6h13.9c1,0,1.6.6,1.6,1.6v91.6h21.2c1,0,1.6.6,1.6,1.6v14.6c0,1-.6,1.6-1.6,1.6h-36.7ZM403.9,112.5c-1,0-1.6-.6-1.6-1.6V3.2c0-1,.6-1.6,1.6-1.6h13.9c1,0,1.6.6,1.6,1.6v107.7c0,1-.6,1.6-1.6,1.6h-13.9ZM469.2,110.7c-.3,1-1.1,1.7-2.2,1.7h-16.9c-1.1,0-1.9-.8-2.2-1.7l-10.5-42.8c-1.3-5.2-1.7-8.4-1.7-14.3V3.2c0-1,.6-1.6,1.6-1.6h13.9c1,0,1.6.6,1.6,1.6v47.4c0,5.9.2,9,1.4,14.3l4,19.8.5,5.4.5-5.4,3.8-19.8c.9-5.2,1.4-8.4,1.4-14.3V3.2c0-1,.6-1.6,1.6-1.6h14.1c1,0,1.6.6,1.6,1.6v50.5c0,5.9-.5,9.2-1.7,14.3l-10.6,42.8ZM499.1,112.5c-1,0-1.6-.6-1.6-1.6V3.2c0-1,.6-1.6,1.6-1.6h36.1c.9,0,1.6.6,1.6,1.6v14.6c0,.9-.6,1.6-1.6,1.6h-20.6v28.4h14.4c1,0,1.6.6,1.6,1.6v14.1c0,1-.6,1.6-1.6,1.6h-14.4v29.8h20.6c.9,0,1.6.6,1.6,1.6v14.6c0,1-.6,1.6-1.6,1.6h-36.1ZM614.3,53.4c.6.6.6,1.6,0,2.4l-7.6,8.1c-6.2,6.3-6.5,7.4-6.5,14.9v11.6c0,4.3,2.1,7,6.2,7s6-2.7,6-7v-14.9c0-.9.5-2.1,1.1-2.7l8.9-9.2c.6-.6,1.6-.6,2.4,0l10.1,9.7c.6.6.6,1.6,0,2.2l-4.4,4.8c-.6.6-1.1,1.7-1.1,2.7v7.4c0,14.4-8.7,23.8-23.1,23.8s-23.1-9.3-23.1-23.8v-13.5c0-11.1,2.9-15.8,9.2-22.3l.3-.3c-6.5-5.5-8.9-10.8-8.9-22v-7.9C583.7,9.5,592.1,0,606.5,0s22.8,9.5,22.8,24.2v12c0,1-.6,1.7-1.6,2.1l-14.1,4c-.9.3-1.6-.2-1.6-1.1v-17.3c0-4.4-1.7-7.1-5.7-7.1s-5.9,2.7-5.9,7v5.2c0,10.8.2,11.4,4.8,15.7l9,8.7ZM680.6,112.5c-1,0-1.6-.6-1.6-1.6V3.2c0-1,.6-1.6,1.6-1.6h13.9c1,0,1.6.6,1.6,1.6v91.6h21.2c1,0,1.6.6,1.6,1.6v14.6c0,1-.6,1.6-1.6,1.6h-36.7ZM728.8,90.3V23.8C728.8,9.3,737.3,0,751.7,0s23,9.3,23,23.8v66.5c0,14.4-8.7,23.8-23,23.8s-23-9.3-23-23.8ZM757.4,90.3V23.8c0-4.3-1.7-7-5.7-7s-5.9,2.7-5.9,7v66.5c0,4.3,1.9,7,5.9,7s5.7-2.7,5.7-7ZM835.1,1.6c1,0,1.6.6,1.6,1.6v87.1c0,14.4-8.7,23.8-23,23.8s-23-9.3-23-23.8V3.2c0-1,.6-1.6,1.6-1.6h13.9c1,0,1.6.6,1.6,1.6v87.1c0,4.3,1.9,7,5.9,7s5.7-2.7,5.7-7V3.2c0-1,.6-1.6,1.6-1.6h14.1ZM852.6,3.2c0-1,.6-1.6,1.6-1.6h19.6c17.9,0,26.1,8.9,26.1,38.8v33.3c0,30.1-8.2,38.8-26.1,38.8h-19.6c-1,0-1.6-.6-1.6-1.6V3.2ZM869.7,95.5h1.6c10,0,11.1-4.3,11.1-20.6v-35.8c0-16.3-1.1-20.6-11.1-20.6h-1.6v77ZM21.2,766.1H2.9c-1.8,0-2.9-1.2-2.9-2.9v-16.8c0-1.8.9-3.8,2.4-4.7l23.3-17.4c1.8-1.2,3.5-1.8,5.3-1.8h19.5c1.8,0,2.9,1.2,2.9,3v200.6c0,1.8-1.2,2.9-2.9,2.9h-26.3c-1.8,0-3-1.2-3-2.9v-159.9ZM84.4,874.9c0-1.8,1.2-3.2,2.9-3.8l24.8-7.4c1.8-.6,3,.3,3,2.4v22.4c0,8,2.9,12.7,10,12.7s9.7-4.7,9.7-12.7v-44.5c-4.4,5-10.6,8-19.8,8-20.7,0-31.9-15.3-31.9-41.9v-47.2c0-26.3,15.6-43.4,41.9-43.4s41.9,17.1,41.9,43.4v125.7c0,26.3-15.9,43.4-41.9,43.4s-40.7-17.1-40.7-43.4v-13.6ZM134.8,807.6v-44.8c0-8-2.7-12.7-9.7-12.7s-10,4.7-10,12.7v47.2c0,8,3.2,13,10,13s9.7-4.4,9.7-15.3ZM227.1,755.4v39.2c5-5,11.5-8.3,20.9-8.3,21.5,0,32.4,15.3,32.4,41.9v60.2c0,26.3-15.9,43.4-41.9,43.4s-41.9-17.1-41.9-43.4v-18.6c0-1.8,1.2-3.2,2.9-3.8l26-7.7c1.8-.6,3,.3,3,2.1v28c0,8,2.9,12.7,10,12.7s9.7-4.7,9.7-12.7v-60.2c0-8.3-2.9-13-9.7-13-10.3,0-10.3,10.6-11.5,21.8,0,1.8-1.2,2.7-3,2.1l-24.5-7.1c-1.8-.6-2.9-2.1-2.9-3.8v-103c0-1.8,1.2-3,2.9-3h73.7c1.8,0,2.9,1.2,2.9,3v27.1c0,1.8-1.2,2.9-2.9,2.9h-46.3ZM340.7,755.4v39.2c5-5,11.5-8.3,20.9-8.3,21.5,0,32.4,15.3,32.4,41.9v60.2c0,26.3-15.9,43.4-41.9,43.4s-41.9-17.1-41.9-43.4v-18.6c0-1.8,1.2-3.2,2.9-3.8l26-7.7c1.8-.6,3,.3,3,2.1v28c0,8,2.9,12.7,10,12.7s9.7-4.7,9.7-12.7v-60.2c0-8.3-2.9-13-9.7-13-10.3,0-10.3,10.6-11.5,21.8,0,1.8-1.2,2.7-3,2.1l-24.5-7.1c-1.8-.6-2.9-2.1-2.9-3.8v-103c0-1.8,1.2-3,2.9-3h73.7c1.8,0,2.9,1.2,2.9,3v27.1c0,1.8-1.2,2.9-2.9,2.9h-46.3ZM484.7,836.6c0,1.8-1.2,2.9-2.9,2.9h-54.9c-1.8,0-2.9-1.2-2.9-2.9v-25.1c0-1.8,1.2-2.9,2.9-2.9h54.9c1.8,0,2.9,1.2,2.9,2.9v25.1ZM530.1,766.1h-18.3c-1.8,0-2.9-1.2-2.9-2.9v-16.8c0-1.8.9-3.8,2.4-4.7l23.3-17.4c1.8-1.2,3.5-1.8,5.3-1.8h19.5c1.8,0,2.9,1.2,2.9,3v200.6c0,1.8-1.2,2.9-2.9,2.9h-26.3c-1.8,0-3-1.2-3-2.9v-159.9ZM593.2,874.9c0-1.8,1.2-3.2,2.9-3.8l24.8-7.4c1.8-.6,3,.3,3,2.4v22.4c0,8,2.9,12.7,10,12.7s9.7-4.7,9.7-12.7v-44.5c-4.4,5-10.6,8-19.8,8-20.7,0-31.9-15.3-31.9-41.9v-47.2c0-26.3,15.6-43.4,41.9-43.4s41.9,17.1,41.9,43.4v125.7c0,26.3-15.9,43.4-41.9,43.4s-40.7-17.1-40.7-43.4v-13.6ZM643.7,807.6v-44.8c0-8-2.7-12.7-9.7-12.7s-10,4.7-10,12.7v47.2c0,8,3.2,13,10,13s9.7-4.4,9.7-15.3ZM703.8,874.9c0-1.8,1.2-3.2,2.9-3.8l24.8-7.4c1.8-.6,3,.3,3,2.4v22.4c0,8,2.9,12.7,10,12.7s9.7-4.7,9.7-12.7v-44.5c-4.4,5-10.6,8-19.8,8-20.7,0-31.9-15.3-31.9-41.9v-47.2c0-26.3,15.6-43.4,41.9-43.4s41.9,17.1,41.9,43.4v125.7c0,26.3-15.9,43.4-41.9,43.4s-40.7-17.1-40.7-43.4v-13.6ZM754.3,807.6v-44.8c0-8-2.7-12.7-9.7-12.7s-10,4.7-10,12.7v47.2c0,8,3.2,13,10,13s9.7-4.4,9.7-15.3ZM846.6,755.4v39.2c5-5,11.5-8.3,20.9-8.3,21.5,0,32.4,15.3,32.4,41.9v60.2c0,26.3-15.9,43.4-41.9,43.4s-41.9-17.1-41.9-43.4v-18.6c0-1.8,1.2-3.2,2.9-3.8l26-7.7c1.8-.6,3,.3,3,2.1v28c0,8,2.9,12.7,10,12.7s9.7-4.7,9.7-12.7v-60.2c0-8.3-2.9-13-9.7-13-10.3,0-10.3,10.6-11.5,21.8,0,1.8-1.2,2.7-2.9,2.1l-24.5-7.1c-1.8-.6-2.9-2.1-2.9-3.8v-103c0-1.8,1.2-3,2.9-3h73.7c1.8,0,2.9,1.2,2.9,3v27.1c0,1.8-1.2,2.9-2.9,2.9h-46.3Z" fill="#fff"/>
  <g>
    <path d="M153.6,411.8v256.1c0,2.3-1.5,3.8-4.1,3.8h-30.5c-2.3,0-3.8-1.5-3.8-3.8v-175.5l-26.4,131.4c-.4,2.3-2.3,3.8-4.5,3.8h-15.4c-2.3,0-4.1-1.5-4.5-3.8l-26.4-131.4v175.5c0,2.3-1.5,3.8-3.8,3.8H3.8c-2.3,0-3.8-1.5-3.8-3.8v-256.1c0-2.3,1.5-3.8,3.8-3.8h42.6c2.3,0,4.1,1.5,4.5,3.8l26,132.9,26.4-132.9c.4-2.3,2.3-3.8,4.5-3.8h41.8c2.6,0,4.1,1.5,4.1,3.8ZM224.8,408.1h-33.1c-2.3,0-3.8,1.5-3.8,3.8v256.1c0,2.3,1.5,3.8,3.8,3.8h33.1c2.3,0,3.8-1.5,3.8-3.8v-256.1c0-2.3-1.5-3.8-3.8-3.8ZM372.4,438.2v-26.4c0-2.3-1.5-3.8-3.8-3.8h-33.5c-2.3,0-3.8,1.5-3.8,3.8v28.6c0,13.6,0,21.8-3,29.7l-9,24.9-1.5,8.3-1.5-8.3-9-24.9c-3.4-7.9-3.4-16.2-3.4-29.7v-28.6c0-2.3-1.5-3.8-3.8-3.8h-33.1c-2.3,0-3.8,1.5-3.8,3.8v26.4c0,13.6-1.1,29,5.3,42.2l27.9,59.5-27.9,59.1c-6.4,13.2-5.3,28.6-5.3,42.2v26.7c0,2.3,1.5,3.8,3.8,3.8h33.1c2.3,0,3.8-1.5,3.8-3.8v-29c0-13.6,0-21.8,3.4-29.7l9-24.9,1.5-8.3,1.5,8.3,9,24.9c3,7.9,3,16.2,3,29.7v29c0,2.3,1.5,3.8,3.8,3.8h33.5c2.3,0,3.8-1.5,3.8-3.8v-26.7c0-13.6,1.1-29-5.3-42.2l-28.2-59.1,28.2-59.5c6.4-13.2,5.3-28.6,5.3-42.2ZM509.9,408.1h-110.7c-2.3,0-3.8,1.5-3.8,3.8v34.6c0,2.3,1.5,3.8,3.8,3.8h34.6v217.7c0,2.3,1.5,3.8,3.8,3.8h33.5c2.3,0,3.8-1.5,3.8-3.8v-217.7h35c2.3,0,3.8-1.5,3.8-3.8v-34.6c0-2.3-1.5-3.8-3.8-3.8ZM630.4,513.9c3,12,4.1,20,4.1,33.9v120.1c0,2.3-1.5,3.8-3.8,3.8h-33.5c-2.3,0-3.8-1.5-3.8-3.8v-76.4h-27.5v76.4c0,2.3-1.5,3.8-3.8,3.8h-33.1c-2.3,0-3.8-1.5-3.8-3.8v-120.1c0-13.9,1.1-21.5,4.1-33.9l24.5-102c.4-2.3,2.3-3.8,4.5-3.8h42.6c2.3,0,4.1,1.5,4.5,3.8l24.9,102ZM593.5,551.1c0-13.2-1.1-21.1-3.4-33.5l-9-47.4-1.1-12.8-1.1,12.8-9,47.4c-2.6,12.4-3.8,20.3-3.8,33.5h27.5ZM779.9,492c0,50.8-12.8,83.2-61.4,83.2h-9v92.6c0,2.3-1.5,3.8-3.8,3.8h-33.1c-2.3,0-3.8-1.5-3.8-3.8v-256.1c0-2.3,1.5-3.8,3.8-3.8h45.9c48.6,0,61.4,32.8,61.4,84ZM738.1,492c0-31.6-2.6-42.9-26.7-42.9h-1.9v85.1h1.9c24.1,0,26.7-11.3,26.7-42.2ZM896.2,450.2c2.3,0,3.8-1.5,3.8-3.8v-34.6c0-2.3-1.5-3.8-3.8-3.8h-85.9c-2.3,0-3.8,1.5-3.8,3.8v256.1c0,2.3,1.5,3.8,3.8,3.8h85.9c2.3,0,3.8-1.5,3.8-3.8v-34.6c0-2.3-1.5-3.8-3.8-3.8h-49v-70.8h34.3c2.3,0,3.8-1.5,3.8-3.8v-33.5c0-2.3-1.5-3.8-3.8-3.8h-34.3v-67.4h49Z" fill="#fff"/>
    <path d="M864.8,380.3H35.2c-20.7,0-35.2-14.5-35.2-35.2v-153.7c0-20.7,14.5-35.2,35.2-35.2h829.6c20.7,0,35.2,14.5,35.2,35.2v153.7c0,20.7-14.5,35.2-35.2,35.2ZM35.2,176.7c-9.3,0-14.7,5.3-14.7,14.7v153.7c0,9.3,5.3,14.6,14.7,14.6h829.6c9.3,0,14.7-5.3,14.7-14.6v-153.7c0-9.3-5.3-14.7-14.7-14.7H35.2ZM120.3,263.6c7.9-3.9,10.6-11.8,10.6-25.6s-6.5-30.7-29.7-30.7h-19c-1,0-1.7.7-1.7,1.7v116.6c0,1,.7,1.7,1.7,1.7h22.1c22.1,0,28-14.2,28-33.8s-3.3-25.4-12-30ZM99,225.7h1c11.2,0,12.2,4.8,12.2,14.8s-1.2,15.4-12.2,15.4h-1v-30.2ZM101.6,309.1h-2.6v-35.3h2.6c11,0,12,5.7,12,17.5s-1.2,17.8-12,17.8ZM222.5,205.6c-15.6,0-24.9,10.1-24.9,25.7v72c0,15.6,9.3,25.7,24.9,25.7s24.9-10.1,24.9-25.7v-72c0-15.6-9.4-25.7-24.9-25.7ZM228.7,303.4c0,4.6-1.9,7.5-6.2,7.5s-6.3-2.9-6.3-7.5v-72c0-4.6,2.1-7.5,6.3-7.5s6.2,2.9,6.2,7.5v72ZM362.5,207.4h-15.3c-1,0-1.7.7-1.7,1.7v94.3c0,4.6-1.9,7.5-6.2,7.5s-6.3-2.9-6.3-7.5v-94.3c0-1-.7-1.7-1.7-1.7h-15.1c-1,0-1.7.7-1.7,1.7v94.3c0,15.6,9.3,25.7,24.9,25.7s24.9-10.1,24.9-25.7v-94.3c0-1-.7-1.7-1.7-1.7ZM472.8,308.2h-23v-99.1c0-1-.7-1.7-1.7-1.7h-15.1c-1,0-1.7.7-1.7,1.7v116.6c0,1,.7,1.7,1.7,1.7h39.8c1,0,1.7-.7,1.7-1.7v-15.8c0-1-.7-1.7-1.7-1.7ZM561.3,207.4h-21.3c-1,0-1.7.7-1.7,1.7v116.6c0,1,.7,1.7,1.7,1.7h21.3c19.4,0,28.3-9.4,28.3-42v-36c0-32.4-8.9-42-28.3-42ZM570.5,286.8c0,17.7-1.2,22.3-12,22.3h-1.7v-83.4h1.7c10.8,0,12,4.6,12,22.3v38.8ZM697.5,207.4h-39.1c-1,0-1.7.7-1.7,1.7v116.6c0,1,.7,1.7,1.7,1.7h39.1c1,0,1.7-.7,1.7-1.7v-15.8c0-1-.7-1.7-1.7-1.7h-22.3v-32.2h15.6c1,0,1.7-.7,1.7-1.7v-15.3c0-1-.7-1.7-1.7-1.7h-15.6v-30.7h22.3c1,0,1.7-.7,1.7-1.7v-15.8c0-1-.7-1.7-1.7-1.7ZM818.4,325.9l-12-50.1c7-6.2,9.3-17.2,9.3-31,0-22.8-5.8-37.4-28-37.4h-21.3c-1,0-1.7.7-1.7,1.7v116.6c0,1,.7,1.7,1.7,1.7h15.1c1,0,1.7-.7,1.7-1.7v-43.9h6l9.4,44.1c.2,1,1,1.5,2.1,1.5h16.3c1,0,1.5-.5,1.4-1.5ZM784.6,263.1h-1.4v-37h1.4c10.8,0,12,5,12,18.7s-1.2,18.4-12,18.4Z" fill="#fff"/>
  </g>
</svg>