<?xml version="1.0" encoding="UTF-8"?>
<svg id="Layer_1" data-name="Layer 1" xmlns="http://www.w3.org/2000/svg" xmlns:xlink="http://www.w3.org/1999/xlink" viewBox="0 0 900.5 1014.4">
  <defs>
    <symbol id="Mixtape_Stacked_Lockup_M" data-name="Mixtape Stacked Lockup M" viewBox="0 0 900.5 1014.4">
      <path d="M223.8,66.4v73.7c0,4.7-1.9,7.7-6.3,7.7s-6.5-3-6.5-7.7v-73.7c0-4.7,2.1-7.7,6.5-7.7s6.3,3,6.3,7.7ZM104.6,75.7c0-10.2-1.1-15.1-12.5-15.1h-1.1v30.9h1.1c11.2,0,12.5-4.6,12.5-15.8ZM561.3,60.6h-1.8v85.3h1.8c11.1,0,12.3-4.7,12.3-22.8v-39.7c0-18.1-1.2-22.8-12.3-22.8ZM93.7,109.8h-2.6v36.2h2.6c11.1,0,12.3-5.4,12.3-18.3s-1.1-17.9-12.3-17.9ZM792.7,61h-1.4v37.9h1.4c11.1,0,12.3-5.1,12.3-18.8s-1.2-19.1-12.3-19.1ZM900.2,25.5v157.3c0,15.3-10.2,25.5-25.5,25.5H25.7c-15.3,0-25.5-10.2-25.5-25.5V25.5C.2,10.2,10.4,0,25.7,0h849c15.3,0,25.5,10.2,25.5,25.5ZM125.1,130.2c0-16-3.3-26-12.3-30.7,8.1-4,10.9-12.1,10.9-26.2s-6.7-31.4-30.4-31.4h-19.5c-1.1,0-1.8.7-1.8,1.8v119.4c0,1.1.7,1.8,1.8,1.8h22.6c22.6,0,28.6-14.6,28.6-34.6ZM242.9,66.4c0-16-9.7-26.3-25.5-26.3s-25.5,10.4-25.5,26.3v73.7c0,16,9.5,26.3,25.5,26.3s25.5-10.4,25.5-26.3v-73.7ZM362.4,43.6c0-1.1-.7-1.8-1.8-1.8h-15.6c-1.1,0-1.8.7-1.8,1.8v96.5c0,4.7-1.9,7.7-6.3,7.7s-6.5-3-6.5-7.7V43.6c0-1.1-.7-1.8-1.8-1.8h-15.4c-1.1,0-1.8.7-1.8,1.8v96.5c0,16,9.5,26.3,25.5,26.3s25.5-10.4,25.5-26.3V43.6ZM475.3,146.8c0-1.1-.7-1.8-1.8-1.8h-23.5V43.6c0-1.1-.7-1.8-1.8-1.8h-15.4c-1.1,0-1.8.7-1.8,1.8v119.4c0,1.1.7,1.8,1.8,1.8h40.7c1.1,0,1.8-.7,1.8-1.8v-16.1ZM593.1,84.9c0-33.2-9.1-43-29-43h-21.8c-1.1,0-1.8.7-1.8,1.8v119.4c0,1.1.7,1.8,1.8,1.8h21.8c19.8,0,29-9.7,29-43v-36.9ZM705.2,43.6c0-1.1-.7-1.8-1.8-1.8h-40c-1.1,0-1.8.7-1.8,1.8v119.4c0,1.1.7,1.8,1.8,1.8h40c1.1,0,1.8-.7,1.8-1.8v-16.1c0-1.1-.7-1.8-1.8-1.8h-22.8v-33h16c1.1,0,1.8-.7,1.8-1.8v-15.6c0-1.1-.7-1.8-1.8-1.8h-16v-31.4h22.8c1.1,0,1.8-.7,1.8-1.8v-16.1ZM827.2,163.2l-12.3-51.3c7.2-6.3,9.5-17.6,9.5-31.8,0-23.3-6-38.3-28.6-38.3h-21.8c-1.1,0-1.8.7-1.8,1.8v119.4c0,1.1.7,1.8,1.8,1.8h15.4c1.1,0,1.8-.7,1.8-1.8v-44.9h6.1l9.7,45.1c.2,1.1,1.1,1.6,2.1,1.6h16.7c1.1,0,1.6-.5,1.4-1.6ZM51.1,255.6c-.4-2.3-2.3-3.8-4.5-3.8H4c-2.3,0-3.8,1.5-3.8,3.8v256.1c0,2.3,1.5,3.8,3.8,3.8h30.5c2.3,0,3.8-1.5,3.8-3.8v-175.5l26.4,131.4c.4,2.3,2.3,3.8,4.5,3.8h15.4c2.3,0,4.1-1.5,4.5-3.8l26.4-131.4v175.5c0,2.3,1.5,3.8,3.8,3.8h30.5c2.6,0,4.1-1.5,4.1-3.8V255.6c0-2.3-1.5-3.8-4.1-3.8h-41.8c-2.3,0-4.1,1.5-4.5,3.8l-26.4,132.9-26-132.9ZM225,515.5c2.3,0,3.8-1.5,3.8-3.8V255.6c0-2.3-1.5-3.8-3.8-3.8h-33.1c-2.3,0-3.8,1.5-3.8,3.8v256.1c0,2.3,1.5,3.8,3.8,3.8h33.1ZM331.6,284.2c0,13.6,0,21.8-3,29.7l-9,24.9-1.5,8.3-1.5-8.3-9-24.9c-3.4-7.9-3.4-16.2-3.4-29.7v-28.6c0-2.3-1.5-3.8-3.8-3.8h-33.1c-2.3,0-3.8,1.5-3.8,3.8v26.4c0,13.6-1.1,29,5.3,42.2l27.9,59.5-27.9,59.1c-6.4,13.2-5.3,28.6-5.3,42.2v26.7c0,2.3,1.5,3.8,3.8,3.8h33.1c2.3,0,3.8-1.5,3.8-3.8v-29c0-13.6,0-21.8,3.4-29.7l9-24.9,1.5-8.3,1.5,8.3,9,24.9c3,7.9,3,16.2,3,29.7v29c0,2.3,1.5,3.8,3.8,3.8h33.5c2.3,0,3.8-1.5,3.8-3.8v-26.7c0-13.6,1.1-29-5.3-42.2l-28.2-59.1,28.2-59.5c6.4-13.2,5.3-28.6,5.3-42.2v-26.4c0-2.3-1.5-3.8-3.8-3.8h-33.5c-2.3,0-3.8,1.5-3.8,3.8v28.6ZM434,511.7c0,2.3,1.5,3.8,3.8,3.8h33.5c2.3,0,3.8-1.5,3.8-3.8v-217.7h35c2.3,0,3.8-1.5,3.8-3.8v-34.6c0-2.3-1.5-3.8-3.8-3.8h-110.7c-2.3,0-3.8,1.5-3.8,3.8v34.6c0,2.3,1.5,3.8,3.8,3.8h34.6v217.7ZM605.8,255.6c-.4-2.3-2.3-3.8-4.5-3.8h-42.6c-2.3,0-4.1,1.5-4.5,3.8l-24.5,102c-3,12.4-4.1,20-4.1,33.9v120.1c0,2.3,1.5,3.8,3.8,3.8h33.1c2.3,0,3.8-1.5,3.8-3.8v-76.4h27.5v76.4c0,2.3,1.5,3.8,3.8,3.8h33.5c2.3,0,3.8-1.5,3.8-3.8v-120.1c0-13.9-1.1-21.8-4.1-33.9l-24.9-102ZM566.2,395c0-13.2,1.1-21.1,3.8-33.5l9-47.4,1.1-12.8,1.1,12.8,9,47.4c2.3,12.4,3.4,20.3,3.4,33.5h-27.5ZM709.7,419.1h9c48.6,0,61.4-32.4,61.4-83.2s-12.8-84-61.4-84h-45.9c-2.3,0-3.8,1.5-3.8,3.8v256.1c0,2.3,1.5,3.8,3.8,3.8h33.1c2.3,0,3.8-1.5,3.8-3.8v-92.6ZM709.7,292.9h1.9c24.1,0,26.7,11.3,26.7,42.9s-2.6,42.2-26.7,42.2h-1.9v-85.1ZM896.5,515.5c2.3,0,3.8-1.5,3.8-3.8v-34.6c0-2.3-1.5-3.8-3.8-3.8h-49v-70.8h34.3c2.3,0,3.8-1.5,3.8-3.8v-33.5c0-2.3-1.5-3.8-3.8-3.8h-34.3v-67.4h49c2.3,0,3.8-1.5,3.8-3.8v-34.6c0-2.3-1.5-3.8-3.8-3.8h-85.9c-2.3,0-3.8,1.5-3.8,3.8v256.1c0,2.3,1.5,3.8,3.8,3.8h85.9ZM900.5,578.6c0-.3-.2-.5-.5-.5H.5c-.3,0-.5.2-.5.5v4.6c0,.3.2.5.5.5h899.4c.3,0,.5-.2.5-.5v-4.6ZM1.9,758.6c-1,0-1.6-.6-1.6-1.6v-107.7c0-1,.6-1.6,1.6-1.6h13.9c1,0,1.6.6,1.6,1.6v91.6h21.2c1,0,1.6.6,1.6,1.6v14.6c0,1-.6,1.6-1.6,1.6H1.9ZM50,736.5v-66.5c0-14.4,8.6-23.8,23-23.8s23,9.3,23,23.8v66.5c0,14.4-8.7,23.8-23,23.8s-23-9.3-23-23.8ZM78.7,736.5v-66.5c0-4.3-1.7-7-5.7-7s-5.9,2.7-5.9,7v66.5c0,4.3,1.9,7,5.9,7s5.7-2.7,5.7-7ZM154.7,714.8c1,.3,1.6,1.1,1.6,2.1v19.6c0,14.4-8.7,23.8-23,23.8s-23-9.3-23-23.8v-66.5c0-14.4,8.6-23.8,23-23.8s23,9.3,23,23.8v19.6c0,1-.6,1.7-1.6,2.1l-13.8,3.8c-.9.3-1.6-.2-1.6-1.1v-24.4c0-4.3-1.7-7-5.9-7s-6,2.7-6,7v66.5c0,4.3,2.1,7,6,7s5.9-2.7,5.9-7v-24.4c0-1,.6-1.4,1.6-1.1l13.8,3.8ZM214.9,692.3c1.3,5.1,1.7,8.4,1.7,14.3v50.5c0,1-.6,1.6-1.6,1.6h-14.1c-1,0-1.6-.6-1.6-1.6v-32.2h-11.6v32.2c0,1-.6,1.6-1.6,1.6h-13.9c-1,0-1.6-.6-1.6-1.6v-50.5c0-5.9.5-9,1.7-14.3l10.3-42.9c.2-1,1-1.6,1.9-1.6h17.9c1,0,1.7.6,1.9,1.6l10.5,42.9ZM199.4,708c0-5.5-.5-8.9-1.4-14.1l-3.8-20-.5-5.4-.5,5.4-3.8,20c-1.1,5.2-1.6,8.6-1.6,14.1h11.6ZM234.2,758.6c-1,0-1.6-.6-1.6-1.6v-107.7c0-1,.6-1.6,1.6-1.6h13.9c1,0,1.6.6,1.6,1.6v91.6h21.2c1,0,1.6.6,1.6,1.6v14.6c0,1-.6,1.6-1.6,1.6h-36.7ZM285.9,777.7c-.8-.6-.8-1.4-.2-2.2,3.5-4.1,7.1-10,7.8-14.4.2-1-.5-1.4-1.4-1.4-5.2,0-9.7-4.1-9.7-10.3s4.1-10.9,10.5-10.9,12.4,5.4,12.4,15.5-8.6,21.4-14.3,26c-.8.6-1.6.5-2.4-.2l-2.7-2.1ZM351.3,758.6c-1,0-1.6-.6-1.6-1.6v-107.7c0-1,.6-1.6,1.6-1.6h13.9c1,0,1.6.6,1.6,1.6v91.6h21.2c1,0,1.6.6,1.6,1.6v14.6c0,1-.6,1.6-1.6,1.6h-36.7ZM404.2,758.6c-1,0-1.6-.6-1.6-1.6v-107.7c0-1,.6-1.6,1.6-1.6h13.9c1,0,1.6.6,1.6,1.6v107.7c0,1-.6,1.6-1.6,1.6h-13.9ZM469.4,756.9c-.3,1-1.1,1.7-2.2,1.7h-16.9c-1.1,0-1.9-.8-2.2-1.7l-10.5-42.8c-1.3-5.2-1.7-8.4-1.7-14.3v-50.5c0-1,.6-1.6,1.6-1.6h13.9c1,0,1.6.6,1.6,1.6v47.4c0,5.9.2,9,1.4,14.3l4,19.8.5,5.4.5-5.4,3.8-19.8c.9-5.2,1.4-8.4,1.4-14.3v-47.4c0-1,.6-1.6,1.6-1.6h14.1c1,0,1.6.6,1.6,1.6v50.5c0,5.9-.5,9.2-1.7,14.3l-10.6,42.8ZM499.4,758.6c-1,0-1.6-.6-1.6-1.6v-107.7c0-1,.6-1.6,1.6-1.6h36.1c.9,0,1.6.6,1.6,1.6v14.6c0,.9-.6,1.6-1.6,1.6h-20.6v28.4h14.4c1,0,1.6.6,1.6,1.6v14.1c0,1-.6,1.6-1.6,1.6h-14.4v29.8h20.6c.9,0,1.6.6,1.6,1.6v14.6c0,1-.6,1.6-1.6,1.6h-36.1ZM614.5,699.6c.6.6.6,1.6,0,2.4l-7.6,8.1c-6.2,6.3-6.5,7.4-6.5,14.9v11.6c0,4.3,2.1,7,6.2,7s6-2.7,6-7v-14.9c0-.9.5-2.1,1.1-2.7l8.9-9.2c.6-.6,1.6-.6,2.4,0l10.1,9.7c.6.6.6,1.6,0,2.2l-4.4,4.8c-.6.6-1.1,1.7-1.1,2.7v7.4c0,14.4-8.7,23.8-23.1,23.8s-23.1-9.3-23.1-23.8v-13.5c0-11.1,2.9-15.8,9.2-22.3l.3-.3c-6.5-5.5-8.9-10.8-8.9-22v-7.9c0-14.7,8.4-24.2,22.8-24.2s22.8,9.5,22.8,24.2v12c0,1-.6,1.7-1.6,2.1l-14.1,4c-.9.3-1.6-.2-1.6-1.1v-17.3c0-4.4-1.7-7.1-5.7-7.1s-5.9,2.7-5.9,7v5.2c0,10.8.2,11.4,4.8,15.7l9,8.7ZM680.9,758.6c-1,0-1.6-.6-1.6-1.6v-107.7c0-1,.6-1.6,1.6-1.6h13.9c1,0,1.6.6,1.6,1.6v91.6h21.2c1,0,1.6.6,1.6,1.6v14.6c0,1-.6,1.6-1.6,1.6h-36.7ZM729,736.5v-66.5c0-14.4,8.6-23.8,23-23.8s23,9.3,23,23.8v66.5c0,14.4-8.7,23.8-23,23.8s-23-9.3-23-23.8ZM757.7,736.5v-66.5c0-4.3-1.7-7-5.7-7s-5.9,2.7-5.9,7v66.5c0,4.3,1.9,7,5.9,7s5.7-2.7,5.7-7ZM835.3,647.8c1,0,1.6.6,1.6,1.6v87.1c0,14.4-8.7,23.8-23,23.8s-23-9.3-23-23.8v-87.1c0-1,.6-1.6,1.6-1.6h13.9c1,0,1.6.6,1.6,1.6v87.1c0,4.3,1.9,7,5.9,7s5.7-2.7,5.7-7v-87.1c0-1,.6-1.6,1.6-1.6h14.1ZM852.9,649.3c0-1,.6-1.6,1.6-1.6h19.6c17.9,0,26.1,8.9,26.1,38.8v33.3c0,30.1-8.2,38.8-26.1,38.8h-19.6c-1,0-1.6-.6-1.6-1.6v-107.7ZM870,741.7h1.6c10,0,11.1-4.3,11.1-20.6v-35.8c0-16.3-1.1-20.6-11.1-20.6h-1.6v77ZM21.5,848.6H3.2c-1.8,0-2.9-1.2-2.9-2.9v-16.8c0-1.8.9-3.8,2.4-4.7l23.3-17.4c1.8-1.2,3.5-1.8,5.3-1.8h19.5c1.8,0,2.9,1.2,2.9,3v200.6c0,1.8-1.2,2.9-2.9,2.9h-26.3c-1.8,0-3-1.2-3-2.9v-159.9ZM84.6,957.5c0-1.8,1.2-3.2,2.9-3.8l24.8-7.4c1.8-.6,3,.3,3,2.4v22.4c0,8,2.9,12.7,10,12.7s9.7-4.7,9.7-12.7v-44.5c-4.4,5-10.6,8-19.8,8-20.7,0-31.9-15.3-31.9-41.9v-47.2c0-26.3,15.6-43.4,41.9-43.4s41.9,17.1,41.9,43.4v125.7c0,26.3-15.9,43.4-41.9,43.4s-40.7-17.1-40.7-43.4v-13.6ZM135.1,890.2v-44.8c0-8-2.7-12.7-9.7-12.7s-10,4.7-10,12.7v47.2c0,8,3.2,13,10,13s9.7-4.4,9.7-15.3ZM227.4,838v39.2c5-5,11.5-8.3,20.9-8.3,21.5,0,32.4,15.3,32.4,41.9v60.2c0,26.3-15.9,43.4-41.9,43.4s-41.9-17.1-41.9-43.4v-18.6c0-1.8,1.2-3.2,2.9-3.8l26-7.7c1.8-.6,3,.3,3,2.1v28c0,8,2.9,12.7,10,12.7s9.7-4.7,9.7-12.7v-60.2c0-8.3-2.9-13-9.7-13-10.3,0-10.3,10.6-11.5,21.8,0,1.8-1.2,2.7-3,2.1l-24.5-7.1c-1.8-.6-2.9-2.1-2.9-3.8v-103c0-1.8,1.2-3,2.9-3h73.7c1.8,0,2.9,1.2,2.9,3v27.1c0,1.8-1.2,2.9-2.9,2.9h-46.3ZM341,838v39.2c5-5,11.5-8.3,20.9-8.3,21.5,0,32.4,15.3,32.4,41.9v60.2c0,26.3-15.9,43.4-41.9,43.4s-41.9-17.1-41.9-43.4v-18.6c0-1.8,1.2-3.2,2.9-3.8l26-7.7c1.8-.6,3,.3,3,2.1v28c0,8,2.9,12.7,10,12.7s9.7-4.7,9.7-12.7v-60.2c0-8.3-2.9-13-9.7-13-10.3,0-10.3,10.6-11.5,21.8,0,1.8-1.2,2.7-3,2.1l-24.5-7.1c-1.8-.6-2.9-2.1-2.9-3.8v-103c0-1.8,1.2-3,2.9-3h73.7c1.8,0,2.9,1.2,2.9,3v27.1c0,1.8-1.2,2.9-2.9,2.9h-46.3ZM484.9,919.2c0,1.8-1.2,2.9-2.9,2.9h-54.9c-1.8,0-2.9-1.2-2.9-2.9v-25.1c0-1.8,1.2-2.9,2.9-2.9h54.9c1.8,0,2.9,1.2,2.9,2.9v25.1ZM530.4,848.6h-18.3c-1.8,0-2.9-1.2-2.9-2.9v-16.8c0-1.8.9-3.8,2.4-4.7l23.3-17.4c1.8-1.2,3.5-1.8,5.3-1.8h19.5c1.8,0,2.9,1.2,2.9,3v200.6c0,1.8-1.2,2.9-2.9,2.9h-26.3c-1.8,0-3-1.2-3-2.9v-159.9ZM593.5,957.5c0-1.8,1.2-3.2,2.9-3.8l24.8-7.4c1.8-.6,3,.3,3,2.4v22.4c0,8,2.9,12.7,10,12.7s9.7-4.7,9.7-12.7v-44.5c-4.4,5-10.6,8-19.8,8-20.7,0-31.9-15.3-31.9-41.9v-47.2c0-26.3,15.6-43.4,41.9-43.4s41.9,17.1,41.9,43.4v125.7c0,26.3-15.9,43.4-41.9,43.4s-40.7-17.1-40.7-43.4v-13.6ZM643.9,890.2v-44.8c0-8-2.7-12.7-9.7-12.7s-10,4.7-10,12.7v47.2c0,8,3.2,13,10,13s9.7-4.4,9.7-15.3ZM704.1,957.5c0-1.8,1.2-3.2,2.9-3.8l24.8-7.4c1.8-.6,3,.3,3,2.4v22.4c0,8,2.9,12.7,10,12.7s9.7-4.7,9.7-12.7v-44.5c-4.4,5-10.6,8-19.8,8-20.7,0-31.9-15.3-31.9-41.9v-47.2c0-26.3,15.6-43.4,41.9-43.4s41.9,17.1,41.9,43.4v125.7c0,26.3-15.9,43.4-41.9,43.4s-40.7-17.1-40.7-43.4v-13.6ZM754.5,890.2v-44.8c0-8-2.7-12.7-9.7-12.7s-10,4.7-10,12.7v47.2c0,8,3.2,13,10,13s9.7-4.4,9.7-15.3ZM846.9,838v39.2c5-5,11.5-8.3,20.9-8.3,21.5,0,32.4,15.3,32.4,41.9v60.2c0,26.3-15.9,43.4-41.9,43.4s-41.9-17.1-41.9-43.4v-18.6c0-1.8,1.2-3.2,2.9-3.8l26-7.7c1.8-.6,3,.3,3,2.1v28c0,8,2.9,12.7,10,12.7s9.7-4.7,9.7-12.7v-60.2c0-8.3-2.9-13-9.7-13-10.3,0-10.3,10.6-11.5,21.8,0,1.8-1.2,2.7-2.9,2.1l-24.5-7.1c-1.8-.6-2.9-2.1-2.9-3.8v-103c0-1.8,1.2-3,2.9-3h73.7c1.8,0,2.9,1.2,2.9,3v27.1c0,1.8-1.2,2.9-2.9,2.9h-46.3Z"/>
    </symbol>
  </defs>
  <use width="900.5" height="1014.4" xlink:href="#Mixtape_Stacked_Lockup_M"/>
</svg>