<?xml version="1.0" encoding="UTF-8"?>
<svg id="Layer_1" data-name="Layer 1" xmlns="http://www.w3.org/2000/svg" viewBox="0 0 900 397.2">
  <path d="M204.3,327.7c0,1.3.2,2.5.6,3.7l-7.5-.2-.7-3.7,7.5.2s0,0,0,0ZM324,349.4c-3.2,9.1-12.5,16.3-20.8,21-24.2,13.7-58.2,20.4-86.1,23.7-29.9,3.5-59.7,4-89.5,1.8-28.1-2-58.6-6.7-85.1-16.2-8.3-3-16.1-6.5-23.6-11.1-6-3.7-11.3-8.2-15.2-14-5-7.3-4.9-16.3,0-23.7,6.7-10,18.8-16.9,29.8-21.6,22.3-9.6,48.9-15,73.1-17.8,33-3.9,66.3-4.3,99.4-1.3,24.3,2.2,52,6.8,74.9,15,12.2,4.4,27.5,11.1,36.3,20.5,6.3,6.8,10,14.7,6.8,23.8ZM312.8,332.5c-5.2-3-10.5-5.1-16.2-7.1-9-2.8-17.8-5.1-27.4-6.8,3.9,3.9,7.1,7.9,9.2,12.7l25.7,3c5.2.8,10.1,1.8,15.1,3.3-1.8-2.3-4-3.6-6.3-5.1ZM240,356.5l-.5-.9c.8-.8,1.5-1.7,2-2.7,11.4-.5,22.7-1.2,34.2-2.2,1.9-5.2,1.8-10.7,0-15.9l-36.2-2.2c1-.9,1.6-2.2,1.7-3.6l32.7,1.9c-3.2-6-7.7-10.2-12.7-13.8-13.5-2.1-26.8-4-40.5-5,1.3,1.5,2.4,3,3.5,4.5-1.6,0-3.2,0-4.8,0-1.4-1.7-2.8-3.4-4.4-4.9-10.8-.8-21.2-1.3-32.1-1.6.9,2.6,1.6,5.2,2.2,7.8-.9-.8-2.1-1.3-3.4-1.3h-.3c-.2,0-.4,0-.5,0-.6-2.2-1.2-4.4-2.1-6.6h-32.6c-.8,2.3-1.5,4.5-2.1,6.8-.9,0-2.3,0-3.9,0,.5-2.2,1.1-4.4,1.9-6.6-10.8.2-21.4.8-32.1,1.6-1.6,1.6-3.1,3.2-4.5,5-1.6,0-3.2,0-4.7,0,1.1-1.5,2.2-3,3.5-4.4-13.7,1.1-26.9,2.7-40.4,5-5.2,3.6-9.7,8.2-12.8,13.9l31.6-1.9-.7,3.8-32.7,2c-2,5.2-2,10.7,0,15.9l32.7,1.9v3.7l-30.9-1.8c3.1,5.7,7.6,10.2,12.8,13.9,13.4,2.1,26.6,4,40.4,4.9-1.3-1.6-2.4-3.1-3.5-4.7h4.7c1.5,1.8,3,3.6,4.7,5.2l32,1.6c-.8-2.3-1.4-4.6-1.9-6.8h3.9c.6,2.3,1.3,4.7,2.2,7h32.6c.9-2.4,1.6-4.7,2.2-7,1.8,0,3.3,0,3.3,0h.5c-.6,2.3-1.2,4.6-1.9,6.9,10.9-.4,21.4-.8,32.1-1.7,1.7-1.6,3.2-3.4,4.6-5.2h4.7c-1.1,1.6-2.3,3.2-3.7,4.7,13.9-.9,27.1-2.8,40.7-5,5.3-3.8,9.5-8.2,12.6-13.8l-34,2ZM224,296l1.4.4c13.2,3.7,26.3,9.1,37.6,17.2,10.8,1.9,21.3,4.2,31.8,7.4,7.3,2.2,14,4.9,20.8,8.7-1.4-2.5-3.7-3.9-5.7-5.7-5.3-4.2-11.1-7.4-17.3-10.2-20.4-9.2-44.6-14.4-66.8-17.7-.7-.1-1.2-.6-1.8,0ZM194.3,293.9c8.3,3.6,16,7.9,22.5,14.1,12.3.9,24.3,2.4,36.8,4-7.1-4.3-14.5-7.2-22.3-10-12-3.9-24.2-6.7-37-8.2ZM172.7,292.4c4.2,4.1,6.7,8.7,8.9,13.8l28.8,1.3c-2.6-2.3-5.4-4.1-8.5-5.8-9-5-18.8-8.1-29.2-9.3ZM155.4,294.9c-3.4,3-5.7,7-7.5,11.3h29.5c-2-4.6-4.5-8.8-8.3-11.9-4.2-3.4-9.7-3-13.7.6ZM152.6,292.5c-9.7,1-18.7,3.8-27.3,8.2-3.8,1.9-7.3,4.1-10.6,6.9l28.9-1.3,3.3-6.8c1.5-2.6,3.3-4.9,5.6-7.1ZM95.8,301.5c-8.4,2.8-16.5,5.9-24.1,10.5,12.4-1.6,24.2-3.1,36.6-4,6.7-6.3,14.3-10.6,22.6-14.1-12.1,1.4-23.6,4-35.1,7.5ZM8.9,330c.6.4.7-.3.9-.4,6-3.5,12.2-5.9,18.8-8.1,11-3.5,22.1-6,33.5-7.9,4.3-3.1,8.5-5.6,13.2-7.9,8.3-4.2,17-7.1,25.8-9.8-21.9,2.9-45.3,7.9-65.5,16.5-9.3,4-19,9.2-25.8,16.7l-.9.9ZM6.2,337.5c4.8-1.2,9.1-2.3,13.9-3,9-1.5,17.6-2.4,26.6-3.2,2.1-4.9,5.3-8.8,9.3-12.7-9,1.5-17.3,3.7-25.7,6.2-6.1,2-11.9,4.2-17.4,7.3-2.5,1.5-4.9,2.9-6.7,5.3ZM4,342.6c1.1,1,2.5,1.4,4,1.9,4.3,1.4,8.3,2,12.7,2.8,8.2,1.3,16.3,2.2,24.6,2.9-1.5-5.2-1.4-10.2.2-15.2-7.5.7-14.6,1.5-21.9,2.5-4.8.8-9.3,1.5-13.9,2.8-1.9.5-3.7,1.1-5.6,2.2ZM6,348c2.6,3,5.6,4.6,8.7,6.4,5.6,2.8,11.3,4.9,17.4,6.8,7.9,2.3,15.6,4.3,23.9,5.7-4.2-3.9-7.1-7.9-9.4-12.7l-23.5-2.7c-5.9-.8-11.5-1.9-17.2-3.5ZM100.5,389.3c-13.9-4.1-26.7-9.2-38.6-17.6-12.9-2.3-25.7-4.9-38-9.4-4.7-1.8-9.2-3.6-13.5-6.1-.5-.3-.8-.7-1.5-.8.2.6.7.8,1,1.1,5.2,6,13.6,10.8,21,14.3,14.4,6.9,30.7,11.2,46.3,14.6,7.8,1.5,15.3,2.9,23.2,3.8ZM130.8,391.4c-8.6-3.6-16-7.9-22.5-14-12.5-1-24.6-2.3-36.8-4.1,6.9,4.2,14,7.1,21.5,9.7,12.4,4.1,25,7.1,37.9,8.4ZM152.3,392.9l-2.3-2.6c-2.7-3.4-4.7-7.1-6.4-11.1l-28.8-1.4c5.2,4.2,10.7,7.2,16.7,9.7,6.8,2.7,13.7,4.4,20.9,5.3ZM177.3,379.3h-29.4c2.2,5,5.3,10.1,9.9,12.8,3,1.7,6.4,1.8,9.5.1,4.8-2.7,7.8-8,10.1-12.9ZM172.9,392.9c13.7-1.7,27-6.5,37.6-15l-28.9,1.4c-1.6,3.8-3.3,7.4-5.9,10.4l-2.8,3.2ZM228.7,384.2c8.7-2.8,16.9-6,24.7-10.8-12.4,1.7-24.1,3.1-36.5,3.9-6.5,6.1-14,10.4-22.4,14,11.8-1.1,22.8-3.8,34.1-7.2ZM315.8,355.6l-6.3,3.3c-14.3,6.7-30.8,10-46.4,12.9-11.2,7.9-24,13.3-37.1,17.1-1,.1-1.8.3-2.7.7,1.1.1,2.1-.2,3.1-.4l24.7-4.4c17.3-3.9,35.8-9.2,51.1-18.1,3.7-2.2,7-4.5,10.2-7.4,1.3-1.1,2.4-2.1,3.4-3.7ZM319.2,347.9c-5,1.5-9.7,2.4-14.7,3.2l-26,3.1c-2.2,5-5.5,9-9.5,12.8,9.6-1.8,18.7-3.9,27.9-6.9,7.7-2.8,17-6.1,22.3-12.1ZM321.2,342.8c-1.6-1.1-3.1-1.8-4.8-2.1l-12.2-2.6-24.4-2.9c1.5,5,1.6,10,0,15.2l20.7-2.3,14.5-2.8c2.2-.4,4.1-1.2,6.1-2.4ZM86.9,333.6c0,.2.1.4.3.4h1.6c.2,0,.3-.1.3-.3l1-6.8h0l3.2,7c0,.1.1.2.3.2h.3c.2,0,.3,0,.3-.2l3.1-7h0l1.1,6.8c0,.1.2.3.3.3h1.6c.2,0,.4-.2.3-.4l-2.1-12c0-.1-.1-.3-.3-.3h-.3c-.2,0-.2,0-.3.2l-3.9,8.4h0l-3.9-8.4c0-.1-.2-.2-.3-.2h-.3c-.2,0-.3.1-.3.3l-2.1,12ZM109.1,329.2c0,2.7,2.2,4.9,5,4.9s5-2.2,5-4.9v-7.4c0-.2-.2-.3-.3-.3h-1.7c-.2,0-.3.2-.3.3v7.3c0,1.5-1.1,2.7-2.6,2.7s-2.6-1.2-2.6-2.7v-7.3c0-.2-.1-.3-.3-.3h-1.7c-.2,0-.3.2-.3.3v7.4ZM127.7,332.7c.4.3,1.7,1.4,3.9,1.4s4.1-1.7,4.1-3.5-2-3.3-3.7-4c-1.4-.6-2.1-1.2-2.1-2s.6-1.2,1.6-1.2,2.3.9,2.5,1c.2.1.5,0,.6-.2l.7-1c.1-.2,0-.5-.1-.6-.4-.3-1.7-1.2-3.6-1.2-2.8,0-4,1.8-4,3.4s1.7,3.2,3.4,3.9c1.5.6,2.3,1.2,2.3,2.1s-.7,1.4-1.6,1.4-2.6-1.1-2.7-1.1c-.2-.1-.5-.1-.6.1l-.6,1.1c-.2.3,0,.4,0,.5ZM144.3,333.6c0,.2.1.3.3.3h7.3c.2,0,.3-.2.3-.3v-1.5c0-.2-.1-.3-.3-.3h-5.3v-3.1h4.4c.2,0,.3-.1.3-.3v-1.5c0-.2-.2-.3-.3-.3h-4.4v-2.9h5.3c.2,0,.3-.2.3-.3v-1.5c0-.2-.1-.3-.3-.3h-7.3c-.2,0-.3.2-.3.3v11.8ZM160.8,329.2c0,2.7,2.2,4.9,5,4.9s5-2.2,5-4.9v-7.4c0-.2-.2-.3-.3-.3h-1.7c-.2,0-.3.2-.3.3v7.3c0,1.5-1.1,2.7-2.6,2.7s-2.6-1.2-2.6-2.7v-7.3c0-.2-.1-.3-.3-.3h-1.7c-.2,0-.3.2-.3.3v7.4ZM179,333.6c0,.2.1.4.3.4h1.6c.2,0,.3-.1.3-.3l1-6.8h0l3.2,7c0,.1.1.2.3.2h.3c.2,0,.3,0,.3-.2l3.1-7h0l1.1,6.8c0,.1.2.3.3.3h1.6c.2,0,.4-.2.3-.4l-2.1-12c0-.1-.1-.3-.3-.3h-.3c-.2,0-.2,0-.3.2l-3.9,8.4h0l-3.9-8.4c0-.1-.2-.2-.3-.2h-.3c-.2,0-.3.1-.3.3l-2.1,12ZM209.2,327.7c0,3.6,2.8,6.4,6.4,6.4s6.4-2.8,6.4-6.4-2.9-6.4-6.4-6.4-6.4,2.9-6.4,6.4ZM211.5,327.7c0-2.2,1.8-4.1,4.1-4.1s4.1,1.9,4.1,4.1-1.9,4.1-4.1,4.1-4.1-1.8-4.1-4.1ZM229.3,333.6c0,.2.1.3.3.3h1.6c.2,0,.3-.2.3-.3v-4.5h4.4c.2,0,.3-.2.3-.3v-1.5c0-.2-.2-.3-.3-.3h-4.4v-3.4h5.3c.2,0,.3-.2.3-.3v-1.5c0-.2-.1-.3-.3-.3h-7.3c-.2,0-.3.2-.3.3v11.8ZM86.9,363.1c0,.3.3.7.7.7h8.3c4.2,0,7.5-2.8,7.5-6.6s-2.6-5-4.5-5.6c1.6-.8,3.8-2.8,3.8-5.5s-3.2-6.4-7.3-6.4h-7.9c-.4,0-.7.3-.7.7v22.8ZM91.3,349.8v-6h3.7c1.8,0,3,1.2,3,2.9s-1.2,3.1-3,3.1h-3.7ZM91.3,359.7v-6.1h3.7c1.8,0,3.5,1.3,3.5,3s-1.4,3.1-3.1,3.1h-4.2ZM105.9,351.8c0,6.9,5.5,12.3,12.3,12.3s12.4-5.5,12.4-12.3-5.5-12.4-12.4-12.4-12.3,5.5-12.3,12.4ZM110.3,351.8c0-4.3,3.5-7.9,7.9-7.9s7.9,3.6,7.9,7.9-3.6,7.9-7.9,7.9-7.9-3.5-7.9-7.9ZM134.3,354.7c0,5.2,4.2,9.5,9.6,9.5s9.6-4.2,9.6-9.5v-14.3c0-.3-.3-.7-.7-.7h-3.3c-.4,0-.7.3-.7.7v14.1c0,2.9-2,5.2-5,5.2s-5-2.3-5-5.2v-14.1c0-.3-.3-.7-.7-.7h-3.3c-.3,0-.7.3-.7.7v14.3ZM158.9,363.1c0,.3.3.7.7.7h12.6c.4,0,.7-.3.7-.7v-2.8c0-.3-.3-.7-.7-.7h-8.8v-19.3c0-.3-.3-.7-.7-.7h-3.2c-.4,0-.7.3-.7.7v22.8ZM175.6,363.1c0,.3.3.7.6.7h8.2c6.6,0,12.1-5.4,12.1-12.1s-5.4-12-12.1-12h-8.2c-.3,0-.6.3-.6.7v22.8ZM180.1,359.6v-15.7h3.9c4.5,0,7.7,3.4,7.7,7.8s-3.3,7.9-7.7,7.9h-3.9ZM200.5,363.1c0,.3.3.7.7.7h14c.4,0,.7-.3.7-.7v-2.8c0-.3-.3-.7-.7-.7h-10.2v-6h8.5c.3,0,.7-.3.7-.7v-2.9c0-.3-.3-.7-.7-.7h-8.5v-5.6h10.2c.4,0,.7-.3.7-.7v-2.8c0-.3-.3-.7-.7-.7h-14c-.4,0-.7.3-.7.7v22.8ZM220.3,363.1c0,.3.3.7.7.7h3.2c.3,0,.7-.3.7-.7v-8.8h3.8l4.6,9.1c0,.1.2.3.6.3h3.6c.6,0,.8-.6.6-1l-4.7-8.7c3-1.2,5.1-3.8,5.1-6.9s-3.4-7.4-7.5-7.4h-9.8c-.4,0-.7.3-.7.7v22.8ZM224.8,350.7v-6.8h5.6c1.8,0,3.4,1.5,3.4,3.3s-1.6,3.5-3.4,3.5h-5.6Z" fill="#fff"/>
  <g>
    <path d="M769.3,123.6H.4C.2,123.6,0,123.8,0,124v118.6C0,248.1,2.3,249.8,7.6,249.8s125.2,0,125.2,0c0,0,756,0,761.6,0s5.6-1.4,5.6-7.8v-118.3h-130.7ZM892,244.2h-436.1c-1.1,0-2-.9-2-1.9v-110.6c0-1.3,1.1-2.4,2.4-2.4h435.7c1.3,0,2.4,1.1,2.4,2.4v110.2c0,1.3-1.1,2.4-2.4,2.4ZM8,129.2h438.3c1.1,0,2,.9,2,1.9v110.6c0,1.3-1.1,2.4-2.4,2.4H8c-1.3,0-2.4-1.1-2.4-2.4v-110.2c0-1.3,1.1-2.4,2.4-2.4Z" fill="#fff"/>
    <g>
      <path d="M36,172c0-6.2,3.6-10.2,9.6-10.2s9.8,4,9.8,10.2v6.3c0,6.2-.8,7.3-5.1,15l-5.4,9.9h9.8c.4,0,.7.3.7.7v6.4c0,.4-.3.7-.7.7h-18.3c-.4,0-.7-.3-.7-.7v-4.8c0-.4.1-1,.3-1.3l8.6-15.8c2.8-5.2,3.2-6.4,3.2-10.9v-5.5c0-1.9-.7-3-2.3-3s-2.4,1.1-2.4,3v9.6c0,.4-.3.6-.7.5l-5.9-1.7c-.4-.1-.7-.5-.7-.9v-7.6Z" fill="#fff"/>
      <path d="M66.2,172c0-6.2,3.6-10.2,9.6-10.2s9.8,4,9.8,10.2v6.3c0,6.2-.8,7.3-5.1,15l-5.4,9.9h9.8c.4,0,.7.3.7.7v6.4c0,.4-.3.7-.7.7h-18.3c-.4,0-.7-.3-.7-.7v-4.8c0-.4.1-1,.3-1.3l8.6-15.8c2.8-5.2,3.2-6.4,3.2-10.9v-5.5c0-1.9-.7-3-2.3-3s-2.4,1.1-2.4,3v9.6c0,.4-.3.6-.7.5l-5.9-1.7c-.4-.1-.7-.5-.7-.9v-7.6Z" fill="#fff"/>
      <path d="M96.1,201.6v-29.6c0-6.2,3.7-10.2,9.8-10.2s9.8,4,9.8,10.2v29.6c0,6.2-3.7,10.1-9.8,10.1s-9.8-3.9-9.8-10.1ZM103.6,189.6l4.6-16.6v-1c0-1.8-.7-3-2.3-3s-2.4,1.2-2.4,3v17.5ZM108.2,201.6v-17.5l-4.6,16.6v1c0,1.8.8,3,2.4,3s2.3-1.2,2.3-3Z" fill="#fff"/>
      <path d="M133.4,170.3v9.2c1.2-1.2,2.7-1.9,4.9-1.9,5.1,0,7.6,3.6,7.6,9.8v14.1c0,6.2-3.7,10.2-9.8,10.2s-9.8-4-9.8-10.2v-4.4c0-.4.3-.8.7-.9l6.1-1.8c.4-.1.7,0,.7.5v6.6c0,1.9.7,3,2.4,3s2.3-1.1,2.3-3v-14.1c0-1.9-.7-3-2.3-3-2.4,0-2.4,2.5-2.7,5.1,0,.4-.3.6-.7.5l-5.8-1.7c-.4-.1-.7-.5-.7-.9v-24.2c0-.4.3-.7.7-.7h17.3c.4,0,.7.3.7.7v6.4c0,.4-.3.7-.7.7h-10.9Z" fill="#fff"/>
      <path d="M173.7,163.2c0-.4.3-.7.7-.7h7.7c9.4,0,12,4.8,12,12.4s-1.1,8.7-4.3,10.3c3.5,1.9,4.9,5.8,4.9,12.1s-2.4,13.6-11.3,13.6h-8.9c-.4,0-.7-.3-.7-.7v-47.1ZM181.2,182.1h.4c4.4,0,4.9-1.8,4.9-6.2s-.4-6-4.9-6h-.4v12.2ZM182.2,203.6c4.4,0,4.8-2.1,4.8-7.2s-.4-7.1-4.8-7.1h-1v14.3h1Z" fill="#fff"/>
      <path d="M226.8,210.4c0,.4-.1.6-.6.6h-6.6c-.4,0-.8-.2-.8-.6l-3.8-17.8h-2.4v17.7c0,.4-.3.7-.7.7h-6.1c-.4,0-.7-.3-.7-.7v-47.1c0-.4.3-.7.7-.7h8.6c8.9,0,11.3,5.9,11.3,15.1s-.9,10-3.7,12.5l4.9,20.2ZM212.6,185.1h.6c4.4,0,4.8-2,4.8-7.4s-.5-7.6-4.8-7.6h-.6v15Z" fill="#fff"/>
      <path d="M236.6,201.3v-29.1c0-6.3,3.7-10.4,10-10.4s10,4.1,10,10.4v29.1c0,6.3-3.8,10.4-10,10.4s-10-4.1-10-10.4ZM249.2,201.3v-29.1c0-1.9-.8-3-2.5-3s-2.6,1.2-2.6,3v29.1c0,1.9.8,3,2.6,3s2.5-1.2,2.5-3Z" fill="#fff"/>
      <path d="M285.8,182c.6,2.2.8,3.7.8,6.2v22.1c0,.4-.3.7-.7.7h-6.2c-.4,0-.7-.3-.7-.7v-14.1h-5.1v14.1c0,.4-.3.7-.7.7h-6.1c-.4,0-.7-.3-.7-.7v-22.1c0-2.6.2-3.9.8-6.2l4.5-18.8c0-.4.4-.7.8-.7h7.8c.4,0,.8.3.8.7l4.6,18.8ZM279,188.9c0-2.4-.2-3.9-.6-6.2l-1.7-8.7-.2-2.4-.2,2.4-1.7,8.7c-.5,2.3-.7,3.7-.7,6.2h5.1Z" fill="#fff"/>
      <path d="M297,163.2c0-.4.3-.7.7-.7h8.6c7.8,0,11.4,3.9,11.4,17v14.5c0,13.2-3.6,17-11.4,17h-8.6c-.4,0-.7-.3-.7-.7v-47.1ZM304.5,203.6h.7c4.4,0,4.8-1.9,4.8-9v-15.7c0-7.1-.5-9-4.8-9h-.7v33.7Z" fill="#fff"/>
      <path d="M340.5,210.3c0,.4-.3.7-.8.7h-7.4c-.4,0-.7-.3-.8-.7l-4.7-47.1c0-.4.2-.7.6-.7h6.2c.4,0,.8.3.8.7l2.6,32.5.2-3,3.1-29.4c0-.4.3-.7.8-.7h5.1c.4,0,.7.3.8.7l3.1,29.4.2,3,2.6-32.5c0-.4.3-.7.8-.7h6.2c.4,0,.7.3.6.7l-4.7,47.1c0,.4-.3.7-.8.7h-7.4c-.4,0-.7-.3-.8-.7l-3-27.2v-2.8c-.1,0-.3,2.8-.3,2.8l-3,27.2Z" fill="#fff"/>
      <path d="M389,182c.6,2.2.8,3.7.8,6.2v22.1c0,.4-.3.7-.7.7h-6.2c-.4,0-.7-.3-.7-.7v-14.1h-5.1v14.1c0,.4-.3.7-.7.7h-6.1c-.4,0-.7-.3-.7-.7v-22.1c0-2.6.2-3.9.8-6.2l4.5-18.8c0-.4.4-.7.8-.7h7.8c.4,0,.8.3.8.7l4.6,18.8ZM382.2,188.9c0-2.4-.2-3.9-.6-6.2l-1.7-8.7-.2-2.4-.2,2.4-1.7,8.7c-.5,2.3-.7,3.7-.7,6.2h5.1Z" fill="#fff"/>
      <path d="M405.7,211c-.4,0-.7-.3-.7-.7v-11.3l-5.3-12.5c-1-2.6-1-5.3-1-7.8v-15.4c0-.4.3-.7.7-.7h6.1c.4,0,.7.3.7.7v15.9c0,2.5,0,4,.6,5.5l1.7,4.6.3,1.5.3-1.5,1.7-4.6c.6-1.5.6-3,.6-5.5v-15.9c0-.4.3-.7.7-.7h6.2c.4,0,.7.3.7.7v15.4c0,2.5,0,5.3-1,7.8l-5.3,12.5v11.3c0,.4-.3.7-.7.7h-6.2Z" fill="#fff"/>
    </g>
    <g>
      <path d="M505,163.2c0-.4.3-.7.7-.7h7.7c9.4,0,12,4.8,12,12.4s-1.1,8.7-4.3,10.3c3.5,1.9,4.9,5.8,4.9,12.1s-2.4,13.6-11.3,13.6h-8.9c-.4,0-.7-.3-.7-.7v-47.1ZM512.5,182.1h.4c4.4,0,4.9-1.8,4.9-6.2s-.4-6-4.9-6h-.4v12.2ZM513.5,203.6c4.4,0,4.8-2.1,4.8-7.2s-.4-7.1-4.8-7.1h-1v14.3h1Z" fill="#fff"/>
      <path d="M535.7,201.3v-29.1c0-6.3,3.7-10.4,10-10.4s10,4.1,10,10.4v29.1c0,6.3-3.8,10.4-10,10.4s-10-4.1-10-10.4ZM548.2,201.3v-29.1c0-1.9-.8-3-2.5-3s-2.6,1.2-2.6,3v29.1c0,1.9.8,3,2.6,3s2.5-1.2,2.5-3Z" fill="#fff"/>
      <path d="M585.6,162.5c.4,0,.7.3.7.7v38.1c0,6.3-3.8,10.4-10,10.4s-10-4.1-10-10.4v-38.1c0-.4.3-.7.7-.7h6.1c.4,0,.7.3.7.7v38.1c0,1.9.8,3,2.6,3s2.5-1.2,2.5-3v-38.1c0-.4.3-.7.7-.7h6.2Z" fill="#fff"/>
      <path d="M597.5,211c-.4,0-.7-.3-.7-.7v-47.1c0-.4.3-.7.7-.7h6.1c.4,0,.7.3.7.7v40h9.3c.4,0,.7.3.7.7v6.4c0,.4-.3.7-.7.7h-16.1Z" fill="#fff"/>
      <path d="M623.4,163.2c0-.4.3-.7.7-.7h8.6c7.8,0,11.4,3.9,11.4,17v14.5c0,13.2-3.6,17-11.4,17h-8.6c-.4,0-.7-.3-.7-.7v-47.1ZM630.9,203.6h.7c4.4,0,4.8-1.9,4.8-9v-15.7c0-7.1-.5-9-4.8-9h-.7v33.7Z" fill="#fff"/>
      <path d="M655.3,211c-.4,0-.7-.3-.7-.7v-47.1c0-.4.3-.7.7-.7h15.8c.4,0,.7.3.7.7v6.4c0,.4-.3.7-.7.7h-9v12.4h6.3c.4,0,.7.3.7.7v6.2c0,.4-.3.7-.7.7h-6.3v13h9c.4,0,.7.3.7.7v6.4c0,.4-.3.7-.7.7h-15.8Z" fill="#fff"/>
      <path d="M703.3,210.4c0,.4-.1.6-.6.6h-6.6c-.4,0-.8-.2-.8-.6l-3.8-17.8h-2.4v17.7c0,.4-.3.7-.7.7h-6.1c-.4,0-.7-.3-.7-.7v-47.1c0-.4.3-.7.7-.7h8.6c8.9,0,11.3,5.9,11.3,15.1s-.9,10-3.7,12.5l4.9,20.2ZM689.1,185.1h.6c4.4,0,4.8-2,4.8-7.4s-.5-7.6-4.8-7.6h-.6v15Z" fill="#fff"/>
      <path d="M749.8,191.8c.4.1.7.5.7.9v8.6c0,6.3-3.8,10.4-10,10.4s-10-4.1-10-10.4v-29.1c0-6.3,3.7-10.4,10-10.4s10,4.1,10,10.4v8.6c0,.4-.3.8-.7.9l-6,1.7c-.4.1-.7,0-.7-.5v-10.7c0-1.9-.8-3-2.6-3s-2.6,1.2-2.6,3v29.1c0,1.9.9,3,2.6,3s2.6-1.2,2.6-3v-10.7c0-.4.3-.6.7-.5l6,1.7Z" fill="#fff"/>
      <path d="M761,201.3v-29.1c0-6.3,3.7-10.4,10-10.4s10,4.1,10,10.4v29.1c0,6.3-3.8,10.4-10,10.4s-10-4.1-10-10.4ZM773.5,201.3v-29.1c0-1.9-.8-3-2.5-3s-2.6,1.2-2.6,3v29.1c0,1.9.8,3,2.6,3s2.5-1.2,2.5-3Z" fill="#fff"/>
      <path d="M792.2,211c-.4,0-.7-.3-.7-.7v-47.1c0-.4.3-.7.7-.7h6.1c.4,0,.7.3.7.7v40h9.3c.4,0,.7.3.7.7v6.4c0,.4-.3.7-.7.7h-16.1Z" fill="#fff"/>
      <path d="M816.8,201.3v-29.1c0-6.3,3.7-10.4,10-10.4s10,4.1,10,10.4v29.1c0,6.3-3.8,10.4-10,10.4s-10-4.1-10-10.4ZM829.3,201.3v-29.1c0-1.9-.8-3-2.5-3s-2.6,1.2-2.6,3v29.1c0,1.9.8,3,2.6,3s2.5-1.2,2.5-3Z" fill="#fff"/>
      <path d="M850.6,202c2.6,0,4.8,2.1,4.8,4.9s-2.1,4.8-4.8,4.8-4.6-2.1-4.6-4.8,2-4.9,4.6-4.9Z" fill="#fff"/>
    </g>
  </g>
  <path d="M52,99.6c-.6,0-1-.4-1-1V32.6c0-.6.4-1,1-1h8.5c.6,0,1,.4,1,1v56.2h13c.6,0,1,.4,1,1v8.9c0,.6-.4,1-1,1h-22.6ZM95.2,86v-40.8c0-8.8,5.2-14.6,14.1-14.6s14.1,5.7,14.1,14.6v40.8c0,8.8-5.4,14.6-14.1,14.6s-14.1-5.7-14.1-14.6ZM112.8,86v-40.8c0-2.6-1.1-4.3-3.5-4.3s-3.6,1.7-3.6,4.3v40.8c0,2.6,1.2,4.3,3.6,4.3s3.5-1.7,3.5-4.3ZM173.1,72.7c.6.2,1,.7,1,1.3v12c0,8.8-5.4,14.6-14.1,14.6s-14.1-5.7-14.1-14.6v-40.8c0-8.8,5.2-14.6,14.1-14.6s14.1,5.7,14.1,14.6v12.1c0,.6-.4,1.1-1,1.3l-8.5,2.3c-.6.2-1-.1-1-.7v-15c0-2.6-1.1-4.3-3.6-4.3s-3.7,1.7-3.7,4.3v40.8c0,2.6,1.3,4.3,3.7,4.3s3.6-1.7,3.6-4.3v-15c0-.6.4-.9,1-.7l8.5,2.3ZM223.7,58.9c.8,3.1,1.1,5.2,1.1,8.7v31c0,.6-.4,1-1,1h-8.7c-.6,0-1-.4-1-1v-19.7h-7.1v19.7c0,.6-.4,1-1,1h-8.6c-.6,0-1-.4-1-1v-31c0-3.6.3-5.5,1.1-8.7l6.3-26.3c0-.6.6-1,1.2-1h11c.6,0,1.1.4,1.2,1l6.4,26.3ZM214.2,68.5c0-3.4-.3-5.4-.9-8.7l-2.3-12.3-.3-3.3-.3,3.3-2.3,12.3c-.7,3.2-1,5.2-1,8.7h7.1ZM249.2,99.6c-.6,0-1-.4-1-1V32.6c0-.6.4-1,1-1h8.5c.6,0,1,.4,1,1v56.2h13c.6,0,1,.4,1,1v8.9c0,.6-.4,1-1,1h-22.5ZM382.1,100.6c-.6,0-1-.4-1-1V31.6c0-.6.4-1,1-1h8.8c.6,0,1,.4,1,1v57.8h13.4c.6,0,1,.4,1,1v9.2c0,.6-.4,1-1,1h-23.2ZM429.5,100.6c-.6,0-1-.4-1-1V31.6c0-.6.4-1,1-1h8.8c.6,0,1,.4,1,1v68c0,.6-.4,1-1,1h-8.8ZM484.8,99.5c-.2.6-.7,1.1-1.4,1.1h-10.7c-.7,0-1.2-.5-1.4-1.1l-6.6-27c-.8-3.3-1.1-5.3-1.1-9v-31.9c0-.6.4-1,1-1h8.8c.6,0,1,.4,1,1v29.9c0,3.7,0,5.7.9,9l2.5,12.5.3,3.4.3-3.4,2.4-12.5c.6-3.3.9-5.3.9-9v-29.9c0-.6.4-1,1-1h8.9c.6,0,1,.4,1,1v31.9c0,3.7-.3,5.8-1.1,9l-6.7,27ZM517.7,100.6c-.6,0-1-.4-1-1V31.6c0-.6.4-1,1-1h22.8c.6,0,1,.4,1,1v9.2c0,.6-.4,1-1,1h-13v17.9h9.1c.6,0,1,.4,1,1v8.9c0,.6-.4,1-1,1h-9.1v18.8h13c.6,0,1,.4,1,1v9.2c0,.6-.4,1-1,1h-22.8ZM660.5,99.6c-.6,0-1-.4-1-1V32.6c0-.6.4-1,1-1h8.6c.6,0,1,.4,1,1v56.2h13c.6,0,1,.4,1,1v8.9c0,.6-.4,1-1,1h-22.6ZM703.7,86v-40.8c0-8.8,5.2-14.6,14.1-14.6s14.1,5.7,14.1,14.6v40.8c0,8.8-5.4,14.6-14.1,14.6s-14.1-5.7-14.1-14.6ZM721.3,86v-40.8c0-2.6-1.1-4.3-3.5-4.3s-3.6,1.7-3.6,4.3v40.8c0,2.6,1.2,4.3,3.6,4.3s3.5-1.7,3.5-4.3ZM782.6,31.6c.6,0,1,.4,1,1v53.5c0,8.8-5.3,14.6-14.1,14.6s-14.1-5.7-14.1-14.6v-53.5c0-.6.4-1,1-1h8.5c.6,0,1,.4,1,1v53.5c0,2.6,1.2,4.3,3.6,4.3s3.5-1.7,3.5-4.3v-53.5c0-.6.4-1,1-1h8.7ZM807,32.6c0-.6.4-1,1-1h12.1c11,0,16,5.4,16,23.8v20.4c0,18.5-5.1,23.8-16,23.8h-12.1c-.6,0-1-.4-1-1V32.6ZM817.5,89.2h1c6.1,0,6.8-2.6,6.8-12.6v-22c0-10-.7-12.6-6.8-12.6h-1v47.2ZM0,2.8v123.6C0,128,1.3,129.3,2.8,129.3h894.4c1.6,0,2.8-1.3,2.8-2.8V2.8C900,1.3,898.7,0,897.2,0H2.8C1.3,0,0,1.3,0,2.8ZM598.8,7.9v113.8c0,1.1-.9,2-2,2h-271c-1.1,0-2-.9-2-2V8.1c0-1.1.9-2,2-2l271-.2c1.1,0,2,.9,2,2ZM7.6,6.4l308.6-.3c1.1,0,2,.9,2,2v113.5c0,1.1-.9,2-2,2H7.6c-1.1,0-2-.9-2-2V8.4c0-1.1.9-2,2-2ZM892.4,123.6h-286c-1.1,0-2-.9-2-2V7.9c0-1.1.9-2,2-2l286-.3c1.1,0,2,.9,2,2v114c0,1.1-.9,2-2,2Z" fill="#fff"/>
</svg>