<?xml version="1.0" encoding="UTF-8"?>
<svg id="Layer_1" data-name="Layer 1" xmlns="http://www.w3.org/2000/svg" viewBox="0 0 900 368.3">
  <path d="M1.6,112.5c-1,0-1.6-.6-1.6-1.6V3.2c0-1,.6-1.6,1.6-1.6h13.9c1,0,1.6.6,1.6,1.6v91.6h21.2c1,0,1.6.6,1.6,1.6v14.6c0,1-.6,1.6-1.6,1.6H1.6ZM49.7,90.3V23.8C49.7,9.3,58.3,0,72.7,0s23,9.3,23,23.8v66.5c0,14.4-8.7,23.8-23,23.8s-23-9.3-23-23.8ZM78.4,90.3V23.8c0-4.3-1.7-7-5.7-7s-5.9,2.7-5.9,7v66.5c0,4.3,1.9,7,5.9,7s5.7-2.7,5.7-7ZM154.4,68.6c1,.3,1.6,1.1,1.6,2.1v19.6c0,14.4-8.7,23.8-23,23.8s-23-9.3-23-23.8V23.8C110.1,9.3,118.6,0,133.1,0s23,9.3,23,23.8v19.6c0,1-.6,1.7-1.6,2.1l-13.8,3.8c-.9.3-1.6-.2-1.6-1.1v-24.4c0-4.3-1.7-7-5.9-7s-6,2.7-6,7v66.5c0,4.3,2.1,7,6,7s5.9-2.7,5.9-7v-24.4c0-1,.6-1.4,1.6-1.1l13.8,3.8ZM214.6,46.1c1.3,5.1,1.7,8.4,1.7,14.3v50.5c0,1-.6,1.6-1.6,1.6h-14.1c-1,0-1.6-.6-1.6-1.6v-32.2h-11.6v32.2c0,1-.6,1.6-1.6,1.6h-13.9c-1,0-1.6-.6-1.6-1.6v-50.5c0-5.9.5-9,1.7-14.3l10.3-42.9c.2-1,1-1.6,1.9-1.6h17.9c1,0,1.7.6,1.9,1.6l10.5,42.9ZM199.1,61.8c0-5.5-.5-8.9-1.4-14.1l-3.8-20-.5-5.4-.5,5.4-3.8,20c-1.1,5.2-1.6,8.6-1.6,14.1h11.6ZM233.9,112.5c-1,0-1.6-.6-1.6-1.6V3.2c0-1,.6-1.6,1.6-1.6h13.9c1,0,1.6.6,1.6,1.6v91.6h21.2c1,0,1.6.6,1.6,1.6v14.6c0,1-.6,1.6-1.6,1.6h-36.7ZM285.6,131.5c-.8-.6-.8-1.4-.2-2.2,3.5-4.1,7.1-10,7.8-14.4.2-1-.5-1.4-1.4-1.4-5.2,0-9.7-4.1-9.7-10.3s4.1-10.9,10.5-10.9,12.4,5.4,12.4,15.5-8.6,21.4-14.3,26c-.8.6-1.6.5-2.4-.2l-2.7-2.1ZM351,112.5c-1,0-1.6-.6-1.6-1.6V3.2c0-1,.6-1.6,1.6-1.6h13.9c1,0,1.6.6,1.6,1.6v91.6h21.2c1,0,1.6.6,1.6,1.6v14.6c0,1-.6,1.6-1.6,1.6h-36.7ZM403.9,112.5c-1,0-1.6-.6-1.6-1.6V3.2c0-1,.6-1.6,1.6-1.6h13.9c1,0,1.6.6,1.6,1.6v107.7c0,1-.6,1.6-1.6,1.6h-13.9ZM469.2,110.7c-.3,1-1.1,1.7-2.2,1.7h-16.9c-1.1,0-1.9-.8-2.2-1.7l-10.5-42.8c-1.3-5.2-1.7-8.4-1.7-14.3V3.2c0-1,.6-1.6,1.6-1.6h13.9c1,0,1.6.6,1.6,1.6v47.4c0,5.9.2,9,1.4,14.3l4,19.8.5,5.4.5-5.4,3.8-19.8c.9-5.2,1.4-8.4,1.4-14.3V3.2c0-1,.6-1.6,1.6-1.6h14.1c1,0,1.6.6,1.6,1.6v50.5c0,5.9-.5,9.2-1.7,14.3l-10.6,42.8ZM499.1,112.5c-1,0-1.6-.6-1.6-1.6V3.2c0-1,.6-1.6,1.6-1.6h36.1c.9,0,1.6.6,1.6,1.6v14.6c0,.9-.6,1.6-1.6,1.6h-20.6v28.4h14.4c1,0,1.6.6,1.6,1.6v14.1c0,1-.6,1.6-1.6,1.6h-14.4v29.8h20.6c.9,0,1.6.6,1.6,1.6v14.6c0,1-.6,1.6-1.6,1.6h-36.1ZM614.3,53.4c.6.6.6,1.6,0,2.4l-7.6,8.1c-6.2,6.3-6.5,7.4-6.5,14.9v11.6c0,4.3,2.1,7,6.2,7s6-2.7,6-7v-14.9c0-.9.5-2.1,1.1-2.7l8.9-9.2c.6-.6,1.6-.6,2.4,0l10.1,9.7c.6.6.6,1.6,0,2.2l-4.4,4.8c-.6.6-1.1,1.7-1.1,2.7v7.4c0,14.4-8.7,23.8-23.1,23.8s-23.1-9.3-23.1-23.8v-13.5c0-11.1,2.9-15.8,9.2-22.3l.3-.3c-6.5-5.5-8.9-10.8-8.9-22v-7.9C583.7,9.5,592.1,0,606.5,0s22.8,9.5,22.8,24.2v12c0,1-.6,1.7-1.6,2.1l-14.1,4c-.9.3-1.6-.2-1.6-1.1v-17.3c0-4.4-1.7-7.1-5.7-7.1s-5.9,2.7-5.9,7v5.2c0,10.8.2,11.4,4.8,15.7l9,8.7ZM680.6,112.5c-1,0-1.6-.6-1.6-1.6V3.2c0-1,.6-1.6,1.6-1.6h13.9c1,0,1.6.6,1.6,1.6v91.6h21.2c1,0,1.6.6,1.6,1.6v14.6c0,1-.6,1.6-1.6,1.6h-36.7ZM728.8,90.3V23.8C728.8,9.3,737.3,0,751.7,0s23,9.3,23,23.8v66.5c0,14.4-8.7,23.8-23,23.8s-23-9.3-23-23.8ZM757.4,90.3V23.8c0-4.3-1.7-7-5.7-7s-5.9,2.7-5.9,7v66.5c0,4.3,1.9,7,5.9,7s5.7-2.7,5.7-7ZM835.1,1.6c1,0,1.6.6,1.6,1.6v87.1c0,14.4-8.7,23.8-23,23.8s-23-9.3-23-23.8V3.2c0-1,.6-1.6,1.6-1.6h13.9c1,0,1.6.6,1.6,1.6v87.1c0,4.3,1.9,7,5.9,7s5.7-2.7,5.7-7V3.2c0-1,.6-1.6,1.6-1.6h14.1ZM852.6,3.2c0-1,.6-1.6,1.6-1.6h19.6c17.9,0,26.1,8.9,26.1,38.8v33.3c0,30.1-8.2,38.8-26.1,38.8h-19.6c-1,0-1.6-.6-1.6-1.6V3.2ZM869.7,95.5h1.6c10,0,11.1-4.3,11.1-20.6v-35.8c0-16.3-1.1-20.6-11.1-20.6h-1.6v77ZM21.1,203.2H2.9c-1.8,0-2.9-1.2-2.9-2.9v-16.7c0-1.8.9-3.8,2.3-4.7l23.2-17.3c1.8-1.2,3.5-1.8,5.3-1.8h19.4c1.8,0,2.9,1.2,2.9,2.9v199.7c0,1.8-1.2,2.9-2.9,2.9h-26.1c-1.8,0-2.9-1.2-2.9-2.9v-159.2ZM79.8,311.6c0-1.8,1.2-3.2,2.9-3.8l24.7-7.3c1.8-.6,2.9.3,2.9,2.3v22.3c0,7.9,2.9,12.6,10,12.6s9.7-4.7,9.7-12.6v-44.3c-4.4,5-10.6,7.9-19.7,7.9-20.6,0-31.7-15.3-31.7-41.7v-47c0-26.1,15.6-43.2,41.7-43.2s41.7,17,41.7,43.2v125.1c0,26.1-15.9,43.2-41.7,43.2s-40.5-17-40.5-43.2v-13.5ZM130,244.6v-44.6c0-7.9-2.6-12.6-9.7-12.6s-10,4.7-10,12.6v47c0,7.9,3.2,12.9,10,12.9s9.7-4.4,9.7-15.3ZM217.9,192.6v39.1c5-5,11.5-8.2,20.8-8.2,21.4,0,32.3,15.3,32.3,41.7v59.9c0,26.1-15.9,43.2-41.7,43.2s-41.7-17-41.7-43.2v-18.5c0-1.8,1.2-3.2,2.9-3.8l25.8-7.6c1.8-.6,2.9.3,2.9,2.1v27.9c0,7.9,2.9,12.6,10,12.6s9.7-4.7,9.7-12.6v-59.9c0-8.2-2.9-12.9-9.7-12.9-10.3,0-10.3,10.6-11.5,21.7,0,1.8-1.2,2.6-2.9,2.1l-24.4-7c-1.8-.6-2.9-2.1-2.9-3.8v-102.5c0-1.8,1.2-2.9,2.9-2.9h73.4c1.8,0,2.9,1.2,2.9,2.9v27c0,1.8-1.2,2.9-2.9,2.9h-46.1ZM326.9,192.6v39.1c5-5,11.5-8.2,20.8-8.2,21.4,0,32.3,15.3,32.3,41.7v59.9c0,26.1-15.9,43.2-41.7,43.2s-41.7-17-41.7-43.2v-18.5c0-1.8,1.2-3.2,2.9-3.8l25.8-7.6c1.8-.6,2.9.3,2.9,2.1v27.9c0,7.9,2.9,12.6,10,12.6s9.7-4.7,9.7-12.6v-59.9c0-8.2-2.9-12.9-9.7-12.9-10.3,0-10.3,10.6-11.5,21.7,0,1.8-1.2,2.6-2.9,2.1l-24.4-7c-1.8-.6-2.9-2.1-2.9-3.8v-102.5c0-1.8,1.2-2.9,2.9-2.9h73.4c1.8,0,2.9,1.2,2.9,2.9v27c0,1.8-1.2,2.9-2.9,2.9h-46.1ZM466.2,273.4c0,1.8-1.2,2.9-2.9,2.9h-54.6c-1.8,0-2.9-1.2-2.9-2.9v-25c0-1.8,1.2-2.9,2.9-2.9h54.6c1.8,0,2.9,1.2,2.9,2.9v25ZM490.4,200c0-26.1,15.3-43.2,40.8-43.2s41.7,17,41.7,43.2v26.7c0,26.1-3.5,31.1-21.7,63.7l-22.9,42h41.7c1.8,0,2.9,1.2,2.9,2.9v27c0,1.8-1.2,2.9-2.9,2.9h-77.5c-1.8,0-2.9-1.2-2.9-2.9v-20.3c0-1.8.6-4.1,1.5-5.6l36.4-67c11.7-22,13.5-27.3,13.5-46.1v-23.5c0-7.9-2.9-12.6-9.7-12.6s-10,4.7-10,12.6v40.8c0,1.8-1.2,2.6-2.9,2.1l-25-7c-1.8-.6-2.9-2.1-2.9-3.8v-32ZM598.6,325.4v-125.4c0-26.1,15.6-43.2,41.7-43.2s41.7,17,41.7,43.2v125.4c0,26.1-15.9,42.9-41.7,42.9s-41.7-16.7-41.7-42.9ZM630.3,274.3l19.7-70.2v-4.1c0-7.6-2.9-12.6-9.7-12.6s-10,5-10,12.6v74.3ZM649.9,325.4v-74.3l-19.7,70.2v4.1c.3,7.6,3.2,12.6,10,12.6s9.7-5,9.7-12.6ZM707.6,325.4v-125.4c0-26.1,15.6-43.2,41.7-43.2s41.7,17,41.7,43.2v125.4c0,26.1-15.9,42.9-41.7,42.9s-41.7-16.7-41.7-42.9ZM739.3,274.3l19.7-70.2v-4.1c0-7.6-2.9-12.6-9.7-12.6s-10,5-10,12.6v74.3ZM759,325.4v-74.3l-19.7,70.2v4.1c.3,7.6,3.2,12.6,10,12.6s9.7-5,9.7-12.6ZM846.8,192.6v39.1c5-5,11.5-8.2,20.8-8.2,21.4,0,32.3,15.3,32.3,41.7v59.9c0,26.1-15.9,43.2-41.7,43.2s-41.7-17-41.7-43.2v-18.5c0-1.8,1.2-3.2,2.9-3.8l25.8-7.6c1.8-.6,2.9.3,2.9,2.1v27.9c0,7.9,2.9,12.6,10,12.6s9.7-4.7,9.7-12.6v-59.9c0-8.2-2.9-12.9-9.7-12.9-10.3,0-10.3,10.6-11.5,21.7,0,1.8-1.2,2.6-2.9,2.1l-24.4-7c-1.8-.6-2.9-2.1-2.9-3.8v-102.5c0-1.8,1.2-2.9,2.9-2.9h73.4c1.8,0,2.9,1.2,2.9,2.9v27c0,1.8-1.2,2.9-2.9,2.9h-46.1Z" fill="#fff"/>
</svg>