<?xml version="1.0" encoding="UTF-8"?>
<svg id="Layer_1" data-name="Layer 1" xmlns="http://www.w3.org/2000/svg" viewBox="0 0 897.9 129">
  <path d="M50.9,99.5c-.6,0-1-.4-1-1V32.5c0-.6.4-1,1-1h8.5c.6,0,1,.4,1,1v56.1h13c.6,0,1,.4,1,1v8.9c0,.6-.4,1-1,1h-22.5ZM94.1,85.9v-40.8c0-8.8,5.2-14.6,14.1-14.6s14.1,5.7,14.1,14.6v40.8c0,8.8-5.3,14.6-14.1,14.6s-14.1-5.7-14.1-14.6ZM111.6,85.9v-40.8c0-2.6-1.1-4.3-3.5-4.3s-3.6,1.7-3.6,4.3v40.8c0,2.6,1.2,4.3,3.6,4.3s3.5-1.7,3.5-4.3ZM171.9,72.6c.6.2,1,.7,1,1.3v12c0,8.8-5.3,14.6-14.1,14.6s-14.1-5.7-14.1-14.6v-40.8c0-8.8,5.2-14.6,14.1-14.6s14.1,5.7,14.1,14.6v12c0,.6-.4,1.1-1,1.3l-8.5,2.3c-.6.2-1-.1-1-.7v-15c0-2.6-1.1-4.3-3.6-4.3s-3.7,1.7-3.7,4.3v40.8c0,2.6,1.3,4.3,3.7,4.3s3.6-1.7,3.6-4.3v-15c0-.6.4-.9,1-.7l8.5,2.3ZM222.4,58.8c.8,3.1,1.1,5.1,1.1,8.7v31c0,.6-.4,1-1,1h-8.6c-.6,0-1-.4-1-1v-19.7h-7.1v19.7c0,.6-.4,1-1,1h-8.5c-.6,0-1-.4-1-1v-31c0-3.6.3-5.5,1.1-8.7l6.3-26.3c0-.6.6-1,1.2-1h11c.6,0,1.1.4,1.2,1l6.4,26.3ZM212.9,68.4c0-3.4-.3-5.4-.9-8.6l-2.3-12.2-.3-3.3-.3,3.3-2.3,12.2c-.7,3.2-1,5.2-1,8.6h7.1ZM247.9,99.5c-.6,0-1-.4-1-1V32.5c0-.6.4-1,1-1h8.5c.6,0,1,.4,1,1v56.1h13c.6,0,1,.4,1,1v8.9c0,.6-.4,1-1,1h-22.5ZM380.6,100.4c-.6,0-1-.4-1-1V31.5c0-.6.4-1,1-1h8.8c.6,0,1,.4,1,1v57.7h13.4c.6,0,1,.4,1,1v9.2c0,.6-.4,1-1,1h-23.2ZM428,100.4c-.6,0-1-.4-1-1V31.5c0-.6.4-1,1-1h8.8c.6,0,1,.4,1,1v67.9c0,.6-.4,1-1,1h-8.8ZM483.1,99.3c-.2.6-.7,1.1-1.4,1.1h-10.7c-.7,0-1.2-.5-1.4-1.1l-6.6-27c-.8-3.3-1.1-5.3-1.1-9v-31.9c0-.6.4-1,1-1h8.8c.6,0,1,.4,1,1v29.9c0,3.7,0,5.7.9,9l2.5,12.5.3,3.4.3-3.4,2.4-12.5c.6-3.3.9-5.3.9-9v-29.9c0-.6.4-1,1-1h8.9c.6,0,1,.4,1,1v31.9c0,3.7-.3,5.8-1.1,9l-6.7,27ZM516,100.4c-.6,0-1-.4-1-1V31.5c0-.6.4-1,1-1h22.8c.6,0,1,.4,1,1v9.2c0,.6-.4,1-1,1h-13v17.9h9.1c.6,0,1,.4,1,1v8.9c0,.6-.4,1-1,1h-9.1v18.8h13c.6,0,1,.4,1,1v9.2c0,.6-.4,1-1,1h-22.8ZM658.7,99.5c-.6,0-1-.4-1-1V32.5c0-.6.4-1,1-1h8.5c.6,0,1,.4,1,1v56.1h13c.6,0,1,.4,1,1v8.9c0,.6-.4,1-1,1h-22.5ZM701.8,85.9v-40.8c0-8.8,5.2-14.6,14.1-14.6s14.1,5.7,14.1,14.6v40.8c0,8.8-5.3,14.6-14.1,14.6s-14.1-5.7-14.1-14.6ZM719.4,85.9v-40.8c0-2.6-1.1-4.3-3.5-4.3s-3.6,1.7-3.6,4.3v40.8c0,2.6,1.2,4.3,3.6,4.3s3.5-1.7,3.5-4.3ZM780.6,31.5c.6,0,1,.4,1,1v53.4c0,8.8-5.3,14.6-14.1,14.6s-14.1-5.7-14.1-14.6v-53.4c0-.6.4-1,1-1h8.5c.6,0,1,.4,1,1v53.4c0,2.6,1.2,4.3,3.6,4.3s3.5-1.7,3.5-4.3v-53.4c0-.6.4-1,1-1h8.6ZM805,32.5c0-.6.4-1,1-1h12c11,0,16,5.4,16,23.8v20.4c0,18.4-5,23.8-16,23.8h-12c-.6,0-1-.4-1-1V32.5ZM815.5,89.1h1c6.1,0,6.8-2.6,6.8-12.6v-21.9c0-10-.7-12.6-6.8-12.6h-1v47.2ZM-1.1,2.7v123.5c0,1.6,1.3,2.8,2.8,2.8h893.3c1.6,0,2.8-1.3,2.8-2.8V2.7c0-1.6-1.3-2.8-2.8-2.8H1.8c-1.6,0-2.8,1.3-2.8,2.8ZM597,7.8v113.6c0,1.1-.9,2-2,2h-270.7c-1.1,0-2-.9-2-2V8c0-1.1.9-2,2-2l270.7-.2c1.1,0,2,.9,2,2ZM6.5,6.3l308.2-.3c1.1,0,2,.9,2,2v113.4c0,1.1-.9,2-2,2H6.5c-1.1,0-2-.9-2-2V8.3c0-1.1.9-2,2-2ZM890.3,123.4h-285.6c-1.1,0-2-.9-2-2V7.8c0-1.1.9-2,2-2l285.6-.3c1.1,0,2,.9,2,2v113.9c0,1.1-.9,2-2,2Z" fill="#fff"/>
</svg>