<?xml version="1.0" encoding="UTF-8"?>
<svg id="Layer_1" data-name="Layer 1" xmlns="http://www.w3.org/2000/svg" viewBox="0 0 900 113">
  <path d="M121.3,36v40c0,2.6-1,4.2-3.4,4.2s-3.5-1.6-3.5-4.2v-40c0-2.6,1.1-4.2,3.5-4.2s3.4,1.6,3.4,4.2ZM56.6,41.1c0-5.5-.6-8.2-6.8-8.2h-.6v16.8h.6c6.1,0,6.8-2.5,6.8-8.6ZM304.4,32.9h-1v46.3h1c6,0,6.7-2.6,6.7-12.4v-21.5c0-9.8-.7-12.4-6.7-12.4ZM50.7,59.6h-1.4v19.6h1.4c6,0,6.7-3,6.7-9.9s-.6-9.7-6.7-9.7ZM430,33.1h-.8v20.6h.8c6,0,6.7-2.8,6.7-10.2s-.7-10.4-6.7-10.4ZM488.3,13.8v85.4c0,8.3-5.5,13.8-13.8,13.8H13.8c-8.3,0-13.8-5.5-13.8-13.8V13.8C0,5.5,5.5,0,13.8,0h460.7c8.3,0,13.8,5.5,13.8,13.8ZM67.8,70.6c0-8.7-1.8-14.1-6.7-16.7,4.4-2.2,5.9-6.6,5.9-14.2s-3.6-17-16.5-17h-10.6c-.6,0-1,.4-1,1v64.8c0,.6.4,1,1,1h12.3c12.3,0,15.5-7.9,15.5-18.8ZM131.7,36c0-8.7-5.2-14.3-13.8-14.3s-13.8,5.6-13.8,14.3v40c0,8.7,5.1,14.3,13.8,14.3s13.8-5.6,13.8-14.3v-40ZM196.5,23.7c0-.6-.4-1-1-1h-8.5c-.6,0-1,.4-1,1v52.4c0,2.6-1,4.2-3.4,4.2s-3.5-1.6-3.5-4.2V23.7c0-.6-.4-1-1-1h-8.4c-.6,0-1,.4-1,1v52.4c0,8.7,5.1,14.3,13.8,14.3s13.8-5.6,13.8-14.3V23.7ZM257.8,79.7c0-.6-.4-1-1-1h-12.8V23.7c0-.6-.4-1-1-1h-8.4c-.6,0-1,.4-1,1v64.8c0,.6.4,1,1,1h22.1c.6,0,1-.4,1-1v-8.8ZM321.7,46.1c0-18-5-23.3-15.7-23.3h-11.8c-.6,0-1,.4-1,1v64.8c0,.6.4,1,1,1h11.8c10.8,0,15.7-5.2,15.7-23.3v-20ZM382.5,23.7c0-.6-.4-1-1-1h-21.7c-.6,0-1,.4-1,1v64.8c0,.6.4,1,1,1h21.7c.6,0,1-.4,1-1v-8.8c0-.6-.4-1-1-1h-12.4v-17.9h8.7c.6,0,1-.4,1-1v-8.5c0-.6-.4-1-1-1h-8.7v-17h12.4c.6,0,1-.4,1-1v-8.8ZM448.7,88.5l-6.7-27.8c3.9-3.4,5.1-9.5,5.1-17.2,0-12.7-3.2-20.8-15.5-20.8h-11.8c-.6,0-1,.4-1,1v64.8c0,.6.4,1,1,1h8.4c.6,0,1-.4,1-1v-24.4h3.3l5.2,24.5c0,.6.6.9,1.1.9h9c.6,0,.9-.3.8-.9ZM535.9,1.6c-.2-1-1-1.6-1.9-1.6h-18.2c-1,0-1.6.6-1.6,1.6v109.8c0,1,.6,1.6,1.6,1.6h13.1c1,0,1.6-.6,1.6-1.6V36.2l11.3,56.4c.2,1,1,1.6,1.9,1.6h6.6c1,0,1.8-.6,1.9-1.6l11.3-56.4v75.2c0,1,.6,1.6,1.6,1.6h13.1c1.1,0,1.8-.6,1.8-1.6V1.6c0-1-.6-1.6-1.8-1.6h-17.9c-1,0-1.8.6-1.9,1.6l-11.3,57-11.1-57ZM610.5,113c1,0,1.6-.6,1.6-1.6V1.6c0-1-.6-1.6-1.6-1.6h-14.2c-1,0-1.6.6-1.6,1.6v109.8c0,1,.6,1.6,1.6,1.6h14.2ZM656.2,13.9c0,5.8,0,9.4-1.3,12.8l-3.9,10.7-.6,3.6-.6-3.6-3.9-10.7c-1.5-3.4-1.5-6.9-1.5-12.8V1.6c0-1-.6-1.6-1.6-1.6h-14.2c-1,0-1.6.6-1.6,1.6v11.3c0,5.8-.5,12.4,2.3,18.1l11.9,25.5-11.9,25.3c-2.7,5.7-2.3,12.3-2.3,18.1v11.5c0,1,.6,1.6,1.6,1.6h14.2c1,0,1.6-.6,1.6-1.6v-12.4c0-5.8,0-9.4,1.5-12.8l3.9-10.7.6-3.6.6,3.6,3.9,10.7c1.3,3.4,1.3,6.9,1.3,12.8v12.4c0,1,.6,1.6,1.6,1.6h14.4c1,0,1.6-.6,1.6-1.6v-11.5c0-5.8.5-12.4-2.3-18.1l-12.1-25.3,12.1-25.5c2.7-5.7,2.3-12.3,2.3-18.1V1.6c0-1-.6-1.6-1.6-1.6h-14.4c-1,0-1.6.6-1.6,1.6v12.3ZM700.1,111.4c0,1,.6,1.6,1.6,1.6h14.4c1,0,1.6-.6,1.6-1.6V18.1h15c1,0,1.6-.6,1.6-1.6V1.6c0-1-.6-1.6-1.6-1.6h-47.5c-1,0-1.6.6-1.6,1.6v14.9c0,1,.6,1.6,1.6,1.6h14.9v93.3ZM773.7,1.6c-.2-1-1-1.6-1.9-1.6h-18.2c-1,0-1.8.6-1.9,1.6l-10.5,43.8c-1.3,5.3-1.8,8.6-1.8,14.5v51.5c0,1,.6,1.6,1.6,1.6h14.2c1,0,1.6-.6,1.6-1.6v-32.8h11.8v32.8c0,1,.6,1.6,1.6,1.6h14.4c1,0,1.6-.6,1.6-1.6v-51.5c0-6-.5-9.4-1.8-14.5l-10.7-43.8ZM756.8,61.4c0-5.7.5-9,1.6-14.4l3.9-20.3.5-5.5.5,5.5,3.9,20.3c1,5.3,1.5,8.7,1.5,14.4h-11.8ZM818.3,71.7h3.9c20.8,0,26.3-13.9,26.3-35.7s-5.5-36-26.3-36h-19.7c-1,0-1.6.6-1.6,1.6v109.8c0,1,.6,1.6,1.6,1.6h14.2c1,0,1.6-.6,1.6-1.6v-39.7ZM818.3,17.6h.8c10.3,0,11.5,4.8,11.5,18.4s-1.1,18.1-11.5,18.1h-.8V17.6ZM898.4,113c1,0,1.6-.6,1.6-1.6v-14.9c0-1-.6-1.6-1.6-1.6h-21v-30.4h14.7c1,0,1.6-.6,1.6-1.6v-14.4c0-1-.6-1.6-1.6-1.6h-14.7v-28.9h21c1,0,1.6-.6,1.6-1.6V1.6c0-1-.6-1.6-1.6-1.6h-36.8c-1,0-1.6.6-1.6,1.6v109.8c0,1,.6,1.6,1.6,1.6h36.8Z" fill="#fff"/>
</svg>