<?xml version="1.0" encoding="UTF-8"?>
<svg id="Layer_1" data-name="Layer 1" xmlns="http://www.w3.org/2000/svg" xmlns:xlink="http://www.w3.org/1999/xlink" viewBox="0 0 900 515.5">
  <defs>
    <symbol id="Mixtape_Stacked" data-name="Mixtape Stacked" viewBox="0 0 900 515.5">
      <path d="M223.5,66.4v73.7c0,4.7-1.9,7.7-6.3,7.7s-6.5-3-6.5-7.7v-73.7c0-4.7,2.1-7.7,6.5-7.7s6.3,3,6.3,7.7ZM104.4,75.7c0-10.2-1.1-15.1-12.5-15.1h-1.1v30.9h1.1c11.2,0,12.5-4.6,12.5-15.8ZM561.1,60.6h-1.8v85.3h1.8c11.1,0,12.3-4.7,12.3-22.8v-39.7c0-18.1-1.2-22.8-12.3-22.8ZM93.5,109.8h-2.6v36.2h2.6c11.1,0,12.3-5.4,12.3-18.3s-1.1-17.9-12.3-17.9ZM792.4,61h-1.4v37.9h1.4c11.1,0,12.3-5.1,12.3-18.8s-1.2-19.1-12.3-19.1ZM900,25.5v157.3c0,15.3-10.2,25.5-25.5,25.5H25.5c-15.3,0-25.5-10.2-25.5-25.5V25.5C0,10.2,10.2,0,25.5,0h849c15.3,0,25.5,10.2,25.5,25.5ZM124.9,130.2c0-16-3.3-26-12.3-30.7,8.1-4,10.9-12.1,10.9-26.2s-6.7-31.4-30.4-31.4h-19.5c-1.1,0-1.8.7-1.8,1.8v119.4c0,1.1.7,1.8,1.8,1.8h22.6c22.6,0,28.6-14.6,28.6-34.6ZM242.7,66.4c0-16-9.7-26.3-25.5-26.3s-25.5,10.4-25.5,26.3v73.7c0,16,9.5,26.3,25.5,26.3s25.5-10.4,25.5-26.3v-73.7ZM362.2,43.6c0-1.1-.7-1.8-1.8-1.8h-15.6c-1.1,0-1.8.7-1.8,1.8v96.5c0,4.7-1.9,7.7-6.3,7.7s-6.5-3-6.5-7.7V43.6c0-1.1-.7-1.8-1.8-1.8h-15.4c-1.1,0-1.8.7-1.8,1.8v96.5c0,16,9.5,26.3,25.5,26.3s25.5-10.4,25.5-26.3V43.6ZM475.1,146.8c0-1.1-.7-1.8-1.8-1.8h-23.5V43.6c0-1.1-.7-1.8-1.8-1.8h-15.4c-1.1,0-1.8.7-1.8,1.8v119.4c0,1.1.7,1.8,1.8,1.8h40.7c1.1,0,1.8-.7,1.8-1.8v-16.1ZM592.8,84.9c0-33.2-9.1-43-29-43h-21.8c-1.1,0-1.8.7-1.8,1.8v119.4c0,1.1.7,1.8,1.8,1.8h21.8c19.8,0,29-9.7,29-43v-36.9ZM705,43.6c0-1.1-.7-1.8-1.8-1.8h-40c-1.1,0-1.8.7-1.8,1.8v119.4c0,1.1.7,1.8,1.8,1.8h40c1.1,0,1.8-.7,1.8-1.8v-16.1c0-1.1-.7-1.8-1.8-1.8h-22.8v-33h16c1.1,0,1.8-.7,1.8-1.8v-15.6c0-1.1-.7-1.8-1.8-1.8h-16v-31.4h22.8c1.1,0,1.8-.7,1.8-1.8v-16.1ZM827,163.2l-12.3-51.3c7.2-6.3,9.5-17.6,9.5-31.8,0-23.3-6-38.3-28.6-38.3h-21.8c-1.1,0-1.8.7-1.8,1.8v119.4c0,1.1.7,1.8,1.8,1.8h15.4c1.1,0,1.8-.7,1.8-1.8v-44.9h6.1l9.7,45.1c.2,1.1,1.1,1.6,2.1,1.6h16.7c1.1,0,1.6-.5,1.4-1.6ZM50.8,255.6c-.4-2.3-2.3-3.8-4.5-3.8H3.8c-2.3,0-3.8,1.5-3.8,3.8v256.1c0,2.3,1.5,3.8,3.8,3.8h30.5c2.3,0,3.8-1.5,3.8-3.8v-175.5l26.4,131.4c.4,2.3,2.3,3.8,4.5,3.8h15.4c2.3,0,4.1-1.5,4.5-3.8l26.4-131.4v175.5c0,2.3,1.5,3.8,3.8,3.8h30.5c2.6,0,4.1-1.5,4.1-3.8V255.6c0-2.3-1.5-3.8-4.1-3.8h-41.8c-2.3,0-4.1,1.5-4.5,3.8l-26.4,132.9-26-132.9ZM224.8,515.5c2.3,0,3.8-1.5,3.8-3.8V255.6c0-2.3-1.5-3.8-3.8-3.8h-33.1c-2.3,0-3.8,1.5-3.8,3.8v256.1c0,2.3,1.5,3.8,3.8,3.8h33.1ZM331.4,284.2c0,13.6,0,21.8-3,29.7l-9,24.9-1.5,8.3-1.5-8.3-9-24.9c-3.4-7.9-3.4-16.2-3.4-29.7v-28.6c0-2.3-1.5-3.8-3.8-3.8h-33.1c-2.3,0-3.8,1.5-3.8,3.8v26.4c0,13.6-1.1,29,5.3,42.2l27.9,59.5-27.9,59.1c-6.4,13.2-5.3,28.6-5.3,42.2v26.7c0,2.3,1.5,3.8,3.8,3.8h33.1c2.3,0,3.8-1.5,3.8-3.8v-29c0-13.6,0-21.8,3.4-29.7l9-24.9,1.5-8.3,1.5,8.3,9,24.9c3,7.9,3,16.2,3,29.7v29c0,2.3,1.5,3.8,3.8,3.8h33.5c2.3,0,3.8-1.5,3.8-3.8v-26.7c0-13.6,1.1-29-5.3-42.2l-28.2-59.1,28.2-59.5c6.4-13.2,5.3-28.6,5.3-42.2v-26.4c0-2.3-1.5-3.8-3.8-3.8h-33.5c-2.3,0-3.8,1.5-3.8,3.8v28.6ZM433.8,511.7c0,2.3,1.5,3.8,3.8,3.8h33.5c2.3,0,3.8-1.5,3.8-3.8v-217.7h35c2.3,0,3.8-1.5,3.8-3.8v-34.6c0-2.3-1.5-3.8-3.8-3.8h-110.7c-2.3,0-3.8,1.5-3.8,3.8v34.6c0,2.3,1.5,3.8,3.8,3.8h34.6v217.7ZM605.5,255.6c-.4-2.3-2.3-3.8-4.5-3.8h-42.6c-2.3,0-4.1,1.5-4.5,3.8l-24.5,102c-3,12.4-4.1,20-4.1,33.9v120.1c0,2.3,1.5,3.8,3.8,3.8h33.1c2.3,0,3.8-1.5,3.8-3.8v-76.4h27.5v76.4c0,2.3,1.5,3.8,3.8,3.8h33.5c2.3,0,3.8-1.5,3.8-3.8v-120.1c0-13.9-1.1-21.8-4.1-33.9l-24.9-102ZM566,395c0-13.2,1.1-21.1,3.8-33.5l9-47.4,1.1-12.8,1.1,12.8,9,47.4c2.3,12.4,3.4,20.3,3.4,33.5h-27.5ZM709.5,419.1h9c48.6,0,61.4-32.4,61.4-83.2s-12.8-84-61.4-84h-45.9c-2.3,0-3.8,1.5-3.8,3.8v256.1c0,2.3,1.5,3.8,3.8,3.8h33.1c2.3,0,3.8-1.5,3.8-3.8v-92.6ZM709.5,292.9h1.9c24.1,0,26.7,11.3,26.7,42.9s-2.6,42.2-26.7,42.2h-1.9v-85.1ZM896.2,515.5c2.3,0,3.8-1.5,3.8-3.8v-34.6c0-2.3-1.5-3.8-3.8-3.8h-49v-70.8h34.3c2.3,0,3.8-1.5,3.8-3.8v-33.5c0-2.3-1.5-3.8-3.8-3.8h-34.3v-67.4h49c2.3,0,3.8-1.5,3.8-3.8v-34.6c0-2.3-1.5-3.8-3.8-3.8h-85.9c-2.3,0-3.8,1.5-3.8,3.8v256.1c0,2.3,1.5,3.8,3.8,3.8h85.9Z"/>
    </symbol>
  </defs>
  <use width="900" height="515.5" xlink:href="#Mixtape_Stacked"/>
</svg>