<?xml version="1.0" encoding="UTF-8"?>
<svg id="Layer_1" data-name="Layer 1" xmlns="http://www.w3.org/2000/svg" viewBox="0 0 900 515.5">
  <path d="M153.6,255.6v256.1c0,2.3-1.5,3.8-4.1,3.8h-30.5c-2.3,0-3.8-1.5-3.8-3.8v-175.5l-26.4,131.4c-.4,2.3-2.3,3.8-4.5,3.8h-15.4c-2.3,0-4.1-1.5-4.5-3.8l-26.4-131.4v175.5c0,2.3-1.5,3.8-3.8,3.8H3.8c-2.3,0-3.8-1.5-3.8-3.8V255.6c0-2.3,1.5-3.8,3.8-3.8h42.6c2.3,0,4.1,1.5,4.5,3.8l26,132.9,26.4-132.9c.4-2.3,2.3-3.8,4.5-3.8h41.8c2.6,0,4.1,1.5,4.1,3.8ZM224.8,251.9h-33.1c-2.3,0-3.8,1.5-3.8,3.8v256.1c0,2.3,1.5,3.8,3.8,3.8h33.1c2.3,0,3.8-1.5,3.8-3.8V255.6c0-2.3-1.5-3.8-3.8-3.8ZM372.4,282v-26.4c0-2.3-1.5-3.8-3.8-3.8h-33.5c-2.3,0-3.8,1.5-3.8,3.8v28.6c0,13.6,0,21.8-3,29.7l-9,24.9-1.5,8.3-1.5-8.3-9-24.9c-3.4-7.9-3.4-16.2-3.4-29.7v-28.6c0-2.3-1.5-3.8-3.8-3.8h-33.1c-2.3,0-3.8,1.5-3.8,3.8v26.4c0,13.6-1.1,29,5.3,42.2l27.9,59.5-27.9,59.1c-6.4,13.2-5.3,28.6-5.3,42.2v26.7c0,2.3,1.5,3.8,3.8,3.8h33.1c2.3,0,3.8-1.5,3.8-3.8v-29c0-13.6,0-21.8,3.4-29.7l9-24.9,1.5-8.3,1.5,8.3,9,24.9c3,7.9,3,16.2,3,29.7v29c0,2.3,1.5,3.8,3.8,3.8h33.5c2.3,0,3.8-1.5,3.8-3.8v-26.7c0-13.6,1.1-29-5.3-42.2l-28.2-59.1,28.2-59.5c6.4-13.2,5.3-28.6,5.3-42.2ZM509.9,251.9h-110.7c-2.3,0-3.8,1.5-3.8,3.8v34.6c0,2.3,1.5,3.8,3.8,3.8h34.6v217.7c0,2.3,1.5,3.8,3.8,3.8h33.5c2.3,0,3.8-1.5,3.8-3.8v-217.7h35c2.3,0,3.8-1.5,3.8-3.8v-34.6c0-2.3-1.5-3.8-3.8-3.8ZM630.4,357.7c3,12,4.1,20,4.1,33.9v120.1c0,2.3-1.5,3.8-3.8,3.8h-33.5c-2.3,0-3.8-1.5-3.8-3.8v-76.4h-27.5v76.4c0,2.3-1.5,3.8-3.8,3.8h-33.1c-2.3,0-3.8-1.5-3.8-3.8v-120.1c0-13.9,1.1-21.5,4.1-33.9l24.5-102c.4-2.3,2.3-3.8,4.5-3.8h42.6c2.3,0,4.1,1.5,4.5,3.8l24.9,102ZM593.5,395c0-13.2-1.1-21.1-3.4-33.5l-9-47.4-1.1-12.8-1.1,12.8-9,47.4c-2.6,12.4-3.8,20.3-3.8,33.5h27.5ZM779.9,335.8c0,50.8-12.8,83.2-61.4,83.2h-9v92.6c0,2.3-1.5,3.8-3.8,3.8h-33.1c-2.3,0-3.8-1.5-3.8-3.8V255.6c0-2.3,1.5-3.8,3.8-3.8h45.9c48.6,0,61.4,32.8,61.4,84ZM738.1,335.8c0-31.6-2.6-42.9-26.7-42.9h-1.9v85.1h1.9c24.1,0,26.7-11.3,26.7-42.2ZM896.2,294c2.3,0,3.8-1.5,3.8-3.8v-34.6c0-2.3-1.5-3.8-3.8-3.8h-85.9c-2.3,0-3.8,1.5-3.8,3.8v256.1c0,2.3,1.5,3.8,3.8,3.8h85.9c2.3,0,3.8-1.5,3.8-3.8v-34.6c0-2.3-1.5-3.8-3.8-3.8h-49v-70.8h34.3c2.3,0,3.8-1.5,3.8-3.8v-33.5c0-2.3-1.5-3.8-3.8-3.8h-34.3v-67.4h49Z" fill="#fff"/>
  <path d="M864.8,224.1H35.2c-20.7,0-35.2-14.5-35.2-35.2V35.2C0,14.5,14.5,0,35.2,0h829.6c20.7,0,35.2,14.5,35.2,35.2v153.7c0,20.7-14.5,35.2-35.2,35.2ZM35.2,20.5c-9.3,0-14.7,5.3-14.7,14.7v153.7c0,9.3,5.3,14.6,14.7,14.6h829.6c9.3,0,14.7-5.3,14.7-14.6V35.2c0-9.3-5.3-14.7-14.7-14.7H35.2ZM120.3,107.4c7.9-3.9,10.6-11.8,10.6-25.6s-6.5-30.7-29.7-30.7h-19c-1,0-1.7.7-1.7,1.7v116.6c0,1,.7,1.7,1.7,1.7h22.1c22.1,0,28-14.2,28-33.8s-3.3-25.4-12-30ZM99,69.5h1c11.2,0,12.2,4.8,12.2,14.8s-1.2,15.4-12.2,15.4h-1v-30.2ZM101.6,152.9h-2.6v-35.3h2.6c11,0,12,5.7,12,17.5s-1.2,17.8-12,17.8ZM222.5,49.5c-15.6,0-24.9,10.1-24.9,25.7v72c0,15.6,9.3,25.7,24.9,25.7s24.9-10.1,24.9-25.7v-72c0-15.6-9.4-25.7-24.9-25.7ZM228.7,147.2c0,4.6-1.9,7.5-6.2,7.5s-6.3-2.9-6.3-7.5v-72c0-4.6,2.1-7.5,6.3-7.5s6.2,2.9,6.2,7.5v72ZM362.5,51.2h-15.3c-1,0-1.7.7-1.7,1.7v94.3c0,4.6-1.9,7.5-6.2,7.5s-6.3-2.9-6.3-7.5V52.9c0-1-.7-1.7-1.7-1.7h-15.1c-1,0-1.7.7-1.7,1.7v94.3c0,15.6,9.3,25.7,24.9,25.7s24.9-10.1,24.9-25.7V52.9c0-1-.7-1.7-1.7-1.7ZM472.8,152h-23V52.9c0-1-.7-1.7-1.7-1.7h-15.1c-1,0-1.7.7-1.7,1.7v116.6c0,1,.7,1.7,1.7,1.7h39.8c1,0,1.7-.7,1.7-1.7v-15.8c0-1-.7-1.7-1.7-1.7ZM561.3,51.2h-21.3c-1,0-1.7.7-1.7,1.7v116.6c0,1,.7,1.7,1.7,1.7h21.3c19.4,0,28.3-9.4,28.3-42v-36c0-32.4-8.9-42-28.3-42ZM570.5,130.6c0,17.7-1.2,22.3-12,22.3h-1.7v-83.4h1.7c10.8,0,12,4.6,12,22.3v38.8ZM697.5,51.2h-39.1c-1,0-1.7.7-1.7,1.7v116.6c0,1,.7,1.7,1.7,1.7h39.1c1,0,1.7-.7,1.7-1.7v-15.8c0-1-.7-1.7-1.7-1.7h-22.3v-32.2h15.6c1,0,1.7-.7,1.7-1.7v-15.3c0-1-.7-1.7-1.7-1.7h-15.6v-30.7h22.3c1,0,1.7-.7,1.7-1.7v-15.8c0-1-.7-1.7-1.7-1.7ZM818.4,169.7l-12-50.1c7-6.2,9.3-17.2,9.3-31,0-22.8-5.8-37.4-28-37.4h-21.3c-1,0-1.7.7-1.7,1.7v116.6c0,1,.7,1.7,1.7,1.7h15.1c1,0,1.7-.7,1.7-1.7v-43.9h6l9.4,44.1c.2,1,1,1.5,2.1,1.5h16.3c1,0,1.5-.5,1.4-1.5ZM784.6,106.9h-1.4v-37h1.4c10.8,0,12,5,12,18.7s-1.2,18.4-12,18.4Z" fill="#fff"/>
</svg>